<svg width="40" height="48" viewBox="0 0 40 48" fill="none" xmlns="http://www.w3.org/2000/svg">
<path d="M26.3451 4.40784L28.3924 0.629214C28.4186 0.580796 28.4352 0.527575 28.4413 0.472592C28.4474 0.417608 28.4428 0.361937 28.4279 0.308759C28.4129 0.25558 28.3879 0.205935 28.3542 0.162657C28.3205 0.11938 28.2788 0.0833181 28.2314 0.0565304C28.1841 0.0297428 28.1321 0.0127542 28.0783 0.0065345C28.0246 0.000314831 27.9701 0.00498601 27.9182 0.0202812C27.8662 0.0355764 27.8176 0.061196 27.7753 0.0956775C27.733 0.130159 27.6978 0.172827 27.6716 0.221245L25.6029 4.03914C23.8369 3.24709 21.9296 2.83815 20.0014 2.83815C18.0731 2.83815 16.1658 3.24709 14.3999 4.03914L12.3311 0.221245C12.2783 0.122881 12.1893 0.0500376 12.084 0.0187384C11.9786 -0.0125607 11.8653 0.00024865 11.7692 0.0543487C11.673 0.108449 11.6018 0.199408 11.5712 0.307216C11.5406 0.415024 11.5531 0.53085 11.606 0.629214L13.6534 4.40784C11.7054 5.39065 10.0595 6.90321 8.89633 8.77966C7.73313 10.6561 7.0975 12.824 7.05913 15.0456H32.9436C32.9048 12.8235 32.2686 10.6553 31.1046 8.77885C29.9406 6.90235 28.2939 5.39005 26.3451 4.40784ZM7.057 35.2804C7.05616 35.7016 7.1366 36.1188 7.29372 36.5082C7.45084 36.8975 7.68154 37.2513 7.9726 37.5493C8.26366 37.8472 8.60935 38.0834 8.98985 38.2444C9.37034 38.4054 9.77816 38.488 10.1899 38.4874H12.265V45.0324C12.265 45.8196 12.5707 46.5745 13.1149 47.1312C13.659 47.6878 14.397 48.0005 15.1666 48.0005C15.9361 48.0005 16.6741 47.6878 17.2182 47.1312C17.7624 46.5745 18.0681 45.8196 18.0681 45.0324V38.4874H21.9368V45.0324C21.9368 45.8193 22.2424 46.574 22.7863 47.1304C23.3302 47.6868 24.068 47.9994 24.8372 47.9994C25.6065 47.9994 26.3442 47.6868 26.8882 47.1304C27.4321 46.574 27.7377 45.8193 27.7377 45.0324V38.4874H29.8149C30.2262 38.4877 30.6334 38.4051 31.0134 38.2442C31.3933 38.0834 31.7386 37.8475 32.0294 37.55C32.3201 37.2526 32.5507 36.8994 32.708 36.5107C32.8652 36.122 32.946 35.7054 32.9457 35.2848V16.0928H7.05487L7.057 35.2804ZM3.07526 15.5801C2.30599 15.5812 1.56858 15.8945 1.02482 16.4512C0.481065 17.0078 0.175369 17.7624 0.174805 18.5493V30.9171C0.174805 31.3067 0.249827 31.6926 0.395589 32.0525C0.541351 32.4125 0.754997 32.7396 1.02433 33.0151C1.29366 33.2906 1.61341 33.5092 1.96531 33.6583C2.31721 33.8074 2.69437 33.8841 3.07526 33.8841C3.45616 33.8841 3.83332 33.8074 4.18522 33.6583C4.53712 33.5092 4.85687 33.2906 5.1262 33.0151C5.39553 32.7396 5.60918 32.4125 5.75494 32.0525C5.9007 31.6926 5.97572 31.3067 5.97572 30.9171V18.5515C5.9746 17.7649 5.66865 17.0109 5.12495 16.4547C4.58125 15.8986 3.84417 15.5856 3.07526 15.5844V15.5801ZM36.9253 15.5801C36.1561 15.5812 35.4186 15.8945 34.8749 16.4512C34.3311 17.0078 34.0254 17.7624 34.0249 18.5493V30.9171C34.0249 31.3067 34.0999 31.6926 34.2457 32.0525C34.3914 32.4125 34.6051 32.7396 34.8744 33.0151C35.1437 33.2906 35.4635 33.5092 35.8154 33.6583C36.1673 33.8074 36.5444 33.8841 36.9253 33.8841C37.3062 33.8841 37.6834 33.8074 38.0353 33.6583C38.3872 33.5092 38.7069 33.2906 38.9763 33.0151C39.2456 32.7396 39.4592 32.4125 39.605 32.0525C39.7508 31.6926 39.8258 31.3067 39.8258 30.9171V18.5515C39.8247 17.7649 39.5187 17.0109 38.975 16.4547C38.4313 15.8986 37.6942 15.5856 36.9253 15.5844V15.5801Z" fill="#00ACEC"/>
</svg>
