<svg width="11" height="11" viewBox="0 0 11 11" fill="none" xmlns="http://www.w3.org/2000/svg">
<path fill-rule="evenodd" clip-rule="evenodd" d="M5.5 1.03125C3.92944 1.03125 2.65625 2.30444 2.65625 3.875C2.65625 5.44556 3.92944 6.71875 5.5 6.71875C7.07056 6.71875 8.34375 5.44556 8.34375 3.875C8.34375 2.30444 7.07056 1.03125 5.5 1.03125ZM1.84375 3.875C1.84375 1.85571 3.48071 0.21875 5.5 0.21875C7.51929 0.21875 9.15625 1.85571 9.15625 3.875C9.15625 5.89429 7.51929 7.53125 5.5 7.53125C3.48071 7.53125 1.84375 5.89429 1.84375 3.875Z" fill="#3F51B5"/>
<path fill-rule="evenodd" clip-rule="evenodd" d="M5.50007 7.53075C4.57293 7.53075 3.66213 7.77483 2.85923 8.23843C2.05633 8.70203 1.38962 9.36883 0.926128 10.1718C0.813963 10.3661 0.565511 10.4327 0.371194 10.3205C0.176877 10.2084 0.11028 9.95993 0.222445 9.76561C0.757246 8.83912 1.52653 8.06973 2.45295 7.5348C3.37937 6.99987 4.4303 6.71825 5.50007 6.71825C6.56984 6.71825 7.62076 6.99987 8.54719 7.5348C9.47361 8.06973 10.2429 8.83912 10.7777 9.76561C10.8899 9.95993 10.8233 10.2084 10.6289 10.3205C10.4346 10.4327 10.1862 10.3661 10.074 10.1718C9.61051 9.36883 8.94381 8.70203 8.1409 8.23843C7.338 7.77483 6.4272 7.53075 5.50007 7.53075Z" fill="#3F51B5"/>
</svg>
