<svg width="24" height="24" viewBox="0 0 24 24" fill="none" xmlns="http://www.w3.org/2000/svg">
<path d="M20.0166 15.1111C21.3043 15.1111 22.4032 14.1922 22.6299 12.9267L23.9854 5.49333C24.0332 5.23444 23.9621 4.96667 23.7932 4.76444C23.6243 4.56222 23.3743 4.44444 23.111 4.44444H5.18331L4.6422 1.46667C4.4922 0.624444 3.76331 0.00777778 2.89998 0H0.888884C0.397776 0 0 0.397778 0 0.888889C0 1.38 0.397776 1.77778 0.888884 1.77778L2.89221 1.78111L5.17108 14.3122C5.17553 14.3544 5.18331 14.3956 5.19331 14.4367L5.9433 18.5578C5.29775 19.1278 4.88886 19.9622 4.88886 20.8889C4.88886 22.6044 6.28441 24 7.99996 24C9.7155 24 11.111 22.6044 11.111 20.8889C11.111 20.4122 11.0033 19.96 10.8099 19.5556H16.7444C16.5521 19.96 16.4432 20.4122 16.4432 20.8889C16.4432 22.6044 17.8388 24 19.5543 24C21.2699 24 22.6654 22.6044 22.6654 20.8889C22.6654 19.1733 21.2699 17.7778 19.5543 17.7778H7.60885L7.12329 15.1111H20.0166ZM9.33328 20.8889C9.33328 21.6244 8.73551 22.2222 7.99996 22.2222C7.2644 22.2222 6.66663 21.6244 6.66663 20.8889C6.66663 20.1533 7.2644 19.5556 7.99996 19.5556C8.73551 19.5556 9.33328 20.1533 9.33328 20.8889ZM20.8888 20.8889C20.8888 21.6244 20.291 22.2222 19.5554 22.2222C18.8199 22.2222 18.2221 21.6244 18.2221 20.8889C18.2221 20.1533 18.8199 19.5556 19.5554 19.5556C20.291 19.5556 20.8888 20.1533 20.8888 20.8889ZM5.50664 6.22222H22.0454L20.881 12.61C20.8054 13.03 20.4432 13.3333 20.0143 13.3333H6.79996L5.50664 6.22222Z" fill="white"/>
</svg>
