<svg width="27" height="27" viewBox="0 0 27 27" fill="none" xmlns="http://www.w3.org/2000/svg">
<path d="M22.5187 17C23.9675 17 25.2038 15.9662 25.4587 14.5425L26.9837 6.18C27.0375 5.88875 26.9575 5.5875 26.7675 5.36C26.5775 5.1325 26.2962 5 26 5H5.83125L5.2225 1.65C5.05375 0.7025 4.23375 0.00875 3.2625 0H1C0.4475 0 0 0.4475 0 1C0 1.5525 0.4475 2 1 2L3.25375 2.00375L5.8175 16.1012C5.8225 16.1488 5.83125 16.195 5.8425 16.2412L6.68625 20.8775C5.96 21.5188 5.5 22.4575 5.5 23.5C5.5 25.43 7.07 27 9 27C10.93 27 12.5 25.43 12.5 23.5C12.5 22.9638 12.3787 22.455 12.1613 22H18.8375C18.6213 22.455 18.4988 22.9638 18.4988 23.5C18.4988 25.43 20.0688 27 21.9988 27C23.9288 27 25.4988 25.43 25.4988 23.5C25.4988 21.57 23.9288 20 21.9988 20H8.56L8.01375 17H22.5187ZM10.5 23.5C10.5 24.3275 9.8275 25 9 25C8.1725 25 7.5 24.3275 7.5 23.5C7.5 22.6725 8.1725 22 9 22C9.8275 22 10.5 22.6725 10.5 23.5ZM23.5 23.5C23.5 24.3275 22.8275 25 22 25C21.1725 25 20.5 24.3275 20.5 23.5C20.5 22.6725 21.1725 22 22 22C22.8275 22 23.5 22.6725 23.5 23.5ZM6.195 7H24.8013L23.4912 14.1862C23.4062 14.6587 22.9988 15 22.5163 15H7.65L6.195 7Z" fill="#185494"/>
</svg>
