<svg width="26" height="23" viewBox="0 0 26 23" fill="none" xmlns="http://www.w3.org/2000/svg">
<path fill-rule="evenodd" clip-rule="evenodd" d="M0.585787 0.585787C0.960859 0.210714 1.46957 0 2 0H24C24.5304 0 25.0391 0.210714 25.4142 0.585787C25.7893 0.960861 26 1.46957 26 2V22C26 22.3466 25.8205 22.6684 25.5257 22.8507C25.2309 23.0329 24.8628 23.0494 24.5528 22.8944L21 21.118L17.4472 22.8944C17.1657 23.0352 16.8343 23.0352 16.5528 22.8944L13 21.118L9.44721 22.8944C9.16569 23.0352 8.83431 23.0352 8.55279 22.8944L5 21.118L1.44721 22.8944C1.13723 23.0494 0.769085 23.0329 0.474269 22.8507C0.179452 22.6684 0 22.3466 0 22V2C0 1.46957 0.210714 0.960859 0.585787 0.585787ZM24 2L2 2L2 20.382L4.55279 19.1056C4.83431 18.9648 5.16569 18.9648 5.44721 19.1056L9 20.882L12.5528 19.1056C12.8343 18.9648 13.1657 18.9648 13.4472 19.1056L17 20.882L20.5528 19.1056C20.8343 18.9648 21.1657 18.9648 21.4472 19.1056L24 20.382V2Z" fill="#5793CE"/>
<path fill-rule="evenodd" clip-rule="evenodd" d="M9.99998 6C10.3787 6 10.725 6.214 10.8944 6.55279L14.8944 14.5528C15.1414 15.0468 14.9412 15.6474 14.4472 15.8944C13.9532 16.1414 13.3525 15.9412 13.1055 15.4472L9.99998 9.23607L6.8944 15.4472C6.64741 15.9412 6.04674 16.1414 5.55276 15.8944C5.05878 15.6474 4.85856 15.0468 5.10555 14.5528L9.10555 6.55279C9.27494 6.214 9.6212 6 9.99998 6Z" fill="#5793CE"/>
<path fill-rule="evenodd" clip-rule="evenodd" d="M6 13C6 12.4477 6.44772 12 7 12H13C13.5523 12 14 12.4477 14 13C14 13.5523 13.5523 14 13 14H7C6.44772 14 6 13.5523 6 13Z" fill="#5793CE"/>
<path fill-rule="evenodd" clip-rule="evenodd" d="M15 11C15 10.4477 15.4477 10 16 10H21C21.5523 10 22 10.4477 22 11C22 11.5523 21.5523 12 21 12H16C15.4477 12 15 11.5523 15 11Z" fill="#5793CE"/>
<path fill-rule="evenodd" clip-rule="evenodd" d="M18.5 7.5C19.0523 7.5 19.5 7.94772 19.5 8.5V13.5C19.5 14.0523 19.0523 14.5 18.5 14.5C17.9477 14.5 17.5 14.0523 17.5 13.5V8.5C17.5 7.94772 17.9477 7.5 18.5 7.5Z" fill="#5793CE"/>
</svg>
