<svg width="16" height="16" viewBox="0 0 16 16" fill="none" xmlns="http://www.w3.org/2000/svg">
<path fill-rule="evenodd" clip-rule="evenodd" d="M11.5007 5.92422C11.7152 6.149 11.7068 6.50506 11.482 6.7195L7.35468 10.657C7.13722 10.8645 6.79507 10.8643 6.57778 10.6567L4.51763 8.68792C4.29303 8.47329 4.28495 8.11722 4.49958 7.89263C4.71421 7.66803 5.07028 7.65995 5.29487 7.87458L6.96674 9.47227L10.7055 5.9055C10.9303 5.69106 11.2863 5.69945 11.5007 5.92422Z" fill="#185494"/>
<path fill-rule="evenodd" clip-rule="evenodd" d="M8 1.8125C4.58274 1.8125 1.8125 4.58274 1.8125 8C1.8125 11.4173 4.58274 14.1875 8 14.1875C11.4173 14.1875 14.1875 11.4173 14.1875 8C14.1875 4.58274 11.4173 1.8125 8 1.8125ZM0.6875 8C0.6875 3.96142 3.96142 0.6875 8 0.6875C12.0386 0.6875 15.3125 3.96142 15.3125 8C15.3125 12.0386 12.0386 15.3125 8 15.3125C3.96142 15.3125 0.6875 12.0386 0.6875 8Z" fill="#185494"/>
</svg>
