<svg width="26" height="26" viewBox="0 0 26 26" fill="none" xmlns="http://www.w3.org/2000/svg">
<path fill-rule="evenodd" clip-rule="evenodd" d="M13 2C6.92487 2 2 6.92487 2 13C2 19.0751 6.92487 24 13 24C19.0751 24 24 19.0751 24 13C24 6.92487 19.0751 2 13 2ZM0 13C0 5.8203 5.8203 0 13 0C20.1797 0 26 5.8203 26 13C26 20.1797 20.1797 26 13 26C5.8203 26 0 20.1797 0 13Z" fill="#185494"/>
<path fill-rule="evenodd" clip-rule="evenodd" d="M10.7567 7.83104C11.1262 7.42053 11.7585 7.38726 12.169 7.75671L17.169 12.2567C17.3797 12.4464 17.5 12.7165 17.5 13C17.5 13.2835 17.3797 13.5537 17.169 13.7433L12.169 18.2433C11.7585 18.6128 11.1262 18.5795 10.7567 18.169C10.3873 17.7585 10.4205 17.1262 10.831 16.7567L15.0052 13L10.831 9.2433C10.4205 8.87384 10.3873 8.24155 10.7567 7.83104Z" fill="#185494"/>
</svg>
