<svg width="20" height="24" viewBox="0 0 20 24" fill="none" xmlns="http://www.w3.org/2000/svg">
<path fill-rule="evenodd" clip-rule="evenodd" d="M14.375 0.625C15.3415 0.625 16.125 1.4085 16.125 2.375V18.125C16.125 19.0915 15.3415 19.875 14.375 19.875H2.125C1.1585 19.875 0.375 19.0915 0.375 18.125V2.375C0.375 1.4085 1.1585 0.625 2.125 0.625L14.375 0.625ZM14.375 18.125L14.375 2.375L2.125 2.375V18.125H14.375Z" fill="#185494"/>
<path fill-rule="evenodd" clip-rule="evenodd" d="M18.75 4.125C19.2332 4.125 19.625 4.51675 19.625 5L19.625 21.625C19.625 22.0891 19.4406 22.5342 19.1124 22.8624C18.7842 23.1906 18.3391 23.375 17.875 23.375H4.75C4.26675 23.375 3.875 22.9832 3.875 22.5C3.875 22.0168 4.26675 21.625 4.75 21.625H17.875L17.875 5C17.875 4.51675 18.2668 4.125 18.75 4.125Z" fill="#185494"/>
</svg>
