<svg width="18" height="20" viewBox="0 0 18 20" fill="none" xmlns="http://www.w3.org/2000/svg">
<path fill-rule="evenodd" clip-rule="evenodd" d="M0 4.25C0 3.83579 0.335786 3.5 0.75 3.5H17.25C17.6642 3.5 18 3.83579 18 4.25C18 4.66421 17.6642 5 17.25 5H0.75C0.335786 5 0 4.66421 0 4.25Z" fill="#0C084F"/>
<path fill-rule="evenodd" clip-rule="evenodd" d="M6.75 8C7.16421 8 7.5 8.33579 7.5 8.75V14.75C7.5 15.1642 7.16421 15.5 6.75 15.5C6.33579 15.5 6 15.1642 6 14.75V8.75C6 8.33579 6.33579 8 6.75 8Z" fill="#0C084F"/>
<path fill-rule="evenodd" clip-rule="evenodd" d="M11.25 8C11.6642 8 12 8.33579 12 8.75V14.75C12 15.1642 11.6642 15.5 11.25 15.5C10.8358 15.5 10.5 15.1642 10.5 14.75V8.75C10.5 8.33579 10.8358 8 11.25 8Z" fill="#0C084F"/>
<path fill-rule="evenodd" clip-rule="evenodd" d="M2.25 3.5C2.66421 3.5 3 3.83579 3 4.25V18.5H15V4.25C15 3.83579 15.3358 3.5 15.75 3.5C16.1642 3.5 16.5 3.83579 16.5 4.25V18.5C16.5 18.8978 16.342 19.2794 16.0607 19.5607C15.7794 19.842 15.3978 20 15 20H3C2.60218 20 2.22065 19.842 1.93934 19.5607C1.65804 19.2794 1.5 18.8978 1.5 18.5V4.25C1.5 3.83579 1.83579 3.5 2.25 3.5Z" fill="#0C084F"/>
<path fill-rule="evenodd" clip-rule="evenodd" d="M5.15901 1.15901C5.58097 0.737053 6.15326 0.5 6.75 0.5H11.25C11.8467 0.5 12.419 0.737053 12.841 1.15901C13.2629 1.58097 13.5 2.15326 13.5 2.75V4.25C13.5 4.66421 13.1642 5 12.75 5C12.3358 5 12 4.66421 12 4.25V2.75C12 2.55109 11.921 2.36032 11.7803 2.21967C11.6397 2.07902 11.4489 2 11.25 2H6.75C6.55109 2 6.36032 2.07902 6.21967 2.21967C6.07902 2.36032 6 2.55109 6 2.75V4.25C6 4.66421 5.66421 5 5.25 5C4.83579 5 4.5 4.66421 4.5 4.25V2.75C4.5 2.15326 4.73705 1.58097 5.15901 1.15901Z" fill="#0C084F"/>
</svg>
