<svg width="24" height="24" viewBox="0 0 24 24" fill="none" xmlns="http://www.w3.org/2000/svg">
<path fill-rule="evenodd" clip-rule="evenodd" d="M6.04289 9.04289C6.43342 8.65237 7.06658 8.65237 7.45711 9.04289L12 13.5858L16.5429 9.04289C16.9334 8.65237 17.5666 8.65237 17.9571 9.04289C18.3476 9.43342 18.3476 10.0666 17.9571 10.4571L12.7071 15.7071C12.3166 16.0976 11.6834 16.0976 11.2929 15.7071L6.04289 10.4571C5.65237 10.0666 5.65237 9.43342 6.04289 9.04289Z" fill="#185494"/>
<path fill-rule="evenodd" clip-rule="evenodd" d="M12 0C12.5523 0 13 0.447715 13 1V15C13 15.5523 12.5523 16 12 16C11.4477 16 11 15.5523 11 15V1C11 0.447715 11.4477 0 12 0Z" fill="#185494"/>
<path fill-rule="evenodd" clip-rule="evenodd" d="M1 14C1.55228 14 2 14.4477 2 15V22H22V15C22 14.4477 22.4477 14 23 14C23.5523 14 24 14.4477 24 15V22C24 22.5304 23.7893 23.0391 23.4142 23.4142C23.0391 23.7893 22.5304 24 22 24H2C1.46957 24 0.960861 23.7893 0.585787 23.4142C0.210714 23.0391 0 22.5304 0 22V15C0 14.4477 0.447715 14 1 14Z" fill="#185494"/>
</svg>
