<svg width="77" height="77" viewBox="0 0 77 77" fill="none" xmlns="http://www.w3.org/2000/svg">
<path d="M11.1222 22.2444H13.6889V27.3778H1.71113C1.03524 27.3778 0.419244 27.7799 0.145466 28.3959C-0.128311 29.0204 -0.00853356 29.7391 0.444911 30.2439C4.72269 34.9494 4.72269 42.0506 0.444911 46.7561C-0.00853356 47.2609 -0.128311 47.9796 0.145466 48.6041C0.419244 49.2201 1.03524 49.6222 1.71113 49.6222H65.8778C72.0121 49.6222 77 44.6343 77 38.5C77 32.3657 72.0121 27.3778 65.8778 27.3778H30.8V22.2444H75.2889C75.9648 22.2444 76.5808 21.8423 76.8545 21.2263C77.1283 20.6018 77.0085 19.8831 76.5551 19.3783C72.2773 14.6728 72.2773 7.57167 76.5551 2.86611C77.0085 2.36133 77.1283 1.64267 76.8545 1.01811C76.7195 0.71549 76.4999 0.458365 76.2221 0.277723C75.9443 0.0970816 75.6202 0.000632638 75.2889 0H11.1222C4.98791 0 2.19634e-05 4.98789 2.19634e-05 11.1222C2.19634e-05 17.2566 4.98791 22.2444 11.1222 22.2444ZM65.8778 30.8C70.1213 30.8 73.5778 34.2564 73.5778 38.5C73.5778 42.7436 70.1213 46.2 65.8778 46.2H5.05635C6.38544 43.8513 7.08397 41.1986 7.08397 38.5C7.08397 35.8014 6.38544 33.1487 5.05635 30.8H13.6889V37.6444C13.6889 37.9622 13.7774 38.2737 13.9445 38.544C14.1115 38.8143 14.3506 39.0328 14.6348 39.1749C14.919 39.317 15.2372 39.3772 15.5537 39.3486C15.8702 39.3201 16.1725 39.204 16.4267 39.0133L22.2445 34.65L28.0622 39.0133C28.3617 39.2358 28.7296 39.3556 29.0889 39.3556C29.5427 39.3556 29.9779 39.1753 30.2988 38.8544C30.6197 38.5335 30.8 38.0983 30.8 37.6444V30.8H65.8778ZM17.1111 34.2222V13.6889H27.3778V34.2222L23.2711 31.1422C22.9631 30.9112 22.6038 30.8 22.2445 30.8C21.8851 30.8 21.5258 30.9112 21.2178 31.1422L17.1111 34.2222ZM11.1222 3.42222H71.9436C70.6146 5.77088 69.916 8.42358 69.916 11.1222C69.916 13.8209 70.6146 16.4736 71.9436 18.8222H30.8V11.9778C30.8 11.0367 30.03 10.2667 29.0889 10.2667H15.4C14.4589 10.2667 13.6889 11.0367 13.6889 11.9778V18.8222H11.1222C6.87868 18.8222 3.42224 15.3658 3.42224 11.1222C3.42224 6.87867 6.87868 3.42222 11.1222 3.42222ZM76.8545 55.7737C76.7195 55.471 76.4999 55.2139 76.2221 55.0333C75.9443 54.8526 75.6202 54.7562 75.2889 54.7556H11.1222C4.98791 54.7556 2.19634e-05 59.7434 2.19634e-05 65.8778C2.19634e-05 72.0121 4.98791 77 11.1222 77H75.2889C75.9648 77 76.5808 76.5979 76.8545 75.9819C77.1283 75.3573 77.0085 74.6387 76.5551 74.1339C72.2773 69.4283 72.2773 62.3272 76.5551 57.6217C77.0085 57.1169 77.1283 56.3982 76.8545 55.7737ZM71.9436 73.5778H11.1222C6.87868 73.5778 3.42224 70.1213 3.42224 65.8778C3.42224 61.6342 6.87868 58.1778 11.1222 58.1778H71.9436C70.6146 60.5264 69.916 63.1791 69.916 65.8778C69.916 68.5764 70.6146 71.2291 71.9436 73.5778Z" fill="#185494"/>
</svg>
