<svg width="80" height="96" viewBox="0 0 80 96" fill="none" xmlns="http://www.w3.org/2000/svg">
<g id="avatar">
<path id="Combined Shape" fill-rule="evenodd" clip-rule="evenodd" d="M18.7334 21.0844C13.6314 19.4075 9.9477 14.6047 9.9477 8.9416L14.4622 9.60122C13.1235 7.58064 12.3438 5.15736 12.3438 2.55199L18.7334 3.48557V0.155884L54.2696 5.51984C58.1761 6.1095 61.0646 9.46665 61.0646 13.4174V27.513C63.8205 28.2223 65.8568 30.724 65.8568 33.7013C65.8568 36.6786 63.8205 39.1803 61.0646 39.8896V42.4871H61.0312C60.6268 49.7354 56.5752 56.0101 50.6815 59.506V63.2533H57.8698C62.071 63.2533 65.5146 66.4969 65.8328 70.6165C73.53 71.7624 79.4347 78.3995 79.4347 86.4156V107.981H0.363281V86.4156C0.363281 78.1215 6.68453 71.3038 14.7722 70.5173C15.1376 66.445 18.5595 63.2533 22.7269 63.2533H29.1165V59.506C23.2228 56.0101 19.1712 49.7354 18.7667 42.4871H18.7334V40.091C15.2045 40.0909 12.3438 37.2302 12.3438 33.7013C12.3438 30.1725 15.2045 27.3117 18.7334 27.3117V21.0844Z" fill="#C2D1D9"/>
</g>
</svg>
