<svg width="120" height="76" viewBox="0 0 120 76" fill="none" xmlns="http://www.w3.org/2000/svg">
<g id="Group" opacity="0.9">
<g id="WebTemplate">
<g id="Group_2">
<path id="Vector" d="M100.13 49.6462C94.3397 47.2916 86.7898 48.8057 82.4485 44.3468C79.7641 41.5868 79.2941 37.3931 77.2274 34.1562C74.0881 29.2383 67.8096 27.292 61.9649 26.6661C56.6655 26.0998 50.8268 26.1415 46.7475 22.7496C43.0358 19.6648 41.7253 14.413 37.9955 11.349C33.7114 7.82895 27.5022 8.11508 21.9798 8.83042C17.1745 9.45336 12.3933 10.2641 7.65123 11.2596C6.01532 11.6023 3.84615 11.8646 1.68903 12.261V76.5458H99.142C99.6994 76.1195 100.251 75.6873 100.79 75.2373C103.779 72.7485 106.556 69.7858 107.783 66.1138C109.891 59.801 106.345 52.1707 100.13 49.6432V49.6462Z" fill="url(#paint0_linear_6894_5188)"/>
<g id="Clip path group">
<mask id="mask0_6894_5188" style="mask-type:luminance" maskUnits="userSpaceOnUse" x="-23" y="7" width="128" height="80">
<g id="clippath">
<path id="Vector_2" d="M17.7108 7.71234C23.2331 6.99402 29.4424 6.70789 33.7265 10.2309C37.4563 13.2949 38.7668 18.5437 42.4785 21.6315C46.5578 25.0234 52.3964 24.9847 57.6958 25.548C63.5436 26.1709 69.8191 28.1172 72.9584 33.0382C75.0251 36.275 75.4951 40.4717 78.1794 43.2287C82.5208 47.6906 90.0707 46.1735 95.8612 48.5281C102.076 51.0556 105.619 58.6859 103.514 64.9987C102.287 68.6707 99.5126 71.6304 96.521 74.1222C90.5859 79.0639 83.4819 82.6257 75.944 84.4409C66.4418 86.73 56.5179 86.2441 46.7415 86.0951C34.8744 85.9133 22.9108 86.2322 11.2515 84.0474C5.28325 82.9297 -0.68197 81.0967 -5.56863 77.529C-12.0972 72.763 -16.0951 65.3832 -19.4242 58.0629C-20.7558 55.136 -22.0393 52.075 -22.0001 48.8679C-21.9308 43.0767 -17.6979 38.3048 -14.9172 33.208C-12.8805 29.4764 -11.579 25.3572 -11.0759 21.1457C-10.7867 18.7225 -11.5158 15.1518 -9.30141 13.4857C-6.33989 11.2562 -0.202946 10.8896 3.38221 10.1385C8.12426 9.14599 12.9055 8.33527 17.7108 7.70936V7.71234Z" fill="white"/>
</g>
</mask>
<g mask="url(#mask0_6894_5188)">
<g id="Group_3">
<path id="Vector_3" d="M140.215 -8.81152H-2.58002V75.428H140.215V-8.81152Z" fill="url(#paint1_linear_6894_5188)"/>
</g>
</g>
</g>
<path id="Vector_4" d="M3.31898 3.56038C3.31898 5.03874 2.10485 6.23693 0.610529 6.23693C-0.883788 6.23693 -2.09491 5.03576 -2.09491 3.5574C-2.09491 2.07904 -0.880777 0.880859 0.613541 0.880859C2.10786 0.880859 3.31898 2.08202 3.31898 3.56038Z" fill="#73A6E6"/>
<path id="Vector_5" d="M115.586 65.9432C115.586 67.9909 113.904 69.651 111.835 69.6481C109.765 69.6481 108.087 67.9849 108.09 65.9373C108.093 63.8896 109.771 62.2294 111.841 62.2324C113.911 62.2324 115.589 63.8956 115.586 65.9432Z" fill="#73A6E6"/>
<path id="Vector_6" d="M109.44 73.7015C110.169 66.8134 105.113 60.6466 98.1509 59.9253C97.2682 59.8329 96.3945 59.8359 95.5449 59.9194C94.9755 57.4902 92.9057 55.5707 90.2575 55.2965C88.0673 55.07 86.0247 56.0267 84.7834 57.6422C82.3612 57.6124 80.1107 58.5215 78.4205 60.0505C77.8601 59.4454 77.0859 59.0282 76.1941 58.9358C74.3654 58.748 72.7204 59.9819 72.38 61.7345C71.6117 60.9715 70.5814 60.4588 69.4154 60.3366C68.2134 60.2114 67.0685 60.5274 66.1436 61.1503C65.1825 59.6481 63.5647 58.5781 61.6365 58.3784C59.0426 58.1102 56.6595 59.4991 55.5629 61.6838C54.3909 60.6883 52.9147 60.0237 51.2637 59.8538C49.2994 59.6511 47.4315 60.1816 45.9342 61.2219C45.4762 60.0386 44.3796 59.1444 43.0178 59.0013C41.3849 58.8315 39.9027 59.8001 39.3574 61.2546C38.3812 60.1399 36.9954 59.3769 35.3986 59.21C34.3502 59.1027 33.3379 59.2636 32.4311 59.6392C31.5965 57.6929 29.7437 56.2384 27.4661 56.0029C26.6948 55.9224 25.9416 55.991 25.2336 56.1817C23.8116 53.5737 21.4768 51.4993 18.6026 50.4144C18.8346 49.9822 18.9882 49.5023 19.0455 48.9837C19.2262 47.2848 18.2802 45.7289 16.804 45.0315C17.976 44.0628 18.7804 42.6649 18.9521 41.0435C19.1841 38.8528 18.1959 36.817 16.5298 35.592C18.1989 35.4728 19.5908 34.1912 19.7715 32.4863C19.9101 31.1719 19.2895 29.9498 18.2592 29.2524C18.931 28.692 19.3919 27.8873 19.4914 26.9573C19.6932 25.0468 18.2923 23.336 16.3611 23.1363C15.9574 23.0945 15.5597 23.1273 15.1862 23.2138C15.5537 22.5372 15.7947 21.7801 15.8821 20.9694C16.1864 18.0961 14.4209 15.4822 11.7788 14.5701C11.833 14.3496 11.8752 14.1231 11.9023 13.8906C12.1855 11.22 10.2242 8.8266 7.52477 8.54643C4.82536 8.26626 2.40613 10.2066 2.12293 12.8772C2.06268 13.4435 2.10486 13.9979 2.23139 14.5195L-12.7208 18.7101L-6.20729 78.8787L97.928 88.5059L97.5002 84.9054C103.625 84.5924 108.783 79.91 109.44 73.6866V73.7015Z" fill="#73A6E6"/>
<g id="Group_4">
<path id="Vector_7" d="M38.356 43.5921L35.789 41.2812L-5.82567 86.5267L-3.25865 88.8376L38.356 43.5921Z" fill="#5D8DCF"/>
<path id="Vector_8" d="M40.4489 45.4813L39.3013 44.4482L-2.31334 89.6937L-1.16575 90.7268L40.4489 45.4813Z" fill="#5D8DCF"/>
<path id="Vector_9" d="M34.8407 40.4286L33.6931 39.3955L-7.92154 84.641L-6.77396 85.674L34.8407 40.4286Z" fill="#5D8DCF"/>
</g>
<path id="Vector_10" d="M117.026 70.6612C117.134 67.6866 114.784 65.1889 111.781 65.0816C110.554 65.0368 109.41 65.3975 108.473 66.0413C106.683 64.4378 104.333 63.4244 101.73 63.329C98.2112 63.2038 95.0327 64.7835 93.0052 67.3229C91.318 66.0473 89.2302 65.2544 86.9435 65.1739C86.5669 65.159 86.1964 65.168 85.8318 65.1918C85.636 63.7194 84.3948 62.554 82.8432 62.5004C81.7405 62.4616 80.7524 62.9922 80.1649 63.8238C79.2189 62.8432 77.9023 62.2113 76.4231 62.1606C75.1306 62.1129 73.9285 62.5183 72.9675 63.2306C72.0606 62.4527 70.8917 61.9639 69.5992 61.9162C66.7251 61.8119 64.2938 63.9311 63.9895 66.7149C63.872 66.6553 63.7545 66.5987 63.631 66.548C62.3265 66.0055 60.9316 66.0055 59.6963 66.4377C59.5096 64.6106 57.9881 63.1561 56.0841 63.0876C55.0417 63.0488 54.0866 63.4333 53.3786 64.0831C52.4899 63.3648 51.3661 62.9177 50.1339 62.873C47.8322 62.7895 45.8136 64.1337 44.946 66.1009C44.1687 65.7045 43.295 65.466 42.3641 65.4333C41.638 65.4064 40.939 65.5078 40.2853 65.7134C39.1796 62.2649 35.9831 59.7106 32.1208 59.5735C30.7108 59.5228 29.3671 59.8 28.162 60.3365C28.0415 58.8641 26.8244 57.6778 25.2939 57.6242C25.1312 57.6182 24.9745 57.6302 24.8179 57.648C24.1852 56.3664 22.8777 55.4633 21.3382 55.4096C21.0068 55.3977 20.6844 55.4305 20.3741 55.4931C20.1722 53.6332 19.0093 52.0446 17.3704 51.2428C17.9699 49.6184 17.7289 47.8778 16.8522 46.5067C17.2589 46.1312 17.524 45.6006 17.5451 45.0075C17.5813 44.006 16.9215 43.1417 15.9936 42.8674C16.6021 42.2296 16.9938 41.3831 17.0269 40.4383C17.0782 39.0613 16.3641 37.8333 15.2645 37.1477C16.0508 36.2506 16.5449 35.0941 16.5901 33.8155C16.6684 31.6993 15.4995 29.8245 13.734 28.8797C14.201 28.3611 14.4962 27.6815 14.5234 26.9334C14.5866 25.2225 13.2339 23.7859 11.5076 23.7233C11.4383 23.7233 11.372 23.7233 11.3027 23.7233C11.4534 23.2315 11.5438 22.7129 11.5649 22.1734C11.6582 19.5893 10.1067 17.327 7.83508 16.3732C7.97066 15.7652 8.05501 15.1363 8.07911 14.4925C8.29 8.68937 3.71064 3.81615 -2.15515 3.60751C-8.02095 3.39887 -12.9468 7.92932 -13.1577 13.7325C-13.3686 19.5356 -8.7892 24.4088 -2.9234 24.6175C-2.35701 24.6383 -1.79965 24.6115 -1.25435 24.5489L-4.30926 62.4795L22.1606 88.2673L110.22 86.4343L112.248 75.8175C114.863 75.5046 116.932 73.3496 117.032 70.6641L117.026 70.6612Z" fill="#5D8DCF"/>
<path id="Vector_11" d="M91.9205 79.0378C92.6737 73.1094 88.4288 67.7027 82.4364 66.9576C81.6772 66.8622 80.924 66.8503 80.1889 66.9069C79.743 64.7996 77.9926 63.1097 75.712 62.8265C73.826 62.5911 72.0485 63.3809 70.9489 64.752C68.861 64.6834 66.9027 65.4256 65.4175 66.7161C64.9445 66.1826 64.2847 65.8101 63.5194 65.7147C61.9468 65.518 60.5037 66.5552 60.1783 68.0604C59.5276 67.3898 58.6509 66.9278 57.6476 66.8026C56.6142 66.6744 55.62 66.9248 54.8126 67.4464C54.0112 66.132 52.6344 65.1812 50.9774 64.9755C48.745 64.6983 46.6632 65.8548 45.678 67.7176C44.6868 66.8384 43.4245 66.2393 42.0025 66.0634C40.3123 65.8548 38.6915 66.278 37.3809 67.1483C37.0074 66.12 36.0794 65.3272 34.9075 65.1812C33.5035 65.0053 32.205 65.813 31.711 67.0589C30.8915 66.0813 29.7075 65.3958 28.3337 65.2259C27.4329 65.1126 26.5562 65.2348 25.7668 65.5418C25.0829 63.8459 23.5133 62.5612 21.552 62.3168C20.8862 62.2334 20.2354 62.2811 19.6239 62.4331C18.4459 60.1589 16.4695 58.3289 14.0111 57.3423C14.219 56.9727 14.3606 56.5614 14.4178 56.1173C14.6046 54.6538 13.8153 53.2977 12.559 52.6688C13.5863 51.8551 14.3064 50.6629 14.4841 49.268C14.7221 47.3842 13.9087 45.6108 12.4957 44.5229C13.9358 44.4514 15.162 43.3694 15.3488 41.903C15.4934 40.7704 14.9782 39.7093 14.1045 39.0864C14.692 38.6154 15.1078 37.9299 15.2102 37.1281C15.4181 35.4858 14.2401 33.9836 12.5801 33.778C12.2306 33.7333 11.8902 33.7541 11.5648 33.8227C11.8932 33.2445 12.1161 32.5977 12.2065 31.9002C12.5198 29.4264 11.0466 27.1433 8.78403 26.3087C8.83525 26.1209 8.87742 25.9242 8.90153 25.7245C9.19376 23.4265 7.54579 21.3282 5.22297 21.0391C2.90015 20.75 0.779186 22.3803 0.48695 24.6783C0.423683 25.1642 0.450797 25.644 0.550217 26.0971L-12.4196 29.4443L-7.90051 81.4461L81.7254 91.6098L81.4211 88.4981C86.7085 88.3371 91.2396 84.3939 91.9205 79.0348V79.0378Z" fill="#456CB0"/>
<path id="Vector_12" d="M88.2962 79.451C88.6336 76.9891 86.8893 74.7238 84.4007 74.39C83.3855 74.2529 82.4033 74.4615 81.5748 74.9206C80.2191 73.4422 78.3542 72.4109 76.2001 72.1218C73.2898 71.7314 70.518 72.7865 68.623 74.7298C67.3276 73.5316 65.6585 72.706 63.7665 72.4527C63.4562 72.4109 63.1459 72.3871 62.8416 72.3781C62.8024 71.1382 61.8655 70.0712 60.582 69.8983C59.6692 69.7761 58.8045 70.1368 58.2472 70.7806C57.5422 69.8894 56.4998 69.2575 55.2766 69.0936C54.2071 68.9505 53.1737 69.1889 52.3181 69.7016C51.6312 68.9803 50.6972 68.4796 49.6277 68.3365C47.2507 68.0176 45.0544 69.5794 44.5693 71.8655C44.4759 71.8059 44.3825 71.7492 44.2861 71.6986C43.2467 71.1412 42.0868 71.0279 41.0264 71.2873C41.0233 69.7552 39.8815 68.4229 38.3028 68.2113C37.4412 68.0951 36.6127 68.3365 35.971 68.8193C35.2931 68.1517 34.3983 67.6867 33.374 67.5496C31.47 67.2933 29.6804 68.2471 28.7977 69.8089C28.1861 69.4155 27.4781 69.1472 26.7068 69.0459C26.1073 68.9654 25.5168 68.9922 24.9564 69.1085C24.3237 66.1547 21.8804 63.7733 18.6839 63.3441C17.518 63.1891 16.3761 63.3083 15.3307 63.657C15.3518 62.4231 14.439 61.3411 13.1736 61.1712C13.038 61.1534 12.9055 61.1504 12.7759 61.1534C12.3571 60.0386 11.3449 59.1832 10.0705 59.0103C9.79632 58.9746 9.52819 58.9746 9.26307 59.0014C9.25102 57.4396 8.41649 56.0268 7.12101 55.228C7.75369 53.9285 7.69946 52.462 7.08185 51.2519C7.45241 50.9718 7.71452 50.5545 7.7808 50.0627C7.89529 49.2341 7.41626 48.4621 6.6691 48.1581C7.22947 47.6782 7.62113 47.0076 7.72959 46.2237C7.88625 45.0822 7.39517 44.0062 6.53955 43.3475C7.26562 42.6679 7.77478 41.7439 7.91939 40.6858C8.16041 38.9333 7.34396 37.282 5.9581 36.3521C6.38892 35.9587 6.69019 35.4192 6.77455 34.7992C6.96736 33.3835 5.96713 32.081 4.53608 31.8902C4.47884 31.8813 4.4216 31.8813 4.36436 31.8753C4.53006 31.4789 4.65057 31.0557 4.71082 30.6086C5.00306 28.4715 3.9004 26.4656 2.09577 25.488C2.25845 24.9932 2.38197 24.4805 2.45428 23.947C3.11106 19.1453 -0.290322 14.7252 -5.14384 14.0754C-9.99736 13.4256 -14.4653 16.7907 -15.122 21.5924C-15.7788 26.3941 -12.3774 30.8142 -7.5239 31.464C-7.05392 31.5266 -6.58996 31.5504 -6.13202 31.5415L-11.8171 62.7986L8.03086 86.3689L81.3308 91.9962L83.8946 83.3406C86.0939 83.2929 87.9919 81.6715 88.2962 79.448V79.451Z" fill="#27528C"/>
<g id="Group_5">
<g id="Group_6">
<path id="Vector_13" d="M34.1995 44.0657C33.841 43.2729 33.4312 42.5009 32.9763 41.7588C32.5063 40.9898 31.967 40.1612 31.8706 39.2998L29.9606 40.8586C29.9395 40.8735 29.9184 40.8884 29.9003 40.9093C29.3942 41.4577 31.0873 43.7945 33.6813 46.1283C33.9193 46.3429 34.1573 46.5515 34.3953 46.7512C34.5309 46.4651 34.6243 46.17 34.6484 45.8541C34.6936 45.2371 34.4586 44.635 34.2025 44.0687L34.1995 44.0657Z" fill="#93F5E5"/>
<path id="Vector_14" d="M39.291 49.3586C39.3091 49.3408 39.3242 49.3169 39.3362 49.2931L44.7742 41.3529L37.4412 34.7539L31.8737 39.2993C31.9701 40.1606 32.5063 40.9892 32.9793 41.7582C33.4343 42.5004 33.844 43.2723 34.2025 44.0652C34.4586 44.6315 34.6936 45.2336 34.6484 45.8505C34.6243 46.1665 34.5309 46.4645 34.3953 46.7477C36.7212 48.7089 38.8331 49.8564 39.291 49.3586Z" fill="#5DC2AE"/>
</g>
<g id="Group_7">
<path id="Vector_15" d="M44.4609 19.3447C41.159 23.3595 37.6792 27.2492 33.4373 30.2446C31.7381 31.4428 29.9094 32.4979 27.9119 33.094C26.5201 33.5083 25.0378 33.6902 23.5977 33.5381L20.9344 36.62C23.1548 38.62 26.3092 38.9717 28.5687 37.4546L49.1969 23.6069L44.4609 19.3447Z" fill="#164377"/>
<path id="Vector_16" d="M27.912 33.0945C29.9094 32.4984 31.7381 31.4433 33.4373 30.2451C37.6823 27.2496 41.159 23.36 44.4609 19.3452L44.1114 19.0322C41.632 16.7998 37.9564 16.916 35.9228 19.2707L23.5977 33.5386C25.0378 33.6906 26.5201 33.5088 27.912 33.0945Z" fill="#105697"/>
</g>
<g id="Group_8">
<path id="Vector_17" d="M55.4965 42.7133C57.6295 40.7194 59.7656 38.7283 61.8986 36.7343C61.6757 35.4795 61.0279 34.2605 59.9614 33.3007L54.8789 28.7256L43.301 49.6044C45.1267 49.521 46.9554 48.9517 48.5793 48.1022C51.1823 46.7401 53.3575 44.7163 55.4995 42.7163L55.4965 42.7133Z" fill="#105697"/>
<path id="Vector_18" d="M61.8986 36.7344C59.7656 38.7284 57.6296 40.7194 55.4965 42.7134C53.3545 44.7134 51.1793 46.7372 48.5763 48.0993C46.9524 48.9488 45.1237 49.518 43.298 49.6015L42.8852 50.3437C41.5717 52.7132 42.2224 55.7862 44.4428 57.7861L60.4917 41.3871C61.7329 40.1203 62.1908 38.3946 61.8956 36.7314L61.8986 36.7344Z" fill="#164377"/>
</g>
<path id="Vector_19" d="M36.4409 39.4727C34.8352 37.729 33.7656 36.045 33.5186 34.8945L32.3075 36.4861C31.8525 37.0614 32.3225 38.346 33.4131 39.8691C33.8922 39.6932 34.3923 39.571 34.9045 39.5174C35.4136 39.4667 35.9288 39.4697 36.4409 39.4727Z" fill="#93F5E5"/>
<path id="Vector_20" d="M43.2407 44.6835C43.1081 44.6239 42.9696 44.5583 42.831 44.4897C42.5538 44.3497 42.2646 44.1947 41.9693 44.0218C41.6741 43.8489 41.3698 43.6582 41.0625 43.4525C40.1376 42.8355 39.1615 42.0815 38.2004 41.2141C37.5617 40.6389 36.9712 40.0547 36.4409 39.4764C35.9258 39.4735 35.4136 39.4675 34.9045 39.5212C34.3923 39.5748 33.8922 39.697 33.4131 39.8729C34.1573 40.9101 35.1907 42.0546 36.4168 43.1574C39.4446 45.8817 42.611 47.4196 43.5118 46.5761L45.0001 45.2349C44.8043 45.211 44.5904 45.1693 44.3614 45.1067C44.018 45.0113 43.6444 44.8713 43.2437 44.6894L43.2407 44.6835Z" fill="#5DC2AE"/>
<path id="Vector_21" d="M38.5288 39.3295C39.9327 39.0195 41.1077 38.0955 42.2134 37.1864C49.3144 31.3445 55.8882 24.8767 61.8413 17.8933C61.4256 17.5654 61.0128 17.2197 60.6061 16.8501C58.3797 14.8442 56.7197 12.6236 55.8098 10.7578C50.8388 13.8516 46.6571 17.628 43.5149 21.7561L33.5216 34.8944C33.7687 36.0479 34.8412 37.7289 36.444 39.4725C37.1459 39.4785 37.8479 39.4815 38.5318 39.3295H38.5288Z" fill="white"/>
<path id="Vector_22" d="M67.1859 21.0052C65.5801 20.418 63.6911 19.357 61.8383 17.8965C55.8851 24.8799 49.3114 31.3477 42.2103 37.1896C41.1047 38.0987 39.9297 39.0227 38.5258 39.3327C37.8419 39.4847 37.1429 39.4817 36.4379 39.4757C36.9712 40.054 37.5587 40.6382 38.1974 41.2134C39.1584 42.0778 40.1346 42.8348 41.0595 43.4518C41.3668 43.6575 41.6711 43.8482 41.9663 44.0211C42.2616 44.194 42.5508 44.3519 42.8279 44.489C42.9665 44.5576 43.1021 44.6232 43.2377 44.6828C43.6384 44.8646 44.015 45.0047 44.3554 45.1001C44.5844 45.1626 44.7983 45.2073 44.9941 45.2282L57.274 34.1465C61.1303 30.6652 64.5377 26.1914 67.1829 21.0022L67.1859 21.0052Z" fill="#D2D3D3"/>
<path id="Vector_23" d="M61.8383 17.894C65.6254 13.4529 69.1623 8.80029 72.4221 3.96582C66.2942 5.35476 60.6724 7.73027 55.8038 10.7585C56.7137 12.6273 58.3737 14.8478 60.6001 16.8508C61.0068 17.2174 61.4226 17.5661 61.8353 17.894H61.8383Z" fill="#93F5E5"/>
<path id="Vector_24" d="M67.1859 21.0058C69.7799 15.915 71.6418 10.1387 72.4612 3.95996C72.4612 3.95996 72.4341 3.96592 72.4221 3.9689C69.1623 8.80337 65.6253 13.453 61.8383 17.8971C63.6912 19.3575 65.5801 20.4186 67.1859 21.0058Z" fill="#5DC2AE"/>
<g id="Vector_25" style="mix-blend-mode:multiply" opacity="0.21">
<path d="M59.5276 26.0544C59.3649 24.4897 58.6448 22.9785 57.3765 21.837C54.6439 19.378 50.414 19.5747 47.9285 22.2781C46.9946 23.2944 46.4402 24.5165 46.2565 25.7802C45.9492 27.8815 46.6692 30.0901 48.3744 31.6251C51.107 34.0841 55.3369 33.8874 57.8224 31.184C59.154 29.7354 59.7144 27.8607 59.5276 26.0544Z" fill="black"/>
</g>
<g id="Group_9">
<path id="Vector_26" d="M53.8756 27.7211C56.1744 27.3694 58.2381 26.0401 59.7746 24.3084C59.6119 22.7436 58.8919 21.2324 57.6235 20.0909C54.8909 17.6319 50.6611 17.8286 48.1755 20.532C47.2416 21.5484 46.6873 22.7704 46.5035 24.0341C46.7596 24.517 47.0367 24.9879 47.3802 25.4141C48.8775 27.283 51.4956 28.0847 53.8756 27.7181V27.7211Z" fill="#93F5E5"/>
<path id="Vector_27" d="M59.7746 24.3083C58.2351 26.0371 56.1713 27.3664 53.8756 27.7211C51.4926 28.0877 48.8775 27.2859 47.3802 25.4171C47.0367 24.9909 46.7596 24.52 46.5035 24.0371C46.1962 26.1384 46.9162 28.347 48.6214 29.882C51.354 32.341 55.5839 32.1442 58.0694 29.4409C59.401 27.9923 59.9614 26.1175 59.7746 24.3113V24.3083Z" fill="#5DC2AE"/>
</g>
<g id="Group_10">
<path id="Vector_28" d="M57.4879 22.1615L48.772 22.1377C48.5732 22.4358 48.4075 22.7487 48.278 23.0706L57.976 23.0974C57.8464 22.7726 57.6837 22.4596 57.4879 22.1615Z" fill="white"/>
<path id="Vector_29" d="M57.976 23.0981L48.278 23.0713C48.1003 23.5094 47.9858 23.9684 47.9376 24.4304L58.3104 24.4602C58.2622 23.9953 58.1507 23.5363 57.976 23.0981Z" fill="#182B3A"/>
<path id="Vector_30" d="M56.6323 21.1694C54.5023 19.2529 51.2034 19.4049 49.2662 21.5122C49.0854 21.7089 48.9197 21.9175 48.7751 22.1351L57.4909 22.1589C57.2559 21.8013 56.9697 21.4675 56.6353 21.1664L56.6323 21.1694Z" fill="#182B3A"/>
<path id="Vector_31" d="M56.0358 29.265L50.1851 29.2471C51.9565 30.4453 54.2854 30.4333 56.0358 29.265Z" fill="white"/>
<path id="Vector_32" d="M56.9818 28.46C57.3765 28.0308 57.6807 27.5539 57.9037 27.0532L48.3322 27.0264C48.6184 27.6851 49.0432 28.2931 49.6126 28.8058C49.7964 28.9697 49.9862 29.1187 50.1851 29.2528L56.0358 29.2707C56.3732 29.0442 56.6926 28.776 56.9788 28.463L56.9818 28.46Z" fill="#182B3A"/>
<path id="Vector_33" d="M58.3104 24.4595L47.9375 24.4297C47.8411 25.309 47.9737 26.2031 48.3292 27.0228L57.9007 27.0496C58.2652 26.227 58.3978 25.3328 58.3074 24.4595H58.3104Z" fill="white"/>
</g>
</g>
<path id="Vector_34" d="M107.831 54.021C107.831 55.2371 106.834 56.2207 105.604 56.2177C104.375 56.2177 103.381 55.2311 103.384 54.015C103.384 52.799 104.381 51.8154 105.61 51.8184C106.84 51.8184 107.834 52.8049 107.831 54.021Z" fill="#73A6E6"/>
<path id="Vector_35" d="M82.1683 52.6617C82.1683 53.0581 81.8429 53.38 81.4423 53.377C81.0416 53.377 80.7162 53.0551 80.7192 52.6587C80.7222 52.2623 81.0446 51.9404 81.4453 51.9434C81.846 51.9434 82.1713 52.2653 82.1683 52.6617Z" fill="#73A6E6"/>
<path id="Vector_36" d="M20.9585 18.6661C20.9585 19.3009 20.4373 19.8136 19.7986 19.8136C19.1599 19.8136 18.6387 19.298 18.6387 18.6661C18.6387 18.0312 19.1599 17.5186 19.7986 17.5186C20.4403 17.5186 20.9585 18.0342 20.9585 18.6661Z" fill="#73A6E6"/>
<path id="Vector_37" d="M10.5977 3.44793C10.5977 4.4494 9.77526 5.26011 8.766 5.25713C7.75372 5.25713 6.93425 4.44344 6.93726 3.44495C6.93726 2.44348 7.75974 1.63277 8.76901 1.63575C9.77827 1.63873 10.6008 2.44944 10.5977 3.44793Z" fill="#73A6E6"/>
<path id="Vector_38" d="M69.4395 55.9408C69.4756 57.4162 68.2976 58.6412 66.8063 58.6799C65.315 58.7157 64.0768 57.5503 64.0376 56.0749C64.0015 54.5995 65.1794 53.3745 66.6708 53.3358C68.1621 53.3 69.4003 54.4654 69.4395 55.9408Z" fill="#5D8DCF"/>
<path id="Vector_39" d="M115.149 71.5144C115.116 70.188 116.176 69.0882 117.514 69.0554C118.854 69.0226 119.966 70.0718 119.999 71.3952C120.032 72.7215 118.972 73.8214 117.634 73.8541C116.294 73.8869 115.182 72.8378 115.149 71.5144Z" fill="#5D8DCF"/>
<path id="Vector_40" d="M26.4748 47.9793C26.4929 48.6708 25.9385 49.246 25.2396 49.2639C24.5406 49.2818 23.9592 48.7334 23.9411 48.0419C23.923 47.3504 24.4774 46.7751 25.1763 46.7573C25.8753 46.7394 26.4567 47.2878 26.4748 47.9793Z" fill="#5D8DCF"/>
<path id="Vector_41" d="M44.2591 54.7005C44.2681 55.0909 43.9548 55.4158 43.5601 55.4277C43.1655 55.4367 42.8371 55.1267 42.825 54.7362C42.816 54.3458 43.1293 54.0209 43.524 54.009C43.9186 54 44.247 54.31 44.2591 54.7005Z" fill="#5D8DCF"/>
<path id="Vector_42" d="M24.9745 41.5979C24.9836 41.9884 24.6703 42.3133 24.2756 42.3252C23.8809 42.3341 23.5525 42.0241 23.5405 41.6337C23.5314 41.2432 23.8448 40.9184 24.2394 40.9064C24.6341 40.8975 24.9625 41.2075 24.9745 41.5979Z" fill="#5D8DCF"/>
<path id="Vector_43" d="M9.59144 15.8253C9.61855 16.9102 8.75089 17.8103 7.65726 17.8371C6.56063 17.864 5.65078 17.0056 5.62367 15.9236C5.59655 14.8387 6.46422 13.9386 7.55784 13.9117C8.65448 13.8849 9.56433 14.7433 9.59144 15.8253Z" fill="#27528C"/>
<path id="Vector_44" d="M11.8782 34.5403C11.8902 34.9933 11.5287 35.3659 11.0707 35.3778C10.6128 35.3897 10.2362 35.0321 10.2242 34.579C10.2121 34.126 10.5736 33.7534 11.0316 33.7415C11.4895 33.7296 11.8661 34.0872 11.8782 34.5403Z" fill="#27528C"/>
<path id="Vector_45" d="M80.5836 67.0167C80.6107 68.1016 79.743 69.0017 78.6494 69.0285C77.5528 69.0554 76.6429 68.197 76.6158 67.115C76.5887 66.0331 77.4563 65.13 78.55 65.1032C79.6466 65.0763 80.5565 65.9347 80.5836 67.0167Z" fill="#27528C"/>
<path id="Vector_46" d="M92.6165 60.8294C92.6255 61.2198 92.3122 61.5447 91.9176 61.5566C91.5229 61.5656 91.1945 61.2556 91.1824 60.8651C91.1734 60.4747 91.4867 60.1498 91.8814 60.1379C92.2761 60.1289 92.6045 60.4389 92.6165 60.8294Z" fill="#27528C"/>
<path id="Vector_47" d="M101.317 66.9443C101.329 67.4868 100.899 67.9368 100.35 67.9488C99.8019 67.9607 99.347 67.5345 99.3349 66.992C99.3229 66.4495 99.7537 65.9995 100.302 65.9875C100.85 65.9756 101.305 66.4018 101.317 66.9443Z" fill="#27528C"/>
<path id="Vector_48" d="M20.0185 53.4369C19.9824 51.9317 18.717 50.7395 17.1956 50.7783C15.6742 50.814 14.4691 52.0659 14.5083 53.571C14.5474 55.0762 15.8098 56.2685 17.3312 56.2297C18.8526 56.1939 20.0577 54.9421 20.0185 53.4369Z" fill="#27528C"/>
<path id="Vector_49" d="M29.5418 63.7889C29.5569 64.4505 29.0297 65.0019 28.3578 65.0169C27.686 65.0318 27.1317 64.5102 27.1166 63.8455C27.1015 63.1808 27.6288 62.6324 28.3006 62.6175C28.9724 62.6026 29.5268 63.1242 29.5418 63.7889Z" fill="#27528C"/>
<path id="Vector_50" d="M36.5103 62.4211C36.4982 61.9084 36.0674 61.5031 35.5492 61.518C35.031 61.5299 34.6213 61.9561 34.6363 62.4688C34.6484 62.9814 35.0792 63.3868 35.5974 63.3719C36.1156 63.36 36.5253 62.9337 36.5103 62.4211Z" fill="#27528C"/>
</g>
</g>
</g>
<defs>
<linearGradient id="paint0_linear_6894_5188" x1="49.5253" y1="61.8039" x2="66.7523" y2="-14.1915" gradientUnits="userSpaceOnUse">
<stop stop-color="#0D2136"/>
<stop offset="1" stop-color="#406EAE"/>
</linearGradient>
<linearGradient id="paint1_linear_6894_5188" x1="63.1097" y1="55.9441" x2="85.8166" y2="-36.0492" gradientUnits="userSpaceOnUse">
<stop stop-color="#0D2136"/>
<stop offset="1" stop-color="#406EAE"/>
</linearGradient>
</defs>
</svg>
