<svg width="46" height="29" viewBox="0 0 46 29" fill="none" xmlns="http://www.w3.org/2000/svg">
<path d="M1.60763 2.36202C1.60763 2.86343 1.29942 3.23435 0.7707 3.23435C0.330406 3.23435 0 2.86343 0 2.36202C0 1.88187 0.352235 1.48932 0.814729 1.48932C1.29942 1.48932 1.60763 1.88187 1.60763 2.36202ZM0.388865 28.5815V8.52517H1.21876V28.5815H0.388865ZM28.8219 14.2914C28.8219 24.4031 23.1554 28.9997 16.9528 28.9997C10.6166 28.9997 5.48555 24.0278 5.48555 14.7096C5.48555 5.14176 10.7953 0.0019532 17.399 0.0019532C23.8687 0.00122015 28.8219 5.05709 28.8219 14.2914ZM6.32655 14.5003C6.32655 22.1673 10.0776 28.1234 16.992 28.1234C23.9546 28.1234 27.9479 21.984 27.9479 14.4131C27.9479 7.39224 24.7482 0.984978 17.4467 0.984978C10.1453 0.984978 6.32655 7.01764 6.32655 14.5003ZM31.8677 26.4084C33.26 27.3276 35.6631 28.2154 37.7299 28.2154C41.6526 28.2154 45.1412 25.4968 45.1412 21.4955C45.1412 17.7822 42.8173 15.8447 38.8717 14.1803C35.3404 12.6907 32.1655 11.074 32.1655 7.10451C32.1655 2.96826 35.4551 0.0426377 39.9262 0.0426377C42.3304 0.0426377 44.1441 0.711183 44.9877 1.29616L44.6525 2.01748C43.9354 1.51644 41.9974 0.877952 39.8892 0.877952C35.164 0.877952 33.1057 4.41494 33.1057 7.01874C33.1057 10.6151 35.9199 11.8177 39.5473 13.5308C43.7649 15.5779 46 17.383 46 21.3111C46 25.5313 42.9635 28.9568 37.5645 28.9568C35.3286 28.9568 32.756 28.2051 31.4906 27.2437L31.8677 26.4084Z" fill="#00ACEC"/>
</svg>
