<svg width="328" height="294" viewBox="0 0 328 294" fill="none" xmlns="http://www.w3.org/2000/svg">
<path opacity="0.5" d="M196.68 265.577L79.85 195.391C76.5774 193.432 76.9865 189.94 80.7499 187.64L160.273 139.855C164.118 137.556 169.845 137.3 173.199 139.259L290.029 209.53C293.301 211.489 292.892 214.982 289.129 217.281L209.606 265.066C205.679 267.365 199.952 267.621 196.68 265.577Z" fill="#173D7A"/>
<path d="M322.754 73.843L201.179 0.761157C199.788 -0.0906122 198.315 -0.175789 197.088 0.250096L196.843 0.335273C196.843 0.335273 196.843 0.335273 196.761 0.335273L192.343 2.12399L196.27 4.16824C196.27 4.25341 196.27 4.33859 196.188 4.42377L176.389 98.2036C175.408 102.888 177.371 108.34 180.807 110.469L299.437 181.762L299.028 186.958L303.855 184.999C305.491 184.232 306.718 182.444 307.291 179.888L327.09 86.1085C328.154 81.3385 326.19 75.8872 322.754 73.843Z" fill="#173D7A"/>
<path d="M322.754 73.843L201.179 0.761157C199.788 -0.0906122 198.315 -0.175789 197.088 0.250096L196.843 0.335273C196.843 0.335273 196.843 0.335273 196.761 0.335273L192.343 2.12399L196.27 4.16824C196.27 4.25341 196.27 4.33859 196.188 4.42377L183.262 66.1771L242.74 114.387L326.599 78.8684C325.781 76.739 324.39 74.8651 322.754 73.843Z" fill="#396CAA"/>
<path d="M318.173 88.2379L327.418 84.1494C327.581 80.4016 326.109 76.5687 323.654 74.5244L309.01 80.9127L318.173 88.2379Z" fill="#274F89"/>
<path d="M294.856 186.447L173.281 113.365C169.845 111.321 167.881 105.784 168.863 101.1L188.744 7.31994C189.726 2.63521 193.325 0.505783 196.761 2.55003L318.255 75.6319C321.691 77.6761 323.654 83.2126 322.673 87.8973L302.874 181.677C301.892 186.362 298.292 188.491 294.856 186.447Z" fill="#D4ECFF"/>
<path d="M319.481 75.1209L197.906 2.12423C196.27 1.10211 194.552 1.10211 193.161 1.8687C194.307 1.61317 195.534 1.78353 196.761 2.55012L318.254 75.6319C321.69 77.6762 323.654 83.2127 322.672 87.8974L302.873 181.677C302.382 184.062 301.155 185.851 299.601 186.617C301.646 186.192 303.364 184.233 304.018 181.166L323.817 87.3864C324.881 82.7016 322.917 77.2503 319.481 75.1209Z" fill="white"/>
<path d="M292.238 179.462L177.944 110.809C174.835 108.936 172.953 103.91 173.853 99.566L191.934 13.7077C192.834 9.44883 196.107 7.48976 199.297 9.36366L313.591 78.0163C316.7 79.8902 318.582 84.9156 317.682 89.2596L299.601 175.118C298.701 179.377 295.428 181.336 292.238 179.462Z" fill="white"/>
<path d="M292.238 179.462L177.944 110.809C174.835 108.936 172.953 103.91 173.853 99.566L191.934 13.7077C192.834 9.44883 196.107 7.48976 199.297 9.36366L313.591 78.0163C316.7 79.8902 318.582 84.9156 317.682 89.2596L299.601 175.118C298.701 179.377 295.428 181.336 292.238 179.462Z" fill="#173D7A"/>
<path d="M293.219 179.036L178.926 110.384C175.817 108.51 173.935 103.484 174.835 99.1403L192.916 13.282C193.407 11.0674 194.471 9.53417 195.78 8.76758C193.98 9.27864 192.507 10.9822 191.934 13.7078L173.854 99.5662C172.954 103.825 174.753 108.85 177.944 110.81L292.238 179.462C293.792 180.399 295.347 180.399 296.656 179.633C295.592 179.888 294.447 179.718 293.219 179.036Z" fill="#5793CE"/>
<path d="M296.574 189.598L279.966 187.299L172.708 122.82C169.272 120.775 163.3 121.031 159.291 123.416L83.286 169.071L73.2229 167.708V173.67C73.1411 175.033 73.8774 176.396 75.5137 177.333L197.089 250.415C200.525 252.459 206.497 252.203 210.506 249.818L293.301 200.075C295.51 198.712 296.656 197.009 296.574 195.39V189.598Z" fill="#173D7A"/>
<path d="M215.988 148.884L208.379 144.284H124.602L83.286 169.071L73.2229 167.708V173.67C73.1411 175.033 73.8774 176.396 75.5137 177.333L197.089 250.415C198.889 251.522 201.425 251.948 204.043 251.777L215.988 148.884Z" fill="#396CAA"/>
<path d="M77.7219 168.304L73.304 167.708V173.67C73.2222 175.033 73.9585 176.396 75.5948 177.333L77.7219 178.611V168.304Z" fill="#5793CE"/>
<path d="M198.315 250.926C201.588 252.204 206.251 251.948 209.688 250.159V236.957H198.315V250.926Z" fill="#274F89"/>
<path d="M197.088 244.453L75.5949 171.371C72.1587 169.327 72.5678 165.664 76.5766 163.279L159.372 113.536C163.381 111.151 169.353 110.895 172.789 112.94L294.364 186.022C297.8 188.066 297.391 191.728 293.382 194.113L210.587 243.857C206.578 246.242 200.524 246.497 197.088 244.453Z" fill="#D4ECFF"/>
<path d="M293.301 191.984L210.506 241.727C206.497 244.112 200.524 244.368 197.088 242.323L75.5952 169.242C74.4498 168.56 73.7953 167.708 73.4681 166.771C72.8954 168.475 73.6317 170.179 75.5952 171.371L197.088 244.453C200.524 246.497 206.497 246.242 210.506 243.857L293.301 194.113C296.001 192.495 297.064 190.365 296.41 188.492C296.001 189.769 294.937 190.962 293.301 191.984Z" fill="white"/>
<path d="M127.302 147.181L121.82 143.859C121.411 143.603 121.411 143.092 121.984 142.837L128.447 138.919C128.938 138.578 129.756 138.578 130.165 138.834L135.647 142.155C136.056 142.411 136.056 142.922 135.483 143.178L129.02 147.096C128.447 147.436 127.711 147.436 127.302 147.181Z" fill="#5793CE"/>
<path d="M135.728 152.291L130.247 148.969C129.838 148.714 129.838 148.203 130.411 147.947L136.874 144.029C137.365 143.688 138.183 143.688 138.592 143.944L144.073 147.266C144.482 147.521 144.482 148.032 143.91 148.288L137.447 152.206C136.956 152.547 136.219 152.547 135.728 152.291Z" fill="#5793CE"/>
<path d="M144.237 157.402L138.756 154.08C138.347 153.824 138.347 153.313 138.919 153.058L145.383 149.139C145.873 148.799 146.692 148.799 147.101 149.054L152.582 152.376C152.991 152.632 152.991 153.143 152.419 153.398L145.955 157.316C145.464 157.657 144.728 157.657 144.237 157.402Z" fill="#5793CE"/>
<path d="M156.018 153.228L150.537 149.906C150.128 149.651 150.128 149.139 150.701 148.884L156.182 145.647C156.673 145.307 157.491 145.306 157.9 145.562L163.382 148.884C163.791 149.139 163.791 149.651 163.218 149.906L157.737 153.143C157.246 153.398 156.428 153.483 156.018 153.228Z" fill="#5793CE"/>
<path d="M164.527 158.338L159.046 155.016C158.637 154.761 158.637 154.25 159.209 153.994L164.691 150.758C165.182 150.417 166 150.417 166.409 150.672L171.89 153.994C172.3 154.25 172.3 154.761 171.727 155.016L166.245 158.253C165.673 158.509 164.936 158.594 164.527 158.338Z" fill="#5793CE"/>
<path d="M172.954 163.45L167.473 160.128C167.063 159.872 167.063 159.361 167.636 159.106L173.118 155.869C173.609 155.528 174.427 155.528 174.836 155.784L180.317 159.106C180.726 159.361 180.726 159.872 180.154 160.128L174.672 163.364C174.181 163.62 173.445 163.705 172.954 163.45Z" fill="#5793CE"/>
<path d="M181.462 168.475L175.98 165.153C175.571 164.898 175.571 164.387 176.144 164.131L181.625 160.894C182.116 160.554 182.934 160.554 183.344 160.809L188.825 164.131C189.234 164.387 189.234 164.898 188.661 165.153L183.18 168.39C182.689 168.731 181.953 168.816 181.462 168.475Z" fill="#5793CE"/>
<path d="M189.971 173.585L184.489 170.263C184.08 170.008 184.08 169.497 184.653 169.241L190.134 166.005C190.625 165.664 191.443 165.664 191.852 165.919L197.334 169.241C197.743 169.497 197.743 170.008 197.17 170.263L191.689 173.5C191.198 173.841 190.38 173.841 189.971 173.585Z" fill="#5793CE"/>
<path d="M198.479 178.696L192.998 175.374C192.589 175.118 192.589 174.607 193.162 174.352L198.643 171.115C199.134 170.774 199.952 170.774 200.361 171.03L205.843 174.352C206.252 174.607 206.252 175.118 205.679 175.374L200.197 178.611C199.707 178.951 198.888 178.951 198.479 178.696Z" fill="#5793CE"/>
<path d="M206.988 183.806L201.507 180.484C201.098 180.229 201.098 179.718 201.67 179.462L207.152 176.225C207.643 175.885 208.461 175.885 208.87 176.14L214.351 179.462C214.76 179.718 214.76 180.229 214.188 180.484L208.706 183.721C208.134 184.062 207.397 184.062 206.988 183.806Z" fill="#5793CE"/>
<path d="M215.415 188.917L209.933 185.596C209.524 185.34 209.524 184.829 210.097 184.573L215.579 181.337C216.069 180.996 216.888 180.996 217.297 181.251L222.778 184.573C223.187 184.829 223.187 185.34 222.615 185.596L217.133 188.832C216.642 189.173 215.906 189.173 215.415 188.917Z" fill="#5793CE"/>
<path d="M223.924 194.028L218.442 190.706C218.033 190.45 218.033 189.939 218.606 189.684L224.087 186.447C224.578 186.106 225.396 186.106 225.805 186.362L231.287 189.684C231.696 189.939 231.696 190.45 231.123 190.706L225.642 193.943C225.151 194.283 224.415 194.283 223.924 194.028Z" fill="#5793CE"/>
<path d="M232.433 199.138L226.951 195.816C226.542 195.561 226.542 195.05 227.115 194.794L232.596 191.557C233.087 191.217 233.905 191.217 234.314 191.472L239.796 194.794C240.205 195.05 240.205 195.561 239.632 195.816L234.151 199.053C233.66 199.394 232.842 199.394 232.433 199.138Z" fill="#5793CE"/>
<path d="M168.536 150.758L163.055 147.436C162.645 147.181 162.645 146.67 163.218 146.414L168.7 143.177C169.191 142.837 170.009 142.837 170.418 143.092L175.899 146.414C176.308 146.67 176.308 147.181 175.736 147.436L170.254 150.673C169.763 151.014 168.945 151.014 168.536 150.758Z" fill="#5793CE"/>
<path d="M159.863 145.562L154.382 142.24C153.973 141.985 153.973 141.473 154.545 141.218L160.027 137.981C160.518 137.64 161.336 137.64 161.745 137.896L167.226 141.218C167.635 141.473 167.635 141.985 167.063 142.24L161.581 145.477C161.09 145.817 160.354 145.903 159.863 145.562Z" fill="#5793CE"/>
<path d="M151.273 140.452L139.41 133.297C139.001 133.041 139.001 132.53 139.574 132.275L145.055 129.038C145.546 128.697 146.364 128.697 146.773 128.953L158.636 136.108C159.045 136.363 159.045 136.874 158.473 137.13L152.991 140.366C152.5 140.622 151.682 140.707 151.273 140.452Z" fill="#5793CE"/>
<path d="M157.327 134.063L147.755 128.271C147.346 128.016 147.346 127.505 147.918 127.249L153.4 124.012C153.891 123.672 154.709 123.672 155.118 123.927L164.69 129.719C165.099 129.975 165.099 130.486 164.527 130.741L159.045 133.978C158.472 134.319 157.736 134.404 157.327 134.063Z" fill="#5793CE"/>
<path d="M177.045 155.869L171.563 152.547C171.154 152.291 171.154 151.78 171.727 151.525L177.208 148.288C177.699 147.947 178.517 147.947 178.927 148.203L184.408 151.525C184.817 151.78 184.817 152.291 184.244 152.547L178.763 155.783C178.19 156.124 177.454 156.124 177.045 155.869Z" fill="#5793CE"/>
<path d="M185.472 160.979L179.99 157.657C179.581 157.402 179.581 156.89 180.154 156.635L185.635 153.398C186.126 153.057 186.944 153.057 187.353 153.313L192.835 156.635C193.244 156.89 193.244 157.402 192.671 157.657L187.19 160.894C186.699 161.234 185.962 161.234 185.472 160.979Z" fill="#5793CE"/>
<path d="M193.979 166.089L188.498 162.767C188.089 162.512 188.089 162.001 188.662 161.745L194.143 158.509C194.634 158.168 195.452 158.168 195.861 158.423L201.343 161.745C201.752 162.001 201.752 162.512 201.179 162.767L195.697 166.004C195.207 166.345 194.47 166.345 193.979 166.089Z" fill="#5793CE"/>
<path d="M202.488 171.201L197.007 167.879C196.598 167.623 196.598 167.112 197.17 166.857L202.652 163.62C203.143 163.279 203.961 163.279 204.37 163.535L209.851 166.857C210.26 167.112 210.26 167.623 209.688 167.879L204.206 171.115C203.715 171.456 202.897 171.456 202.488 171.201Z" fill="#5793CE"/>
<path d="M210.997 176.311L205.515 172.989C205.106 172.734 205.106 172.222 205.679 171.967L211.161 168.73C211.652 168.39 212.47 168.39 212.879 168.645L218.36 171.967C218.769 172.222 218.769 172.734 218.197 172.989L212.715 176.226C212.224 176.566 211.406 176.566 210.997 176.311Z" fill="#5793CE"/>
<path d="M219.506 181.421L214.024 178.099C213.615 177.844 213.615 177.333 214.188 177.077L219.669 173.841C220.16 173.5 220.978 173.5 221.387 173.755L226.869 177.077C227.278 177.333 227.278 177.844 226.705 178.099L221.224 181.336C220.651 181.677 219.915 181.677 219.506 181.421Z" fill="#5793CE"/>
<path d="M227.933 186.533L222.451 183.211C222.042 182.955 222.042 182.444 222.615 182.189L228.096 178.952C228.587 178.611 229.405 178.611 229.814 178.867L235.296 182.189C235.705 182.444 235.705 182.955 235.132 183.211L229.651 186.447C229.16 186.788 228.423 186.788 227.933 186.533Z" fill="#5793CE"/>
<path d="M236.441 191.643L230.96 188.321C230.551 188.066 230.551 187.554 231.123 187.299L236.605 184.062C237.096 183.722 237.914 183.722 238.323 183.977L243.805 187.299C244.214 187.554 244.214 188.066 243.641 188.321L238.159 191.558C237.669 191.813 236.932 191.899 236.441 191.643Z" fill="#5793CE"/>
<path d="M244.95 196.753L239.469 193.431C239.06 193.176 239.06 192.665 239.632 192.409L245.114 189.173C245.605 188.832 246.423 188.832 246.832 189.087L252.313 192.409C252.722 192.665 252.722 193.176 252.15 193.431L246.668 196.668C246.177 196.924 245.359 197.009 244.95 196.753Z" fill="#5793CE"/>
<path d="M260.003 205.782L247.976 198.542C247.567 198.286 247.567 197.775 248.14 197.52L253.622 194.283C254.112 193.942 254.931 193.942 255.34 194.198L267.366 201.438C267.775 201.693 267.775 202.204 267.203 202.46L261.721 205.697C261.23 206.037 260.494 206.037 260.003 205.782Z" fill="#5793CE"/>
<path d="M276.612 195.902L266.467 189.854C266.058 189.599 266.058 189.088 266.63 188.832L272.112 185.595C272.603 185.255 273.421 185.255 273.83 185.51L283.975 191.558C284.384 191.813 284.384 192.324 283.811 192.58L278.33 195.817C277.757 196.072 277.021 196.157 276.612 195.902Z" fill="#5793CE"/>
<path d="M191.852 154.846L186.371 151.524C185.962 151.269 185.962 150.758 186.535 150.502L192.016 147.265C192.507 146.925 193.325 146.925 193.734 147.18L199.216 150.502C199.625 150.758 199.625 151.269 199.052 151.524L193.571 154.761C193.08 155.102 192.343 155.187 191.852 154.846Z" fill="#5793CE"/>
<path d="M183.181 149.651L177.699 146.329C177.29 146.073 177.29 145.562 177.863 145.307L183.344 142.07C183.835 141.729 184.653 141.729 185.062 141.985L190.544 145.307C190.953 145.562 190.953 146.073 190.38 146.329L184.899 149.566C184.408 149.906 183.59 149.906 183.181 149.651Z" fill="#5793CE"/>
<path d="M174.508 144.455L169.026 141.133C168.617 140.877 168.617 140.366 169.19 140.11L174.671 136.874C175.162 136.533 175.98 136.533 176.389 136.789L181.871 140.11C182.28 140.366 182.28 140.877 181.707 141.133L176.226 144.369C175.653 144.625 174.917 144.71 174.508 144.455Z" fill="#5793CE"/>
<path d="M165.754 139.174L160.272 135.852C159.863 135.597 159.863 135.086 160.436 134.83L165.917 131.593C166.408 131.253 167.226 131.253 167.636 131.508L173.117 134.83C173.526 135.086 173.526 135.597 172.953 135.852L167.472 139.089C166.981 139.43 166.245 139.43 165.754 139.174Z" fill="#5793CE"/>
<path d="M200.361 159.957L194.88 156.636C194.471 156.38 194.471 155.869 195.043 155.613L200.525 152.377C201.016 152.036 201.834 152.036 202.243 152.292L207.724 155.613C208.134 155.869 208.134 156.38 207.561 156.636L202.079 159.872C201.588 160.213 200.852 160.298 200.361 159.957Z" fill="#5793CE"/>
<path d="M208.87 165.068L203.389 161.746C202.979 161.49 202.979 160.979 203.552 160.724L209.034 157.487C209.525 157.146 210.343 157.146 210.752 157.402L216.233 160.724C216.642 160.979 216.642 161.49 216.07 161.746L210.588 164.983C210.097 165.323 209.279 165.323 208.87 165.068Z" fill="#5793CE"/>
<path d="M217.379 170.178L211.897 166.856C211.488 166.601 211.488 166.09 212.061 165.834L217.542 162.597C218.033 162.257 218.851 162.257 219.261 162.512L224.742 165.834C225.151 166.09 225.151 166.601 224.578 166.856L219.097 170.093C218.606 170.434 217.788 170.434 217.379 170.178Z" fill="#5793CE"/>
<path d="M225.887 175.289L220.405 171.967C219.996 171.711 219.996 171.2 220.569 170.944L226.05 167.708C226.541 167.367 227.359 167.367 227.768 167.623L233.25 170.944C233.659 171.2 233.659 171.711 233.086 171.967L227.605 175.203C227.032 175.544 226.296 175.544 225.887 175.289Z" fill="#5793CE"/>
<path d="M234.314 180.4L228.833 177.078C228.424 176.822 228.424 176.311 228.996 176.056L234.478 172.819C234.969 172.478 235.787 172.478 236.196 172.734L241.678 176.056C242.087 176.311 242.087 176.822 241.514 177.078L236.032 180.315C235.542 180.655 234.805 180.655 234.314 180.4Z" fill="#5793CE"/>
<path d="M242.822 185.51L237.341 182.188C236.932 181.933 236.932 181.422 237.504 181.166L242.986 177.929C243.477 177.589 244.295 177.589 244.704 177.844L250.185 181.166C250.594 181.422 250.594 181.933 250.022 182.188L244.54 185.425C244.049 185.766 243.313 185.766 242.822 185.51Z" fill="#5793CE"/>
<path d="M251.331 190.621L245.849 187.299C245.44 187.043 245.44 186.532 246.013 186.277L251.495 183.04C251.985 182.699 252.804 182.699 253.213 182.955L258.694 186.277C259.103 186.532 259.103 187.043 258.531 187.299L253.049 190.535C252.558 190.876 251.74 190.876 251.331 190.621Z" fill="#5793CE"/>
<path d="M259.84 195.731L254.358 192.409C253.949 192.153 253.949 191.642 254.522 191.387L260.003 188.15C260.494 187.809 261.312 187.809 261.721 188.065L267.203 191.387C267.612 191.642 267.612 192.153 267.039 192.409L261.558 195.646C261.067 195.986 260.249 195.986 259.84 195.731Z" fill="#5793CE"/>
<path d="M268.349 200.842L262.867 197.52C262.458 197.265 262.458 196.754 263.031 196.498L268.512 193.261C269.003 192.921 269.821 192.921 270.23 193.176L275.712 196.498C276.121 196.754 276.121 197.265 275.548 197.52L270.067 200.757C269.494 201.098 268.758 201.098 268.349 200.842Z" fill="#5793CE"/>
<path d="M187.434 142.241L181.953 138.919C181.544 138.663 181.544 138.152 182.117 137.897L187.598 134.66C188.089 134.319 188.907 134.319 189.316 134.575L194.798 137.897C195.207 138.152 195.207 138.663 194.634 138.919L189.153 142.155C188.58 142.496 187.844 142.496 187.434 142.241Z" fill="#5793CE"/>
<path d="M178.926 137.215L173.444 133.893C173.035 133.638 173.035 133.127 173.608 132.871L179.089 129.635C179.58 129.294 180.398 129.294 180.807 129.549L186.289 132.871C186.698 133.127 186.698 133.638 186.125 133.893L180.644 137.13C180.153 137.386 179.417 137.471 178.926 137.215Z" fill="#5793CE"/>
<path d="M170.499 132.104L165.017 128.782C164.608 128.526 164.608 128.015 165.181 127.76L170.663 124.523C171.153 124.182 171.972 124.182 172.381 124.438L177.862 127.76C178.271 128.015 178.271 128.526 177.699 128.782L172.217 132.019C171.726 132.359 170.908 132.359 170.499 132.104Z" fill="#5793CE"/>
<path d="M162.072 126.994L156.591 123.672C156.182 123.416 156.182 122.905 156.754 122.65L162.236 119.413C162.727 119.072 163.545 119.072 163.954 119.328L169.435 122.65C169.844 122.905 169.844 123.416 169.272 123.672L163.79 126.908C163.299 127.249 162.481 127.249 162.072 126.994Z" fill="#5793CE"/>
<path d="M170.745 121.798L165.264 118.476C164.854 118.22 164.854 117.709 165.427 117.454L167.227 116.346C167.718 116.006 168.536 116.006 168.945 116.261L174.427 119.583C174.836 119.839 174.836 120.35 174.263 120.605L172.463 121.713C171.972 122.053 171.154 122.053 170.745 121.798Z" fill="#5793CE"/>
<path d="M181.79 128.441L176.308 125.119C175.899 124.864 175.899 124.353 176.472 124.097L178.272 122.99C178.763 122.649 179.581 122.649 179.99 122.905L185.472 126.227C185.881 126.482 185.881 126.993 185.308 127.249L183.508 128.356C183.017 128.697 182.199 128.697 181.79 128.441Z" fill="#5793CE"/>
<path d="M190.217 133.467L184.735 130.145C184.326 129.889 184.326 129.378 184.899 129.123L186.699 128.015C187.19 127.675 188.008 127.675 188.417 127.93L193.898 131.252C194.307 131.508 194.307 132.019 193.735 132.274L191.935 133.382C191.362 133.722 190.626 133.722 190.217 133.467Z" fill="#5793CE"/>
<path d="M198.643 138.578L193.162 135.256C192.753 135.001 192.753 134.49 193.326 134.234L195.125 133.127C195.616 132.786 196.435 132.786 196.844 133.042L202.325 136.363C202.734 136.619 202.734 137.13 202.161 137.386L200.362 138.493C199.789 138.748 199.053 138.834 198.643 138.578Z" fill="#5793CE"/>
<path d="M206.988 143.603L201.507 140.282C201.098 140.026 201.098 139.515 201.67 139.259L203.47 138.152C203.961 137.811 204.779 137.811 205.188 138.067L210.67 141.389C211.079 141.644 211.079 142.155 210.506 142.411L208.706 143.518C208.215 143.859 207.479 143.859 206.988 143.603Z" fill="#5793CE"/>
<path d="M254.031 171.882L248.55 168.56C248.141 168.304 248.141 167.793 248.713 167.538L250.513 166.43C251.004 166.09 251.822 166.09 252.231 166.345L257.713 169.667C258.122 169.923 258.122 170.434 257.549 170.689L255.749 171.797C255.177 172.052 254.44 172.137 254.031 171.882Z" fill="#5793CE"/>
<path d="M262.376 176.907L256.894 173.585C256.485 173.33 256.485 172.819 257.058 172.563L258.858 171.456C259.349 171.115 260.167 171.115 260.576 171.371L266.058 174.693C266.467 174.948 266.467 175.459 265.894 175.715L264.094 176.822C263.603 177.163 262.867 177.163 262.376 176.907Z" fill="#5793CE"/>
<path d="M270.803 181.933L265.321 178.611C264.912 178.355 264.912 177.844 265.485 177.588L267.285 176.481C267.776 176.14 268.594 176.14 269.003 176.396L274.484 179.718C274.893 179.973 274.893 180.485 274.321 180.74L272.521 181.847C272.03 182.188 271.294 182.188 270.803 181.933Z" fill="#5793CE"/>
<path d="M279.229 187.043L273.748 183.721C273.339 183.465 273.339 182.954 273.912 182.699L275.711 181.592C276.202 181.251 277.02 181.251 277.43 181.506L282.911 184.828C283.32 185.084 283.32 185.595 282.747 185.85L280.947 186.958C280.457 187.213 279.72 187.298 279.229 187.043Z" fill="#5793CE"/>
<path d="M195.861 147.351L190.38 144.029C189.971 143.774 189.971 143.262 190.543 143.007L196.025 139.77C196.516 139.43 197.334 139.43 197.743 139.685L203.224 143.007C203.634 143.262 203.634 143.774 203.061 144.029L197.579 147.266C197.088 147.607 196.352 147.607 195.861 147.351Z" fill="#5793CE"/>
<path d="M204.37 152.461L198.889 149.139C198.479 148.884 198.479 148.373 199.052 148.117L204.534 144.881C205.025 144.54 205.843 144.54 206.252 144.795L211.733 148.117C212.142 148.373 212.142 148.884 211.57 149.139L206.088 152.376C205.597 152.717 204.861 152.717 204.37 152.461Z" fill="#5793CE"/>
<path d="M212.879 157.572L207.397 154.25C206.988 153.994 206.988 153.483 207.561 153.228L213.042 149.991C213.533 149.65 214.351 149.65 214.761 149.906L220.242 153.228C220.651 153.483 220.651 153.994 220.078 154.25L214.597 157.487C214.106 157.827 213.288 157.827 212.879 157.572Z" fill="#5793CE"/>
<path d="M221.388 162.683L215.906 159.361C215.497 159.106 215.497 158.595 216.07 158.339L221.551 155.102C222.042 154.762 222.86 154.762 223.269 155.017L228.751 158.339C229.16 158.595 229.16 159.106 228.587 159.361L223.106 162.598C222.615 162.939 221.797 162.939 221.388 162.683Z" fill="#5793CE"/>
<path d="M229.895 167.793L224.414 164.471C224.005 164.216 224.005 163.705 224.578 163.449L230.059 160.213C230.55 159.872 231.368 159.872 231.777 160.127L237.259 163.449C237.668 163.705 237.668 164.216 237.095 164.471L231.614 167.708C231.041 168.049 230.304 168.049 229.895 167.793Z" fill="#5793CE"/>
<path d="M238.323 172.904L232.842 169.582C232.433 169.326 232.433 168.815 233.005 168.56L238.487 165.323C238.978 164.982 239.796 164.982 240.205 165.238L245.686 168.56C246.095 168.815 246.095 169.326 245.523 169.582L240.041 172.819C239.55 173.159 238.814 173.159 238.323 172.904Z" fill="#5793CE"/>
<path d="M246.831 178.014L241.349 174.692C240.94 174.437 240.94 173.926 241.513 173.67L246.995 170.433C247.485 170.093 248.304 170.093 248.713 170.348L254.194 173.67C254.603 173.926 254.603 174.437 254.031 174.692L248.549 177.929C248.058 178.184 247.322 178.27 246.831 178.014Z" fill="#5793CE"/>
<path d="M255.34 183.125L249.858 179.804C249.449 179.548 249.449 179.037 250.022 178.781L255.503 175.545C255.994 175.204 256.812 175.204 257.221 175.459L262.703 178.781C263.112 179.037 263.112 179.548 262.539 179.804L257.058 183.04C256.567 183.296 255.749 183.381 255.34 183.125Z" fill="#5793CE"/>
<path d="M263.849 188.236L258.367 184.914C257.958 184.658 257.958 184.147 258.531 183.892L264.012 180.655C264.503 180.314 265.321 180.314 265.73 180.57L271.212 183.892C271.621 184.147 271.621 184.658 271.048 184.914L265.567 188.151C265.076 188.406 264.258 188.491 263.849 188.236Z" fill="#5793CE"/>
<path d="M147.346 148.032L131.147 138.322C130.738 138.067 130.738 137.555 131.311 137.3L136.792 134.063C137.283 133.723 138.101 133.723 138.511 133.978L154.71 143.688C155.119 143.944 155.119 144.455 154.546 144.71L149.064 147.947C148.574 148.203 147.755 148.288 147.346 148.032Z" fill="#5793CE"/>
<path d="M251.658 210.723L235.459 201.013C235.05 200.757 235.05 200.246 235.622 199.99L241.104 196.754C241.595 196.413 242.413 196.413 242.822 196.668L259.021 206.379C259.43 206.634 259.43 207.145 258.858 207.401L253.376 210.637C252.885 210.978 252.149 210.978 251.658 210.723Z" fill="#5793CE"/>
<path d="M217.706 201.609L212.224 198.287C211.815 198.031 211.815 197.52 212.388 197.265L218.851 193.346C219.342 193.006 220.16 193.006 220.569 193.261L226.051 196.583C226.46 196.839 226.46 197.35 225.887 197.605L219.424 201.523C218.933 201.779 218.197 201.864 217.706 201.609Z" fill="#5793CE"/>
<path d="M156.019 164.471L147.265 159.19C146.855 158.934 146.855 158.423 147.428 158.168L153.891 154.25C154.382 153.909 155.2 153.909 155.609 154.165L164.364 159.446C164.773 159.701 164.773 160.212 164.2 160.468L157.737 164.386C157.246 164.727 156.509 164.727 156.019 164.471Z" fill="#5793CE"/>
<path d="M209.524 196.668L200.77 191.387C200.361 191.132 200.361 190.621 200.934 190.365L207.397 186.447C207.888 186.106 208.706 186.106 209.115 186.362L217.869 191.643C218.278 191.898 218.278 192.409 217.706 192.665L211.243 196.583C210.752 196.924 209.933 196.924 209.524 196.668Z" fill="#5793CE"/>
<path d="M168.29 171.882L159.536 166.601C159.127 166.346 159.127 165.835 159.7 165.579L166.163 161.661C166.654 161.32 167.472 161.32 167.881 161.576L176.635 166.857C177.044 167.112 177.044 167.623 176.471 167.879L170.008 171.797C169.517 172.138 168.699 172.138 168.29 171.882Z" fill="#5793CE"/>
<path d="M167.881 161.575L206.088 184.573C206.579 184.828 206.579 185.34 206.088 185.595L199.461 189.598C198.97 189.854 198.234 189.854 197.743 189.598L159.536 166.601L167.881 161.575Z" fill="#5793CE"/>
<path d="M241.431 210.807L247.567 214.47C247.895 214.725 247.894 215.066 247.485 215.322L244.867 216.94C244.458 217.195 243.804 217.195 243.477 217.025L237.341 213.363C237.013 213.107 237.013 212.766 237.422 212.511L240.04 210.892C240.449 210.637 241.104 210.637 241.431 210.807Z" fill="#5793CE"/>
<path d="M232.923 205.697L239.059 209.36C239.387 209.615 239.387 209.956 238.978 210.212L236.36 211.83C235.951 212.086 235.296 212.086 234.969 211.915L228.833 208.253C228.506 207.997 228.505 207.656 228.915 207.401L231.533 205.782C231.86 205.527 232.514 205.442 232.923 205.697Z" fill="#5793CE"/>
<path d="M224.415 200.587L230.551 204.25C230.878 204.505 230.878 204.846 230.469 205.101L227.851 206.72C227.442 206.975 226.787 206.975 226.46 206.805L220.324 203.142C219.997 202.887 219.997 202.546 220.406 202.29L223.024 200.672C223.433 200.417 224.006 200.331 224.415 200.587Z" fill="#5793CE"/>
<path d="M237.587 202.886L243.723 206.549C244.05 206.804 244.05 207.145 243.641 207.401L241.023 209.019C240.614 209.275 239.959 209.275 239.632 209.104L233.496 205.442C233.169 205.186 233.169 204.845 233.578 204.59L236.196 202.971C236.605 202.631 237.177 202.631 237.587 202.886Z" fill="#5793CE"/>
<path d="M271.13 103.23L225.396 75.8029L225.969 72.6514L271.703 100.164L271.13 103.23Z" fill="#D4ECFF"/>
<path d="M254.767 108.511L222.778 89.2607L223.433 86.1943L255.34 105.359L254.767 108.511Z" fill="#D4ECFF"/>
<path d="M251.74 99.1407L224.087 82.5312L224.66 79.4648L252.313 95.9892L251.74 99.1407Z" fill="white"/>
<path d="M269.821 110.044L255.994 101.696L256.649 98.6299L270.393 106.892L269.821 110.044Z" fill="#FF2C9C"/>
<path d="M220.488 48.7162L206.661 40.4541L207.316 37.3877L221.06 45.6499L220.488 48.7162Z" fill="#D4ECFF"/>
<path d="M219.015 55.9567L205.188 47.6093L205.761 44.543L219.588 52.8051L219.015 55.9567Z" fill="white"/>
<path d="M286.838 155.784L273.012 147.436L273.584 144.37L287.411 152.632L286.838 155.784Z" fill="#D4ECFF"/>
<path d="M215.988 70.3512L202.161 62.0039L202.816 58.9375L216.56 67.1997L215.988 70.3512Z" fill="#D4ECFF"/>
<path d="M245.849 72.5652C245.44 73.5873 244.295 73.928 243.395 73.3318C242.495 72.7355 242.086 71.543 242.495 70.5209C242.904 69.4988 244.049 69.1581 244.949 69.7543C245.931 70.2654 246.258 71.543 245.849 72.5652Z" fill="#FF2C9C"/>
<path d="M251.822 76.1423C251.413 77.1644 250.267 77.5051 249.367 76.9089C248.468 76.3127 248.058 75.1202 248.468 74.0981C248.877 73.0759 250.022 72.7352 250.922 73.3315C251.822 73.8425 252.231 75.1202 251.822 76.1423Z" fill="white"/>
<path d="M257.713 79.7204C257.303 80.7426 256.158 81.0833 255.258 80.487C254.358 79.8908 253.949 78.6983 254.358 77.6762C254.767 76.6541 255.913 76.3134 256.813 76.9096C257.794 77.4207 258.203 78.6983 257.713 79.7204Z" fill="#D4ECFF"/>
<path d="M263.684 83.2976C263.275 84.3197 262.13 84.6604 261.23 84.0642C260.33 83.4679 259.921 82.2755 260.33 81.2533C260.739 80.2312 261.884 79.8905 262.784 80.4867C263.766 80.9978 264.175 82.2755 263.684 83.2976Z" fill="#FF2C9C"/>
<path d="M164.854 212.17L126.974 189.343C125.91 188.661 125.992 187.554 127.301 186.787L150.209 173.074C151.518 172.307 153.4 172.222 154.545 172.903L192.425 195.731C193.488 196.412 193.407 197.52 192.097 198.286L169.19 212C167.881 212.766 165.917 212.851 164.854 212.17Z" fill="white"/>
<path d="M247.076 109.532C249.695 111.065 249.695 113.62 247.076 115.239L202.652 141.899C201.915 142.325 200.77 142.325 200.034 141.899C199.297 141.473 199.297 140.792 200.034 140.366L244.458 113.705C245.604 113.024 245.604 111.831 244.458 111.15L240.122 108.595C240.613 107.828 241.022 107.062 241.431 106.295L247.076 109.532Z" fill="#D4ECFF"/>
<path d="M184.244 130.826L228.668 104.166C231.286 102.632 235.541 102.632 238.159 104.166L241.595 106.21C241.186 106.976 240.777 107.743 240.286 108.51L235.541 105.699C234.395 105.017 232.432 105.017 231.286 105.699L186.862 132.359C186.125 132.785 184.98 132.785 184.244 132.359C183.507 131.933 183.507 131.252 184.244 130.826Z" fill="#5793CE"/>
<path d="M183.671 131.593V66.6028L230.223 39.6017L236.686 39.1758L242.986 43.4346L246.913 46.9269L201.506 121.797L186.698 130.826L183.671 131.593Z" fill="#5793CE"/>
<path d="M200.934 139.854L187.025 131.507V68.6465L201.343 75.631L200.934 139.854Z" fill="#79B1E0"/>
<path d="M249.04 47.4375V112.342L200.197 141.388L199.543 141.132V76.1421L249.04 47.4375Z" fill="#D4ECFF"/>
<path d="M221.632 47.9489L231.368 42.1569C232.513 41.5606 234.313 41.6458 235.377 42.242L244.376 47.6934C245.113 48.1193 245.358 48.7155 245.195 49.2266L220.651 64.4732L200.933 77.0794L186.943 68.6469L221.632 47.9489Z" fill="white"/>
<path d="M201.343 75.1201V139.599V140.962V142.24C200.934 142.24 200.443 142.154 200.116 141.899C199.788 141.728 199.625 141.388 199.543 141.132V76.1422L201.343 75.1201Z" fill="#5793CE"/>
<path d="M183.671 67.4543V66.6025H183.916L183.998 67.1988L183.671 67.4543Z" fill="white"/>
<path d="M199.543 76.9944V76.1426L199.788 76.4833L199.543 76.9944Z" fill="white"/>
<path d="M202.733 76.9089L247.076 50.2485C249.694 48.7153 249.694 46.16 247.076 44.5416L238.077 39.0903C235.459 37.5571 231.204 37.5571 228.586 39.0903L184.162 65.7507C183.425 66.1766 183.425 66.858 184.162 67.2839C184.898 67.7098 186.043 67.7098 186.78 67.2839L231.204 40.6235C232.35 39.9421 234.313 39.9421 235.459 40.6235L244.458 46.0748C245.604 46.7562 245.604 47.9487 244.458 48.6301L200.033 75.2905C199.297 75.7164 199.297 76.3978 200.033 76.8237C200.852 77.3348 201.997 77.3348 202.733 76.9089Z" fill="#D4ECFF"/>
<path d="M214.269 107.658L237.34 93.7738V69.7539L214.269 83.5526V107.658Z" fill="white"/>
<path d="M184.244 67.3687C184.98 67.7946 186.125 67.7946 186.862 67.3687L231.286 40.7083C232.432 40.0269 234.395 40.0269 235.541 40.7083L244.54 46.1597C245.277 46.5855 245.604 47.267 245.358 47.8632C245.195 47.5225 244.949 47.267 244.54 47.0114L235.541 41.5601C234.395 40.8787 232.432 40.8787 231.286 41.5601L186.862 68.2205C186.125 68.6464 184.98 68.6464 184.244 68.2205C183.671 67.8798 183.589 67.4539 183.835 67.028C183.916 67.1132 184.08 67.2835 184.244 67.3687Z" fill="white"/>
<path d="M200.115 76.9086C200.852 77.3345 201.997 77.3345 202.734 76.9086L247.076 50.2482C248.222 49.5668 248.876 48.7151 248.958 47.8633C249.204 49.0558 248.549 50.2482 247.076 51.1L202.652 77.7604C201.915 78.1863 200.77 78.1863 200.034 77.7604C199.461 77.4197 199.379 76.9938 199.625 76.5679C199.788 76.6531 199.952 76.8234 200.115 76.9086Z" fill="white"/>
<path d="M267.53 122.053C270.148 123.586 270.148 126.142 267.53 127.76L223.105 154.42C222.369 154.846 221.223 154.846 220.487 154.42C219.75 153.994 219.75 153.313 220.487 152.887L264.912 126.227C266.057 125.545 266.057 124.353 264.912 123.671L260.575 121.116C261.066 120.35 261.475 119.583 261.884 118.816L267.53 122.053Z" fill="#FF2C9C"/>
<path d="M204.615 143.347L249.039 116.687C251.658 115.154 255.912 115.154 258.53 116.687L261.966 118.731C261.557 119.498 261.148 120.264 260.657 121.031L255.912 118.22C254.766 117.539 252.803 117.539 251.658 118.22L207.233 144.881C206.496 145.306 205.351 145.306 204.615 144.881C203.878 144.54 203.878 143.773 204.615 143.347Z" fill="#D3008D"/>
<path d="M204.124 144.199V79.2092L250.594 52.2081L257.139 51.7822L263.439 55.9559L267.284 59.5333L221.959 134.319L207.151 143.433L204.124 144.199Z" fill="#D3008D"/>
<path d="M221.305 152.376L207.396 144.028V81.2529L221.714 88.1523L221.305 152.376Z" fill="#E573B5"/>
<path d="M269.493 59.959V124.864L220.651 153.994L219.996 153.739V88.7488L269.493 59.959Z" fill="#FF2C9C"/>
<path d="M242.003 60.5553L251.739 54.7633C252.885 54.1671 254.684 54.2522 255.748 54.8485L264.748 60.2998C265.484 60.7257 265.729 61.3219 265.566 61.833L241.022 77.0797L221.305 89.6859L207.314 81.2533L242.003 60.5553Z" fill="white"/>
<path d="M221.714 87.7266V152.206V153.568V154.846C221.305 154.846 220.814 154.761 220.487 154.505C220.16 154.335 219.996 153.994 219.914 153.739V88.7487L221.714 87.7266Z" fill="#D3008D"/>
<path d="M204.124 79.9756V79.209H204.369L204.451 79.7201L204.124 79.9756Z" fill="white"/>
<path d="M219.996 89.6008V88.749L220.242 89.0897L219.996 89.6008Z" fill="white"/>
<path d="M223.105 89.5155L267.529 62.77C270.147 61.2368 270.147 58.6815 267.529 57.0631L258.53 51.6118C255.912 50.0786 251.658 50.0786 249.039 51.6118L204.615 78.3574C203.878 78.7832 203.878 79.4647 204.615 79.8906C205.351 80.3164 206.496 80.3164 207.233 79.8906L251.658 53.2302C252.803 52.5488 254.766 52.5488 255.912 53.2302L264.911 58.6815C266.057 59.3629 266.057 60.5554 264.911 61.2368L220.487 87.8972C219.75 88.3231 219.75 89.0045 220.487 89.4304C221.223 89.9414 222.368 89.9414 223.105 89.5155Z" fill="#FF2C9C"/>
<path d="M234.722 120.264L257.793 106.38V82.2754L234.722 96.1592V120.264Z" fill="white"/>
<path d="M204.615 79.9761C205.351 80.402 206.496 80.402 207.233 79.9761L251.658 53.3157C252.803 52.6343 254.766 52.6343 255.912 53.3157L264.911 58.7671C265.648 59.193 265.975 59.8744 265.729 60.4706C265.566 60.1299 265.32 59.8744 264.911 59.6188L255.912 54.1675C254.766 53.4861 252.803 53.4861 251.658 54.1675L207.233 80.8279C206.496 81.2538 205.351 81.2538 204.615 80.8279C204.042 80.4872 203.96 80.0613 204.206 79.6354C204.369 79.7206 204.451 79.8058 204.615 79.9761Z" fill="white"/>
<path d="M220.487 89.5163C221.223 89.9421 222.369 89.9421 223.105 89.5163L267.53 62.7707C268.675 62.0893 269.329 61.2375 269.411 60.3857C269.657 61.5782 269.002 62.7707 267.53 63.6225L223.105 90.2828C222.369 90.7087 221.223 90.7087 220.487 90.2828C219.914 89.9421 219.832 89.5163 220.078 89.0904C220.241 89.2607 220.323 89.3459 220.487 89.5163Z" fill="white"/>
<path d="M288.474 135.511C291.092 137.044 291.092 139.6 288.474 141.218L244.049 167.878C243.313 168.304 242.167 168.304 241.431 167.878C240.695 167.452 240.695 166.771 241.431 166.345L285.856 139.685C287.001 139.003 287.001 137.811 285.856 137.129L281.52 134.574C282.011 133.808 282.42 133.041 282.829 132.274L288.474 135.511Z" fill="#D4ECFF"/>
<path d="M225.641 156.805L270.066 130.145C272.684 128.612 276.938 128.612 279.556 130.145L282.992 132.189C282.583 132.956 282.174 133.722 281.683 134.489L276.938 131.678C275.793 130.997 273.829 130.997 272.684 131.678L228.259 158.339C227.523 158.764 226.377 158.764 225.641 158.339C224.905 157.913 224.905 157.231 225.641 156.805Z" fill="#5793CE"/>
<path d="M225.068 157.657V92.6672L271.62 65.6661L278.084 65.2402L284.383 69.4139L288.228 72.9062L242.904 147.777L228.095 156.891L225.068 157.657Z" fill="#5793CE"/>
<path d="M242.249 165.834L228.341 157.486V94.7109L242.74 101.61L242.249 165.834Z" fill="#79B1E0"/>
<path d="M290.438 73.417V138.322L241.595 167.452L240.94 167.197V102.207L290.438 73.417Z" fill="#D4ECFF"/>
<path d="M262.948 74.0134L272.684 68.2213C273.829 67.6251 275.629 67.7103 276.692 68.3065L285.692 73.7578C286.428 74.1837 286.674 74.7799 286.51 75.291L261.966 90.5377L242.249 103.144L228.259 94.7113L262.948 74.0134Z" fill="white"/>
<path d="M242.74 101.185V165.664V167.026V168.304C242.331 168.304 241.84 168.219 241.513 167.963C241.186 167.793 241.022 167.452 240.94 167.197V102.207L242.74 101.185Z" fill="#5793CE"/>
<path d="M225.068 93.4336V92.667H225.314L225.396 93.1781L225.068 93.4336Z" fill="white"/>
<path d="M240.94 102.974V102.207L241.186 102.548L240.94 102.974Z" fill="white"/>
<path d="M244.131 102.973L288.556 76.313C291.174 74.7798 291.174 72.2245 288.556 70.6061L279.556 65.1548C276.938 63.6216 272.684 63.6216 270.066 65.1548L225.641 91.8152C224.905 92.241 224.905 92.9225 225.641 93.3483C226.377 93.7742 227.523 93.7742 228.259 93.3483L272.684 66.688C273.829 66.0065 275.793 66.0065 276.938 66.688L285.938 72.1393C287.083 72.8207 287.083 74.0132 285.938 74.6946L241.513 101.355C240.777 101.781 240.777 102.462 241.513 102.888C242.249 103.399 243.395 103.399 244.131 102.973Z" fill="#D4ECFF"/>
<path d="M255.667 133.722L278.738 119.838V95.7334L255.667 109.617V133.722Z" fill="white"/>
<path d="M225.641 93.3482C226.377 93.7741 227.523 93.7741 228.259 93.3482L272.684 66.6878C273.829 66.0064 275.793 66.0064 276.938 66.6878L285.938 72.1391C286.674 72.565 287.001 73.2464 286.756 73.8427C286.592 73.502 286.347 73.2464 285.938 72.9909L276.938 67.5396C275.793 66.8582 273.829 66.8582 272.684 67.5396L228.259 94.2C227.523 94.6259 226.377 94.6259 225.641 94.2C225.068 93.8593 224.987 93.4334 225.232 93.0075C225.314 93.1778 225.396 93.263 225.641 93.3482Z" fill="white"/>
<path d="M241.513 102.973C242.249 103.399 243.395 103.399 244.131 102.973L288.556 76.3127C289.701 75.6313 290.356 74.7795 290.438 73.9277C290.683 75.1202 290.029 76.3127 288.556 77.1645L244.131 103.825C243.395 104.251 242.249 104.251 241.513 103.825C240.94 103.484 240.859 103.058 241.104 102.632C241.186 102.718 241.35 102.803 241.513 102.973Z" fill="white"/>
<path d="M247.076 109.532C249.695 111.065 249.695 113.62 247.076 115.239L202.652 141.899C201.915 142.325 200.77 142.325 200.034 141.899C199.297 141.473 199.297 140.792 200.034 140.366L244.458 113.705C245.604 113.024 245.604 111.831 244.458 111.15L240.122 108.595C240.613 107.828 241.022 107.062 241.431 106.295L247.076 109.532Z" fill="#D4ECFF"/>
<path d="M184.244 130.826L228.668 104.166C231.286 102.632 235.541 102.632 238.159 104.166L241.595 106.21C241.186 106.976 240.777 107.743 240.286 108.51L235.541 105.699C234.395 105.017 232.432 105.017 231.286 105.699L186.862 132.359C186.125 132.785 184.98 132.785 184.244 132.359C183.507 131.933 183.507 131.252 184.244 130.826Z" fill="#5793CE"/>
<path d="M183.671 131.593V66.6028L230.223 39.6017L236.686 39.1758L242.986 43.4346L246.913 46.9269L201.506 121.797L186.698 130.826L183.671 131.593Z" fill="#5793CE"/>
<path d="M200.934 139.854L187.025 131.507V68.6465L201.343 75.631L200.934 139.854Z" fill="#79B1E0"/>
<path d="M249.04 47.4375V112.342L200.197 141.388L199.543 141.132V76.1421L249.04 47.4375Z" fill="#D4ECFF"/>
<path d="M221.632 47.9489L231.368 42.1569C232.513 41.5606 234.313 41.6458 235.377 42.242L244.376 47.6934C245.113 48.1193 245.358 48.7155 245.195 49.2266L220.651 64.4732L200.933 77.0794L186.943 68.6469L221.632 47.9489Z" fill="white"/>
<path d="M201.343 75.1201V139.599V140.962V142.24C200.934 142.24 200.443 142.154 200.116 141.899C199.788 141.728 199.625 141.388 199.543 141.132V76.1422L201.343 75.1201Z" fill="#5793CE"/>
<path d="M183.671 67.4543V66.6025H183.916L183.998 67.1988L183.671 67.4543Z" fill="white"/>
<path d="M199.543 76.9944V76.1426L199.788 76.4833L199.543 76.9944Z" fill="white"/>
<path d="M202.733 76.9089L247.076 50.2485C249.694 48.7153 249.694 46.16 247.076 44.5416L238.077 39.0903C235.459 37.5571 231.204 37.5571 228.586 39.0903L184.162 65.7507C183.425 66.1766 183.425 66.858 184.162 67.2839C184.898 67.7098 186.043 67.7098 186.78 67.2839L231.204 40.6235C232.35 39.9421 234.313 39.9421 235.459 40.6235L244.458 46.0748C245.604 46.7562 245.604 47.9487 244.458 48.6301L200.033 75.2905C199.297 75.7164 199.297 76.3978 200.033 76.8237C200.852 77.3348 201.997 77.3348 202.733 76.9089Z" fill="#D4ECFF"/>
<path d="M214.269 107.658L237.34 93.7738V69.7539L214.269 83.5526V107.658Z" fill="white"/>
<path d="M184.244 67.3687C184.98 67.7946 186.125 67.7946 186.862 67.3687L231.286 40.7083C232.432 40.0269 234.395 40.0269 235.541 40.7083L244.54 46.1597C245.277 46.5855 245.604 47.267 245.358 47.8632C245.195 47.5225 244.949 47.267 244.54 47.0114L235.541 41.5601C234.395 40.8787 232.432 40.8787 231.286 41.5601L186.862 68.2205C186.125 68.6464 184.98 68.6464 184.244 68.2205C183.671 67.8798 183.589 67.4539 183.835 67.028C183.916 67.1132 184.08 67.2835 184.244 67.3687Z" fill="white"/>
<path d="M200.115 76.9086C200.852 77.3345 201.997 77.3345 202.734 76.9086L247.076 50.2482C248.222 49.5668 248.876 48.7151 248.958 47.8633C249.204 49.0558 248.549 50.2482 247.076 51.1L202.652 77.7604C201.915 78.1863 200.77 78.1863 200.034 77.7604C199.461 77.4197 199.379 76.9938 199.625 76.5679C199.788 76.6531 199.952 76.8234 200.115 76.9086Z" fill="white"/>
<path d="M267.53 122.053C270.148 123.586 270.148 126.142 267.53 127.76L223.105 154.42C222.369 154.846 221.223 154.846 220.487 154.42C219.75 153.994 219.75 153.313 220.487 152.887L264.912 126.227C266.057 125.545 266.057 124.353 264.912 123.671L260.575 121.116C261.066 120.35 261.475 119.583 261.884 118.816L267.53 122.053Z" fill="#FF2C9C"/>
<path d="M204.615 143.347L249.039 116.687C251.658 115.154 255.912 115.154 258.53 116.687L261.966 118.731C261.557 119.498 261.148 120.264 260.657 121.031L255.912 118.22C254.766 117.539 252.803 117.539 251.658 118.22L207.233 144.881C206.496 145.306 205.351 145.306 204.615 144.881C203.878 144.54 203.878 143.773 204.615 143.347Z" fill="#D3008D"/>
<path d="M204.124 144.199V79.2092L250.594 52.2081L257.139 51.7822L263.439 55.9559L267.284 59.5333L221.959 134.319L207.151 143.433L204.124 144.199Z" fill="#D3008D"/>
<path d="M221.305 152.376L207.396 144.028V81.2529L221.714 88.1523L221.305 152.376Z" fill="#E573B5"/>
<path d="M269.493 59.959V124.864L220.651 153.994L219.996 153.739V88.7488L269.493 59.959Z" fill="#FF2C9C"/>
<path d="M242.003 60.5553L251.739 54.7633C252.885 54.1671 254.684 54.2522 255.748 54.8485L264.748 60.2998C265.484 60.7257 265.729 61.3219 265.566 61.833L241.022 77.0797L221.305 89.6859L207.314 81.2533L242.003 60.5553Z" fill="white"/>
<path d="M221.714 87.7266V152.206V153.568V154.846C221.305 154.846 220.814 154.761 220.487 154.505C220.16 154.335 219.996 153.994 219.914 153.739V88.7487L221.714 87.7266Z" fill="#D3008D"/>
<path d="M204.124 79.9756V79.209H204.369L204.451 79.7201L204.124 79.9756Z" fill="white"/>
<path d="M219.996 89.6008V88.749L220.242 89.0897L219.996 89.6008Z" fill="white"/>
<path d="M223.105 89.5155L267.529 62.77C270.147 61.2368 270.147 58.6815 267.529 57.0631L258.53 51.6118C255.912 50.0786 251.658 50.0786 249.039 51.6118L204.615 78.3574C203.878 78.7832 203.878 79.4647 204.615 79.8906C205.351 80.3164 206.496 80.3164 207.233 79.8906L251.658 53.2302C252.803 52.5488 254.766 52.5488 255.912 53.2302L264.911 58.6815C266.057 59.3629 266.057 60.5554 264.911 61.2368L220.487 87.8972C219.75 88.3231 219.75 89.0045 220.487 89.4304C221.223 89.9414 222.368 89.9414 223.105 89.5155Z" fill="#FF2C9C"/>
<path d="M234.722 120.264L257.793 106.38V82.2754L234.722 96.1592V120.264Z" fill="white"/>
<path d="M204.615 79.9761C205.351 80.402 206.496 80.402 207.233 79.9761L251.658 53.3157C252.803 52.6343 254.766 52.6343 255.912 53.3157L264.911 58.7671C265.648 59.193 265.975 59.8744 265.729 60.4706C265.566 60.1299 265.32 59.8744 264.911 59.6188L255.912 54.1675C254.766 53.4861 252.803 53.4861 251.658 54.1675L207.233 80.8279C206.496 81.2538 205.351 81.2538 204.615 80.8279C204.042 80.4872 203.96 80.0613 204.206 79.6354C204.369 79.7206 204.451 79.8058 204.615 79.9761Z" fill="white"/>
<path d="M220.487 89.5163C221.223 89.9421 222.369 89.9421 223.105 89.5163L267.53 62.7707C268.675 62.0893 269.329 61.2375 269.411 60.3857C269.657 61.5782 269.002 62.7707 267.53 63.6225L223.105 90.2828C222.369 90.7087 221.223 90.7087 220.487 90.2828C219.914 89.9421 219.832 89.5163 220.078 89.0904C220.241 89.2607 220.323 89.3459 220.487 89.5163Z" fill="white"/>
<path d="M288.475 135.511C291.093 137.044 291.093 139.6 288.475 141.218L244.05 167.878C243.314 168.304 242.168 168.304 241.432 167.878C240.696 167.452 240.696 166.771 241.432 166.345L285.857 139.685C287.002 139.003 287.002 137.811 285.857 137.129L281.521 134.574C282.012 133.808 282.421 133.041 282.83 132.274L288.475 135.511Z" fill="#D4ECFF"/>
<path d="M225.642 156.805L270.067 130.145C272.685 128.612 276.939 128.612 279.557 130.145L282.993 132.189C282.584 132.956 282.175 133.722 281.684 134.489L276.939 131.678C275.794 130.997 273.83 130.997 272.685 131.678L228.26 158.339C227.524 158.764 226.378 158.764 225.642 158.339C224.906 157.913 224.906 157.231 225.642 156.805Z" fill="#5793CE"/>
<path d="M225.069 157.657V92.6672L271.621 65.6661L278.084 65.2402L284.384 69.4139L288.229 72.9062L242.905 147.777L228.096 156.891L225.069 157.657Z" fill="#5793CE"/>
<path d="M242.25 165.834L228.342 157.486V94.7109L242.741 101.61L242.25 165.834Z" fill="#79B1E0"/>
<path d="M290.439 73.417V138.322L241.596 167.452L240.941 167.197V102.207L290.439 73.417Z" fill="#D4ECFF"/>
<path d="M262.949 74.0134L272.685 68.2213C273.83 67.6251 275.63 67.7103 276.693 68.3065L285.693 73.7578C286.429 74.1837 286.675 74.7799 286.511 75.291L261.967 90.5377L242.25 103.144L228.26 94.7113L262.949 74.0134Z" fill="white"/>
<path d="M242.741 101.185V165.664V167.026V168.304C242.332 168.304 241.841 168.219 241.514 167.963C241.187 167.793 241.023 167.452 240.941 167.197V102.207L242.741 101.185Z" fill="#5793CE"/>
<path d="M225.069 93.4336V92.667H225.315L225.397 93.1781L225.069 93.4336Z" fill="white"/>
<path d="M240.941 102.974V102.207L241.187 102.548L240.941 102.974Z" fill="white"/>
<path d="M244.132 102.973L288.557 76.313C291.175 74.7798 291.175 72.2245 288.557 70.6061L279.557 65.1548C276.939 63.6216 272.685 63.6216 270.067 65.1548L225.642 91.8152C224.906 92.241 224.906 92.9225 225.642 93.3483C226.378 93.7742 227.524 93.7742 228.26 93.3483L272.685 66.688C273.83 66.0065 275.794 66.0065 276.939 66.688L285.939 72.1393C287.084 72.8207 287.084 74.0132 285.939 74.6946L241.514 101.355C240.778 101.781 240.778 102.462 241.514 102.888C242.25 103.399 243.396 103.399 244.132 102.973Z" fill="#D4ECFF"/>
<path d="M255.668 133.722L278.739 119.838V95.7334L255.668 109.617V133.722Z" fill="white"/>
<path d="M225.642 93.3482C226.378 93.7741 227.524 93.7741 228.26 93.3482L272.685 66.6878C273.83 66.0064 275.794 66.0064 276.939 66.6878L285.939 72.1391C286.675 72.565 287.002 73.2464 286.757 73.8427C286.593 73.502 286.348 73.2464 285.939 72.9909L276.939 67.5396C275.794 66.8582 273.83 66.8582 272.685 67.5396L228.26 94.2C227.524 94.6259 226.378 94.6259 225.642 94.2C225.069 93.8593 224.988 93.4334 225.233 93.0075C225.315 93.1778 225.397 93.263 225.642 93.3482Z" fill="white"/>
<path d="M241.514 102.973C242.25 103.399 243.396 103.399 244.132 102.973L288.557 76.3127C289.702 75.6313 290.357 74.7795 290.439 73.9277C290.684 75.1202 290.03 76.3127 288.557 77.1645L244.132 103.825C243.396 104.251 242.25 104.251 241.514 103.825C240.941 103.484 240.86 103.058 241.105 102.632C241.187 102.718 241.351 102.803 241.514 102.973Z" fill="white"/>
<path opacity="0.5" d="M307.455 239.937C305.737 238.915 302.873 238.915 301.073 239.937L219.096 289.255C217.378 290.277 217.378 291.981 219.096 293.088C220.814 294.11 223.678 294.11 225.478 293.088L307.455 243.77C309.173 242.663 309.173 240.96 307.455 239.937Z" fill="#173D7A"/>
<path d="M321.446 213.192C321.364 213.021 321.2 213.021 321.037 213.021L316.046 214.129L318.009 217.621L321.364 213.618C321.527 213.533 321.527 213.362 321.446 213.192Z" fill="#D4ECFF"/>
<path d="M319.481 215.747C319.481 214.98 318.99 214.129 318.336 213.703C318.008 213.532 317.763 213.532 317.599 213.617C311.872 213.532 306.227 215.151 301.318 218.132L300.991 218.387L307.127 229.29L308.927 228.012C312.772 225.372 316.045 221.88 318.418 217.706L319.236 216.343C319.399 216.343 319.481 216.088 319.481 215.747Z" fill="#5793CE"/>
<path d="M308.355 226.394C308.355 223.498 306.391 220.091 304.018 218.643C301.646 217.195 299.682 218.387 299.764 221.283C299.764 224.179 301.728 227.586 304.1 229.034C306.473 230.397 308.355 229.29 308.355 226.394Z" fill="#D4ECFF"/>
<path d="M270.557 253.055L307.127 229.29L300.991 218.388L263.275 240.108L270.557 253.055Z" fill="#D4ECFF"/>
<path d="M272.029 249.563C272.029 246.156 269.739 242.067 266.875 240.449C264.094 238.745 261.803 240.193 261.803 243.515C261.803 246.922 264.094 251.011 266.957 252.629C269.739 254.333 272.029 252.97 272.029 249.563Z" fill="#D4ECFF"/>
<path d="M269.902 250.84C269.902 247.433 267.612 243.344 264.748 241.726C261.967 240.022 259.676 241.47 259.676 244.792C259.676 248.199 261.967 252.288 264.83 253.906C267.694 255.61 269.984 254.247 269.902 250.84Z" fill="#D4ECFF"/>
<path d="M261.155 241.432L212.771 271.039L220.067 283.963L268.451 254.356L261.155 241.432Z" fill="#D4ECFF"/>
<path d="M221.551 280.482C221.551 277.074 219.26 272.986 216.397 271.368C213.615 269.664 211.324 271.112 211.324 274.434C211.324 277.841 213.615 281.93 216.478 283.548C219.342 285.251 221.551 283.889 221.551 280.482Z" fill="#D4ECFF"/>
<path d="M219.751 279.374C219.67 277.415 218.115 274.945 216.233 273.837C214.434 272.73 213.043 273.497 213.125 275.541C213.206 277.5 214.761 279.97 216.642 281.077C218.442 282.185 219.833 281.418 219.751 279.374Z" fill="#396CAA"/>
<path d="M272.357 249.392C272.357 245.985 270.066 241.896 267.203 240.278C266.058 239.596 264.994 239.426 264.176 239.682C265.076 238.659 266.63 238.574 268.266 239.596C271.048 241.3 273.421 245.303 273.421 248.71C273.421 250.755 272.603 252.032 271.375 252.373C272.03 251.692 272.357 250.669 272.357 249.392Z" fill="white"/>
<path d="M272.357 249.392C272.357 245.985 270.066 241.896 267.203 240.278C265.812 239.426 264.503 239.341 263.603 239.937L260.821 241.641L262.13 243.94C262.376 247.007 264.339 250.499 266.794 252.203L268.103 254.502L270.884 252.799C271.866 252.288 272.357 251.095 272.357 249.392Z" fill="#5793CE"/>
<path d="M269.657 251.096C269.657 247.689 267.367 243.6 264.503 241.982C261.721 240.278 259.431 241.726 259.431 245.048C259.431 248.455 261.721 252.544 264.585 254.162C267.367 255.781 269.657 254.418 269.657 251.096Z" fill="#D4ECFF"/>
<path d="M217.46 280.908L214.351 275.371L204.125 281.674C202.652 282.611 202.161 284.57 203.061 286.103C203.961 287.637 205.843 288.148 207.315 287.211L217.46 280.908Z" fill="#FF2C9C"/>
<path d="M218.033 279.459C218.033 278.011 217.051 276.222 215.824 275.541C214.597 274.86 213.615 275.456 213.615 276.904C213.615 278.352 214.597 280.141 215.824 280.822C217.133 281.503 218.115 280.907 218.033 279.459Z" fill="#FF2C9C"/>
<path d="M229.487 259.784L227.932 258.847C227.032 258.336 225.887 258.421 224.66 259.188L219.424 262.424C218.442 263.021 217.624 264.469 217.624 265.746V268.472C217.624 268.898 217.378 269.494 217.133 269.835L217.296 271.112L215.987 270.346C215.824 270.261 215.66 270.005 215.66 269.664V266.939C215.66 264.469 217.296 261.402 219.424 260.125L224.66 256.888C226.46 255.781 228.096 255.61 229.323 256.377L230.877 257.314C231.777 257.825 232.923 257.74 234.15 256.973L255.422 243.941C255.667 243.771 255.912 243.771 256.158 243.856L257.467 244.622L256.321 245.048C256.158 245.559 255.831 245.985 255.422 246.241L234.15 259.273C232.35 260.38 230.714 260.55 229.487 259.784Z" fill="#5793CE"/>
<path d="M229.241 259.699C228.341 259.188 227.195 259.273 225.968 260.04L220.732 263.276C219.75 263.872 218.932 265.32 218.932 266.598V269.324C218.932 270.005 218.523 270.772 217.95 271.113C217.378 271.453 216.969 271.198 216.969 270.516V267.791C216.969 265.32 218.605 262.254 220.732 260.976L225.968 257.74C227.768 256.632 229.404 256.462 230.632 257.229L232.186 258.166C233.086 258.677 234.231 258.592 235.459 257.825L256.73 244.793C257.303 244.452 257.712 244.708 257.712 245.389C257.712 246.07 257.303 246.837 256.73 247.178L235.459 260.21C233.659 261.317 232.022 261.488 230.795 260.721L229.241 259.699Z" fill="#5793CE"/>
<path d="M218.851 267.024V269.75C218.851 269.75 218.851 269.75 218.851 269.835C218.932 269.665 218.932 269.494 218.932 269.324V266.598C218.932 266.513 218.932 266.428 218.932 266.343C218.851 266.513 218.851 266.769 218.851 267.024Z" fill="white"/>
<path opacity="0.5" d="M212.224 220.178C205.679 224.096 195.125 224.096 188.662 220.178C182.117 216.259 182.117 209.956 188.662 206.038C195.207 202.12 205.761 202.12 212.224 206.038C218.769 209.956 218.769 216.259 212.224 220.178Z" fill="#173D7A"/>
<path d="M219.423 204.504V198.968H218.442C217.542 197.35 216.069 195.816 213.86 194.539C206.415 190.109 194.47 190.109 187.025 194.539C184.898 195.816 183.344 197.35 182.444 198.968H181.462V204.504C181.462 207.4 183.262 210.382 187.025 212.596C194.47 217.025 206.415 217.025 213.86 212.596C217.542 210.382 219.423 207.4 219.423 204.504Z" fill="#FF2C9C"/>
<path d="M213.86 207.06C206.415 211.489 194.47 211.489 187.025 207.06C179.58 202.631 179.58 195.391 187.025 190.962C194.47 186.532 206.415 186.532 213.86 190.962C221.305 195.391 221.305 202.546 213.86 207.06Z" fill="#FF2C9C"/>
<path d="M213.861 207.06C206.415 211.49 194.471 211.49 187.026 207.06C183.508 204.931 181.626 202.12 181.462 199.395C181.299 202.461 183.099 205.527 187.026 207.827C194.471 212.256 206.415 212.256 213.861 207.827C217.706 205.527 219.587 202.461 219.424 199.395C219.26 202.12 217.378 204.931 213.861 207.06Z" fill="white"/>
<path d="M191.28 202.716C190.953 202.545 190.789 202.29 190.789 201.949V194.539C190.789 193.942 191.525 193.517 192.507 193.517C193.489 193.517 194.225 193.942 194.225 194.539V200.671L211.406 198.457C212.306 198.372 213.206 198.712 213.451 199.223C213.615 199.82 213.042 200.331 212.142 200.416L192.916 202.886C192.425 202.971 191.853 202.886 191.525 202.716C191.362 202.801 191.362 202.801 191.28 202.716Z" fill="white"/>
<path opacity="0.5" d="M102.348 141.389L88.2764 132.871L102.348 124.438L116.502 132.871L102.348 141.389Z" fill="#173D7A"/>
<path d="M116.502 122.139L102.349 130.656V113.706L116.502 105.188V122.139Z" fill="#D3008D"/>
<path d="M102.348 113.706L88.2764 105.188L102.348 96.7559L116.502 105.188L102.348 113.706Z" fill="#FF2C9C"/>
<path d="M102.348 130.656L88.2764 122.139V105.188L102.348 113.706V130.656Z" fill="#FF2C9C"/>
<path d="M97.2757 121.456L93.3486 119.071V114.387L97.2757 116.686V121.456Z" fill="white"/>
<path opacity="0.5" d="M14.6446 293.344L0 284.485L14.6446 275.627L29.3711 284.485L14.6446 293.344Z" fill="#173D7A"/>
<path d="M29.371 273.327L14.6445 282.1V264.469L29.371 255.61V273.327Z" fill="#173D7A"/>
<path d="M14.6446 264.469L0 255.61L14.6446 246.837L29.3711 255.61L14.6446 264.469Z" fill="#D4ECFF"/>
<path d="M14.6446 282.1L0 273.327V255.61L14.6446 264.469V282.1Z" fill="#5793CE"/>
<path d="M9.40806 272.561L5.31738 270.091V265.15L9.40806 267.621V272.561Z" fill="white"/>
<path opacity="0.5" d="M89.317 292.691L34.6655 259.812C33.4383 259.046 33.4383 257.257 34.6655 256.49L86.6171 225.23L144.787 260.238C146.014 261.005 146.014 262.794 144.787 263.56L96.2711 292.691C94.144 293.968 91.4441 293.968 89.317 292.691Z" fill="#173D7A"/>
<path d="M94.4509 204.328C94.4509 200.751 91.9965 199.218 88.9694 201.006L37.8359 231.67C37.0178 232.181 36.3633 233.374 36.3633 234.396C36.3633 235.418 37.0178 235.758 37.8359 235.333L88.9694 204.669C90.3602 203.817 91.4238 204.499 91.4238 206.117V212.079C92.4055 211.994 93.3873 211.994 94.4509 211.994V204.328Z" fill="#FF2C9C"/>
<path d="M37.7539 246.065L88.8874 226.644C91.9145 224.856 94.3689 220.426 94.3689 216.849V212.079C93.3871 212.079 92.4053 212.079 91.3418 212.164V218.638C91.3418 220.256 90.1964 222.215 88.8874 223.067L37.7539 242.487C36.9358 242.998 36.2812 244.191 36.2812 245.213C36.2812 246.15 36.9358 246.576 37.7539 246.065Z" fill="#D3008D"/>
<path d="M36.6904 246.151L98.8687 283.628L151.557 250.92L155.729 244.447L155.32 246.747L154.175 240.699L56.4075 244.617L39.2266 243.425L36.6904 246.151Z" fill="#D3008D"/>
<path d="M38.7363 234.822V242.829L98.8693 279.029L100.506 271.448L38.7363 234.822Z" fill="#E573B5"/>
<path d="M154.993 238.144L92.8965 200.751L36.8543 234.651L36.7725 235.503L98.9507 272.896L154.993 238.144Z" fill="#FF2C9C"/>
<path d="M135.194 257.394L149.839 248.365C151.066 247.428 152.048 245.639 152.048 244.106V242.914C152.048 241.977 151.639 241.295 151.066 241.125L122.268 257.82L98.8691 271.022V279.114L135.194 257.394Z" fill="white"/>
<path d="M100.914 271.704L39.1445 234.481L37.8355 233.715L36.6083 233.033C36.3628 233.459 36.1992 234.055 36.1992 234.481C36.1992 234.992 36.3628 235.333 36.6083 235.503L98.7866 272.981L100.914 271.704Z" fill="#D3008D"/>
<path d="M98.1328 283.203L98.8691 283.629L99.0328 283.373L98.5419 282.947L98.1328 283.203Z" fill="white"/>
<path d="M98.1328 272.471L98.9509 272.897L98.7055 272.471H98.1328Z" fill="white"/>
<path d="M100.014 269.234L151.147 238.57C154.174 236.781 156.629 238.229 156.629 241.892V243.085C156.629 246.662 154.174 251.091 151.147 252.88L100.014 283.544C99.1955 284.055 98.541 283.629 98.541 282.607C98.541 281.585 99.1955 280.392 100.014 279.881L151.147 249.217C152.538 248.366 153.602 246.406 153.602 244.788V243.596C153.602 241.977 152.538 241.296 151.147 242.148L100.014 272.811C99.1955 273.322 98.541 272.896 98.541 271.874C98.541 270.937 99.1955 269.745 100.014 269.234Z" fill="#FF2C9C"/>
<path d="M98.5418 282.606C98.5418 281.584 99.1963 280.392 100.014 279.881L151.148 249.217C152.539 248.365 153.602 246.406 153.602 244.788V243.595C153.602 242.488 153.111 241.892 152.457 241.807C152.702 242.147 152.784 242.573 152.784 243.084V244.277C152.784 245.895 151.639 247.854 150.33 248.706L99.1963 279.37C98.3781 279.881 97.7236 281.073 97.7236 282.095C97.7236 282.862 98.1327 283.288 98.6236 283.203C98.5418 283.117 98.5418 282.862 98.5418 282.606Z" fill="white"/>
<path d="M98.5418 271.959C98.5418 270.937 99.1963 269.745 100.014 269.234L151.148 238.57C152.457 237.803 153.602 237.633 154.584 237.974C153.602 237.122 152.048 237.037 150.33 238.059L99.1963 268.722C98.3781 269.234 97.7236 270.426 97.7236 271.448C97.7236 272.215 98.1327 272.641 98.6236 272.555C98.5418 272.385 98.5418 272.215 98.5418 271.959Z" fill="white"/>
<path d="M74.8975 238.91L103.123 221.96L127.585 236.696L99.3597 253.646L74.8975 238.91Z" fill="white"/>
</svg>
