<svg width="44" height="48" viewBox="0 0 44 48" fill="none" xmlns="http://www.w3.org/2000/svg">
<path fill-rule="evenodd" clip-rule="evenodd" d="M23.5627 35.4372C17.8298 35.6604 11.6509 34.5811 6.43985 31.9752L7.51916 30.263C12.5815 32.6453 18.3885 33.4645 23.5627 33.2409C23.5627 33.4268 23.7851 29.7416 24.1201 27.7317H16.3409C17.0478 19.6169 19.5419 12.3956 23.2645 6.25391H0V41.6907H24.4552C23.8969 39.5685 23.5627 35.3627 23.5627 35.4372Z" fill="#D0E9FB"/>
<path fill-rule="evenodd" clip-rule="evenodd" d="M25.9074 33.0918C30.1509 32.6822 33.873 31.5656 36.1439 30.1139L37.4841 31.8261C34.3568 33.6505 30.2996 34.8412 25.9074 35.2881C26.0192 37.4844 26.3543 39.5685 26.9126 41.6907H43.6626V6.25391H25.8329C22.0362 12.0609 19.8772 18.5376 19.0584 25.3867H27.0617C26.3911 27.9922 25.982 30.5608 25.9074 33.0918ZM10.5713 11.614H12.8422V16.8627H10.5713V11.614Z" fill="#00ACEC"/>
<path fill-rule="evenodd" clip-rule="evenodd" d="M29.4805 11.6133H31.7518V16.862H29.4805V11.6133Z" fill="black"/>
<path fill-rule="evenodd" clip-rule="evenodd" d="M25.9072 33.0914C30.1507 32.6817 33.8728 31.5652 36.1437 30.1135L37.4839 31.8257C34.3566 33.6501 30.2994 34.8408 25.9072 35.2877C26.0932 39.233 27.0615 43.1415 28.9964 46.9013L27.0615 47.9429C23.5253 42.3599 22.8925 34.8408 24.1205 27.7312H16.3408C17.3087 16.6759 21.5518 7.29551 27.7312 0L29.4056 1.45165C23.3762 8.44979 20.0633 16.6018 19.0582 25.3862H27.0615C26.3909 27.9917 25.9818 30.5604 25.9072 33.0914Z" fill="black"/>
<path fill-rule="evenodd" clip-rule="evenodd" d="M23.5623 33.2396V35.4359C17.8294 35.6591 11.6505 34.5798 6.43945 31.9739L7.51876 30.2617C12.5807 32.644 18.3877 33.4628 23.5623 33.2396Z" fill="#00ACEC"/>
</svg>
