<svg width="602" height="259" viewBox="0 0 602 259" fill="none" xmlns="http://www.w3.org/2000/svg">
<path d="M527.93 207.67C526.15 207.49 525.78 205.4 527.4 204.73C533.12 202.39 536.18 199.93 536.18 197.39C536.18 194.85 533.29 192.53 527.87 190.24C526.27 189.57 526.64 187.31 528.41 187.32C586.54 187.72 608.73 188.69 600.05 177.58C591.58 166.75 488.78 151.72 352.71 151.72C216.64 151.72 143.35 156.11 143.35 169.87C143.35 171.32 144.58 172.73 146.93 174.11C80.3 179.36 37.02 187.83 37.02 197.39C37.02 206.2 73.79 214.09 131.72 219.38C127.58 221.16 125.38 223.01 125.38 224.91C125.38 238.66 202.7 249.81 343.73 249.81C484.76 249.81 599.09 238.66 599.09 224.91C599.09 218.22 572 212.14 527.93 207.67Z" fill="#B1CBDB"/>
<mask id="mask0_3062_3334" style="mask-type:luminance" maskUnits="userSpaceOnUse" x="0" y="151" width="602" height="101">
<path d="M527.93 208.7C526.15 208.52 525.78 206.38 527.4 205.71C533.12 203.32 536.18 200.82 536.18 198.24C536.18 195.66 533.29 193.29 527.87 190.96C526.27 190.27 526.64 187.97 528.41 187.99C586.54 188.4 608.73 189.38 600.05 178.08C591.58 167.05 488.78 151.74 352.71 151.74C216.64 151.74 106.34 156.22 106.34 170.22C106.34 171.69 107.57 173.14 109.92 174.54C43.28 179.87 0 188.5 0 198.24C0 207.21 36.77 215.25 94.7 220.63C90.56 222.44 88.36 224.33 88.36 226.26C88.36 240.26 202.69 251.62 343.72 251.62C484.75 251.62 599.08 240.27 599.08 226.26C599.08 219.44 571.99 213.26 527.92 208.7H527.93Z" fill="white"/>
</mask>
<g mask="url(#mask0_3062_3334)">
<g style="mix-blend-mode:multiply">
<path d="M454.94 232.84L548.06 186L401.36 169.32L358.89 183.5L454.94 232.84Z" fill="#B1CBDB"/>
</g>
<g style="mix-blend-mode:multiply">
<path d="M236.75 211.3L351.09 208.54L398.35 184.12L326.94 162.2L236.75 211.3Z" fill="#B1CBDB"/>
</g>
</g>
<path d="M222.34 184.88L239.29 176.41L364.45 134.04C364.45 134.04 355.32 154.25 369.66 164.03L239.94 212.27L222.34 184.89V184.88Z" fill="#F9EDDD"/>
<g style="mix-blend-mode:multiply" opacity="0.45">
<path d="M222.34 184.88L239.29 176.41L364.45 134.04C364.45 134.04 355.32 154.25 369.66 164.03L239.94 212.27L222.34 184.89V184.88Z" fill="#F9EDDD"/>
</g>
<g style="mix-blend-mode:multiply">
<path d="M241.9 169.239L236.46 185.249L361.66 145.619V136.619L239.29 170.539" fill="#F9EDDD"/>
</g>
<path d="M138.25 171.85L90.78 168.29L98.27 161.64L223.64 122.31L368.36 132.73L239.29 180.32L138.25 171.85Z" fill="#C13D56"/>
<path d="M239.29 176.41L106.7 159.92C103.77 159.56 100.81 160.15 98.2601 161.65C92.5501 165.01 84.9101 172.58 94.6401 186.58C96.7501 189.62 100.04 191.64 103.7 192.18L239.94 212.27C239.94 212.27 228.86 189.45 239.29 176.42V176.41Z" fill="#F9EDDD"/>
<path d="M368.36 132.729V135.99L239.29 180.32L98.27 161.639C98.27 161.639 101.93 160.139 105.1 159.479L239.29 176.41L368.36 132.74V132.729Z" fill="#C13D56"/>
<g style="mix-blend-mode:multiply">
<path d="M368.36 132.729V135.99L239.29 180.32L98.27 161.639C98.27 161.639 101.93 160.139 105.1 159.479L239.29 176.41L368.36 132.74V132.729Z" fill="#C13D56"/>
</g>
<path d="M106.31 192.169C102.65 191.629 99.3601 189.609 97.2501 186.569C87.5201 172.569 95.1601 164.999 100.87 161.639C102.55 160.649 104.41 160.069 106.32 159.879C103.52 159.609 100.69 160.209 98.2601 161.639C92.5501 164.999 84.9101 172.569 94.6401 186.569C96.7501 189.609 100.04 191.629 103.7 192.169L239.94 212.259C239.94 212.259 239.87 212.109 239.75 211.849L106.31 192.169Z" fill="#C13D56"/>
<g style="mix-blend-mode:multiply">
<path d="M106.31 192.169C102.65 191.629 99.3601 189.609 97.2501 186.569C87.5201 172.569 95.1601 164.999 100.87 161.639C102.55 160.649 104.41 160.069 106.32 159.879C103.52 159.609 100.69 160.209 98.2601 161.639C92.5501 164.999 84.9101 172.569 94.6401 186.569C96.7501 189.609 100.04 191.629 103.7 192.169L239.94 212.259C239.94 212.259 239.87 212.109 239.75 211.849L106.31 192.169Z" fill="#C13D56"/>
</g>
<path d="M96.1201 188.319C98.1501 190.369 100.81 191.739 103.7 192.169L239.94 212.259C239.94 212.259 239.57 210.189 239.03 208.859L96.1301 188.319H96.1201Z" fill="#C13D56"/>
<path d="M227.64 209.35L239.03 208.86L372.27 161.42V164.02L239.94 212.26L227.64 209.35Z" fill="#C13D56"/>
<g style="mix-blend-mode:multiply">
<path d="M239.03 208.859L96.1301 188.319C98.1601 190.369 100.82 191.739 103.71 192.169L239.95 212.259L372.28 164.019V161.409L239.04 208.859H239.03Z" fill="#C13D56"/>
</g>
<g style="mix-blend-mode:multiply">
<path d="M368.36 132.729V135.99L239.29 180.32V176.41L368.36 132.729Z" fill="#C13D56"/>
</g>
<g style="mix-blend-mode:multiply">
<path d="M239.03 208.86L239.94 212.26L372.27 164.02V161.42L239.03 208.86Z" fill="#C13D56"/>
</g>
<g style="mix-blend-mode:multiply" opacity="0.97">
<path d="M100.91 164.09L236.01 183.9L359.4 142.47" stroke="#F9EDDD" stroke-width="0.65" stroke-miterlimit="10"/>
</g>
<g style="mix-blend-mode:multiply" opacity="0.97">
<path d="M100.91 168.649L234.71 188.469L359.4 147.029" stroke="#F9EDDD" stroke-width="0.65" stroke-miterlimit="10"/>
</g>
<g style="mix-blend-mode:multiply" opacity="0.97">
<path d="M100.91 173.21L234.71 193.03L359.4 151.6" stroke="#F9EDDD" stroke-width="0.65" stroke-miterlimit="10"/>
</g>
<g style="mix-blend-mode:multiply" opacity="0.97">
<path d="M100.91 177.779L235.36 197.589L359.4 156.159" stroke="#F9EDDD" stroke-width="0.65" stroke-miterlimit="10"/>
</g>
<g style="mix-blend-mode:multiply" opacity="0.97">
<path d="M100.91 182.34L236.66 202.16L359.4 160.72" stroke="#F9EDDD" stroke-width="0.65" stroke-miterlimit="10"/>
</g>
<g style="mix-blend-mode:multiply" opacity="0.97">
<path d="M100.91 186.9L237.97 206.72L359.4 165.29" stroke="#F9EDDD" stroke-width="0.65" stroke-miterlimit="10"/>
</g>
<path d="M333.16 105.36L356.52 107.61C356.52 107.61 350.39 114.88 355.79 130L239.62 161.74L221.69 152.29L221.44 131.1C221.44 131.1 224.3 122.96 226.25 122.96C228.2 122.96 333.15 105.36 333.15 105.36H333.16Z" fill="#F3C7A1"/>
<g style="mix-blend-mode:multiply" opacity="0.38">
<path d="M353.55 112.52L249.57 136.71C239.72 139 234.02 149.61 237.97 158.92C238.09 159.2 238.22 159.48 238.35 159.76L231.44 160.04L224.29 150.34L227.55 126.87L240.83 126.89L308.51 115.01L356.51 107.61L353.54 112.53L353.55 112.52Z" fill="#F3C7A1"/>
</g>
<path d="M237.98 126.87L234.9 135.39L359.23 107.96L359.88 105.36L236.03 127.52" fill="#D0859F"/>
<path d="M225.6 157.511L237.66 159.811L357.93 127.521V130.781L239.61 161.741L224.3 158.811" fill="#D0859F"/>
<g style="mix-blend-mode:multiply" opacity="0.58">
<path d="M237.98 126.87L234.9 135.39L359.23 107.96L359.88 105.36L236.03 127.52" fill="#D0859F"/>
</g>
<g style="mix-blend-mode:multiply" opacity="0.58">
<path d="M225.6 157.511L237.66 159.811L357.93 127.521V130.781L239.61 161.741L224.3 158.811" fill="#D0859F"/>
</g>
<path d="M214.52 147.08L237.01 132.41L359.88 105.36L224.95 93.6201L102.72 121.33L128.47 131.43L214.52 147.08Z" fill="#D0859F"/>
<path d="M237.01 132.41C237.01 132.41 225.28 148.71 239.62 161.74L104.03 149.35C104.03 149.35 86.43 135.01 102.73 121.32L237.01 132.4V132.41Z" fill="#D0859F"/>
<g style="mix-blend-mode:multiply" opacity="0.11">
<path d="M237.01 132.41C237.01 132.41 225.28 148.71 239.62 161.74L104.03 149.35C104.03 149.35 86.43 135.01 102.73 121.32L237.01 132.4V132.41Z" fill="#D0859F"/>
</g>
<g style="mix-blend-mode:multiply" opacity="0.11">
<path d="M230.6 131.88C229.91 132.63 208.62 155.31 164.55 154.89L239.62 161.75C225.28 148.71 237.01 132.42 237.01 132.42L230.6 131.89V131.88Z" fill="#D0859F"/>
</g>
<g style="mix-blend-mode:multiply" opacity="0.11">
<path d="M98.0901 142.12C100.52 146.5 104.03 149.35 104.03 149.35L139.07 152.55C120.84 149.83 107.45 145.82 98.0901 142.11V142.12Z" fill="#D0859F"/>
</g>
<g style="mix-blend-mode:multiply" opacity="0.11">
<path d="M237.01 132.41C237.01 132.41 225.28 148.71 239.62 161.74L104.03 149.35C104.03 149.35 86.43 135.01 102.73 121.32L237.01 132.4V132.41Z" fill="#D0859F"/>
</g>
<path d="M233.75 161.42C233.75 161.42 221.69 150.34 232.05 132.43L227.88 132.09C217.12 148.39 228.21 160.77 228.21 160.77L233.75 161.42Z" fill="#EDB74A"/>
<path d="M109.24 149.031C109.24 149.031 91.9399 134.281 107.54 120.691L103.37 120.351C87.0699 134.041 104.67 149.031 104.67 149.031H109.23H109.24Z" fill="#EDB74A"/>
<g style="mix-blend-mode:multiply" opacity="0.97">
<path d="M236.35 137.62L352.39 111.55" stroke="#F9EDDD" stroke-width="0.33" stroke-miterlimit="10"/>
</g>
<g style="mix-blend-mode:multiply" opacity="0.97">
<path d="M236.82 140.32L352.48 113.78" stroke="#F9EDDD" stroke-width="0.33" stroke-miterlimit="10"/>
</g>
<g style="mix-blend-mode:multiply" opacity="0.97">
<path d="M237.29 143.02L352.57 116.02" stroke="#F9EDDD" stroke-width="0.33" stroke-miterlimit="10"/>
</g>
<g style="mix-blend-mode:multiply" opacity="0.97">
<path d="M237.75 145.73L352.66 118.25" stroke="#F9EDDD" stroke-width="0.33" stroke-miterlimit="10"/>
</g>
<g style="mix-blend-mode:multiply" opacity="0.97">
<path d="M238.22 148.43L352.76 120.49" stroke="#F9EDDD" stroke-width="0.33" stroke-miterlimit="10"/>
</g>
<g style="mix-blend-mode:multiply" opacity="0.97">
<path d="M238.68 151.13L352.85 122.72" stroke="#F9EDDD" stroke-width="0.33" stroke-miterlimit="10"/>
</g>
<g style="mix-blend-mode:multiply" opacity="0.97">
<path d="M239.15 153.83L352.94 124.96" stroke="#F9EDDD" stroke-width="0.33" stroke-miterlimit="10"/>
</g>
<g style="mix-blend-mode:multiply" opacity="0.97">
<path d="M239.61 156.529L353.04 127.189" stroke="#F9EDDD" stroke-width="0.33" stroke-miterlimit="10"/>
</g>
<path d="M139.33 97.1603L121.04 97.0703C121.04 97.0703 126.47 104.7 123.42 114.35L217.83 121.11L231.24 113.54L229.74 100.79C229.74 100.79 226.83 96.2003 225.28 96.4103C223.73 96.6203 139.34 97.1603 139.34 97.1603H139.33Z" fill="#F9EDDD"/>
<g style="mix-blend-mode:multiply" opacity="0.38">
<path d="M130.43 95.5803L121.89 98.0803L211.95 106.42C213.79 106.59 215.1 108.37 214.61 110.15C213.92 112.65 211.29 115.69 202.79 116.43L166.49 116.28L219.5 120.6L230.19 109.22L230.16 99.4803L204.71 98.9803L130.43 95.5703V95.5803Z" fill="#F3C7A1"/>
</g>
<path d="M216.31 100.01L219.43 104.79L118.92 97.5801L118.2 96.0801L217.91 100.19" fill="#3D6EBE"/>
<path d="M228.56 117.09L219.21 119.75L121.52 113.09L121.78 115.04L217.82 121.11L229.7 117.73" fill="#3D6EBE"/>
<g style="mix-blend-mode:multiply" opacity="0.39">
<path d="M216.31 100.01L219.43 104.79L118.92 97.5801L118.2 96.0801L217.91 100.19" fill="#3D6EBE"/>
</g>
<g style="mix-blend-mode:multiply" opacity="0.39">
<path d="M228.56 117.09L219.21 119.75L121.52 113.09L121.78 115.04L217.82 121.11L229.7 117.73" fill="#3D6EBE"/>
</g>
<path d="M236.49 109.65L217.53 103.23L118.2 96.0803L232.77 79.2803L322.81 82.3703L303.26 91.1603L236.49 109.65Z" fill="#3D6EBE"/>
<path d="M217.53 103.23C217.53 103.23 228.12 111.77 217.82 121.12L324.03 99.3399C324.03 99.3399 336.79 88.8699 322.81 82.3799L217.52 103.24L217.53 103.23Z" fill="#3D6EBE"/>
<path d="M217.53 103.23C217.53 103.23 228.12 111.77 217.82 121.12L324.03 99.3399C324.03 99.3399 336.79 88.8699 322.81 82.3799L217.52 103.24L217.53 103.23Z" fill="#3D6EBE"/>
<g style="mix-blend-mode:multiply" opacity="0.11">
<path d="M222.55 102.231C223.16 102.611 241.81 113.971 276.62 109.051L217.82 121.111C228.11 111.771 217.53 103.221 217.53 103.221L222.55 102.221V102.231Z" fill="#3D6EBE"/>
</g>
<g style="mix-blend-mode:multiply" opacity="0.11">
<path d="M328.14 94.3604C326.57 97.2504 324.03 99.3304 324.03 99.3304L296.58 104.96C310.78 101.4 321.04 97.5704 328.14 94.3604Z" fill="#3D6EBE"/>
</g>
<g style="mix-blend-mode:multiply" opacity="0.39">
<path d="M217.53 103.23C217.53 103.23 228.12 111.77 217.82 121.12L324.03 99.3399C324.03 99.3399 336.79 88.8699 322.81 82.3799L217.52 103.24L217.53 103.23Z" fill="#3D6EBE"/>
</g>
<g style="mix-blend-mode:multiply" opacity="0.97">
<path d="M123.58 99.1602L218.1 106.33" stroke="#F9EDDD" stroke-width="0.33" stroke-miterlimit="10"/>
</g>
<g style="mix-blend-mode:multiply" opacity="0.97">
<path d="M123.8 100.61L218.1 107.71" stroke="#F9EDDD" stroke-width="0.33" stroke-miterlimit="10"/>
</g>
<g style="mix-blend-mode:multiply" opacity="0.97">
<path d="M124.02 102.061L218.1 109.091" stroke="#F9EDDD" stroke-width="0.33" stroke-miterlimit="10"/>
</g>
<g style="mix-blend-mode:multiply" opacity="0.97">
<path d="M124.24 103.51L218.1 110.46" stroke="#F9EDDD" stroke-width="0.33" stroke-miterlimit="10"/>
</g>
<g style="mix-blend-mode:multiply" opacity="0.97">
<path d="M124.45 104.96L218.1 111.84" stroke="#F9EDDD" stroke-width="0.33" stroke-miterlimit="10"/>
</g>
<g style="mix-blend-mode:multiply" opacity="0.97">
<path d="M124.67 106.41L218.1 113.22" stroke="#F9EDDD" stroke-width="0.33" stroke-miterlimit="10"/>
</g>
<g style="mix-blend-mode:multiply" opacity="0.97">
<path d="M124.89 107.86L218.1 114.59" stroke="#F9EDDD" stroke-width="0.33" stroke-miterlimit="10"/>
</g>
<g style="mix-blend-mode:multiply" opacity="0.97">
<path d="M125.1 109.3L218.1 115.97" stroke="#F9EDDD" stroke-width="0.33" stroke-miterlimit="10"/>
</g>
<g style="mix-blend-mode:multiply" opacity="0.97">
<path d="M125.32 110.75L218.1 117.34" stroke="#F9EDDD" stroke-width="0.33" stroke-miterlimit="10"/>
</g>
<g style="mix-blend-mode:multiply" opacity="0.97">
<path d="M125.54 112.2L218.1 118.72" stroke="#F9EDDD" stroke-width="0.33" stroke-miterlimit="10"/>
</g>
<path d="M211.59 89.1104L201.62 95.2204L198.91 95.7904L123.78 94.4104L123.77 92.2003L146.84 93.2403L201.85 92.0704L211.59 89.1104Z" fill="#66A09C"/>
<g style="mix-blend-mode:multiply" opacity="0.83">
<path d="M211.59 89.1104L201.62 95.2204L198.91 95.7904L123.78 94.4104L123.77 92.2003L146.84 93.2403L201.85 92.0704L211.59 89.1104Z" fill="#66A09C"/>
</g>
<path d="M302.81 68.3405L301.65 53.9805L245.85 51.9805L128.5 59.8705L150.37 74.4305" fill="#66A09C"/>
<path d="M191.84 83.6605L193.66 62.3905L298.66 53.6105C305.57 53.0305 312.04 57.1005 314.48 63.5905C315.2 65.5105 315.73 67.6005 315.86 69.7705C316.39 78.0805 310.03 85.2405 301.74 85.9805L198.36 95.7805L189.63 82.0005" fill="#66A09C"/>
<g style="mix-blend-mode:multiply" opacity="0.46">
<path d="M191.84 83.6605L193.66 62.3905L298.66 53.6105C305.57 53.0305 312.04 57.1005 314.48 63.5905C315.2 65.5105 315.73 67.6005 315.86 69.7705C316.39 78.0805 310.03 85.2405 301.74 85.9805L198.36 95.7805L189.63 82.0005" fill="#66A09C"/>
</g>
<path d="M130.16 60.9707L193.1 62.3907C197.43 62.3707 201.47 64.6307 203.65 68.3707C207.03 74.1507 209.95 83.1507 202.44 91.0607C200.06 93.5707 196.71 94.3907 193.26 94.3007L125.86 92.4807C125.86 92.4807 142.38 79.7107 130.16 60.9807V60.9707Z" fill="#F9EDDD"/>
<g style="mix-blend-mode:multiply" opacity="0.97">
<path d="M203.65 68.3707C201.47 64.6307 197.43 62.3807 193.1 62.3907L130.16 60.9707C131.19 62.5507 132.02 64.1007 132.67 65.5907L187.59 66.8307C191.92 66.8107 195.96 69.0707 198.14 72.8107C201.24 78.1207 203.95 86.1407 198.56 93.5407C200 93.0307 201.33 92.2307 202.44 91.0607C209.94 83.1507 207.02 74.1507 203.65 68.3707Z" fill="#F9EDDD"/>
</g>
<path d="M204.21 68.3707C202.03 64.6307 197.99 62.3807 193.66 62.3907L130.72 60.9707C130.72 60.9707 130.74 61.0007 130.75 61.0107L192 62.3907C196.33 62.3707 200.37 64.6307 202.55 68.3707C205.93 74.1507 208.85 83.1507 201.34 91.0607C199.27 93.2407 196.48 94.1407 193.52 94.2807H193.81C197.27 94.3807 200.61 93.5607 202.99 91.0507C210.49 83.1407 207.57 74.1407 204.2 68.3607L204.21 68.3707Z" fill="#66A09C"/>
<g style="mix-blend-mode:multiply" opacity="0.22">
<path d="M315.85 69.7705C315.71 67.6005 315.19 65.5105 314.47 63.5905C312.03 57.1005 305.56 53.0305 298.65 53.6105L193.65 62.3905C193.65 62.3905 256.92 58.5605 276.29 69.5405C285.67 74.8505 291.29 81.3405 294.6 86.6305L301.72 85.9905C310.01 85.2505 316.36 78.0805 315.84 69.7805L315.85 69.7705Z" fill="#66A09C"/>
</g>
<path d="M128.07 60.1504L196.01 62.3304C196.01 62.3304 199.61 63.3704 201.41 65.2104L198.33 64.4604C196.43 64.0004 194.48 63.7304 192.53 63.6804L128.08 61.8104V60.1504H128.07Z" fill="#66A09C"/>
<path d="M204.21 68.3704C203.29 66.8004 202.05 65.5004 200.59 64.5104C200.4 64.3704 200.21 64.2304 200 64.1104C198.13 62.9304 195.95 62.3304 193.74 62.2604L128.07 60.1504V61.8104L189.36 63.5904C191.64 63.6604 193.92 63.8604 196.17 64.1904C198.79 64.5804 201.17 66.0504 202.52 68.3304C202.52 68.3404 202.54 68.3604 202.55 68.3704C205.93 74.1504 208.85 83.1504 201.34 91.0604C199.27 93.2404 196.48 94.1404 193.52 94.2804L194.94 94.3204C197.93 94.4004 200.86 93.2804 202.93 91.1204C210.51 83.2004 207.58 74.1604 204.2 68.3704H204.21Z" fill="#66A09C"/>
<g style="mix-blend-mode:multiply" opacity="0.97">
<path d="M133.61 64L197.69 65.97" stroke="#F9EDDD" stroke-width="0.55" stroke-miterlimit="10"/>
</g>
<g style="mix-blend-mode:multiply" opacity="0.97">
<path d="M135.02 66.4805L199.63 68.4005" stroke="#F9EDDD" stroke-width="0.55" stroke-miterlimit="10"/>
</g>
<g style="mix-blend-mode:multiply" opacity="0.97">
<path d="M135.33 68.96L201.85 70.82" stroke="#F9EDDD" stroke-width="0.55" stroke-miterlimit="10"/>
</g>
<g style="mix-blend-mode:multiply" opacity="0.97">
<path d="M136.2 71.4404L202.96 73.2504" stroke="#F9EDDD" stroke-width="0.55" stroke-miterlimit="10"/>
</g>
<g style="mix-blend-mode:multiply" opacity="0.97">
<path d="M136.51 73.9297L202.97 75.6897" stroke="#F9EDDD" stroke-width="0.55" stroke-miterlimit="10"/>
</g>
<g style="mix-blend-mode:multiply" opacity="0.97">
<path d="M136.27 76.4199L203.54 78.1199" stroke="#F9EDDD" stroke-width="0.55" stroke-miterlimit="10"/>
</g>
<g style="mix-blend-mode:multiply" opacity="0.97">
<path d="M135.47 78.9004L203.54 80.5604" stroke="#F9EDDD" stroke-width="0.55" stroke-miterlimit="10"/>
</g>
<g style="mix-blend-mode:multiply" opacity="0.97">
<path d="M135.23 81.3896L203 82.9996" stroke="#F9EDDD" stroke-width="0.55" stroke-miterlimit="10"/>
</g>
<g style="mix-blend-mode:multiply" opacity="0.97">
<path d="M134.44 83.8799L201.78 85.4399" stroke="#F9EDDD" stroke-width="0.55" stroke-miterlimit="10"/>
</g>
<g style="mix-blend-mode:multiply" opacity="0.97">
<path d="M133.64 86.3701L200.91 87.8701" stroke="#F9EDDD" stroke-width="0.55" stroke-miterlimit="10"/>
</g>
<g style="mix-blend-mode:multiply" opacity="0.97">
<path d="M131.19 88.8604L198.94 90.3204" stroke="#F9EDDD" stroke-width="0.55" stroke-miterlimit="10"/>
</g>
<g style="mix-blend-mode:multiply" opacity="0.97">
<path d="M130.95 91.3496L196.41 92.7596" stroke="#F9EDDD" stroke-width="0.55" stroke-miterlimit="10"/>
</g>
<g style="mix-blend-mode:multiply" opacity="0.83">
<path d="M204.21 68.3704C203.29 66.8004 202.05 65.5004 200.59 64.5104C200.4 64.3704 200.21 64.2304 200 64.1104C198.13 62.9304 195.95 62.3304 193.74 62.2604L128.07 60.1504V61.8104L189.36 63.5904C191.64 63.6604 193.92 63.8604 196.17 64.1904C198.79 64.5804 201.17 66.0504 202.52 68.3304C202.52 68.3404 202.54 68.3604 202.55 68.3704C205.93 74.1504 208.85 83.1504 201.34 91.0604C199.27 93.2404 196.48 94.1404 193.52 94.2804L194.94 94.3204C197.93 94.4004 200.86 93.2804 202.93 91.1204C210.51 83.2004 207.58 74.1604 204.2 68.3704H204.21Z" fill="#66A09C"/>
</g>
<g style="mix-blend-mode:multiply" opacity="0.5">
<path d="M200.87 69.2608C210.25 71.5008 215.84 80.9308 215.84 80.9308L300.99 54.0308L268.66 52.5508C268.66 52.5508 184.41 65.3308 200.87 69.2608Z" fill="#66A09C"/>
</g>
<path d="M131.64 41.4697L113.48 45.9497C113.48 45.9497 119.16 50.9697 116.65 63.5197L211.93 75.1097L224.97 65.5797L222.72 48.8397C222.72 48.8397 219.52 42.7497 217.98 42.9797C216.44 43.2097 131.65 41.4697 131.65 41.4697H131.64Z" fill="#F3C7A1"/>
<g style="mix-blend-mode:multiply" opacity="0.38">
<path d="M116.39 49.4802L201.18 56.5202C209.21 57.1902 214.94 64.8902 212.9 72.6902C212.84 72.9302 212.77 73.1602 212.7 73.4002L218.18 72.8202L222.7 64.3402L217.41 46.2102L206.94 47.7602L152.19 46.2302L113.49 45.9502L116.4 49.4802H116.39Z" fill="#F3C7A1"/>
</g>
<path d="M209.18 47.4203L212.59 53.7803L111.38 46.5503L110.57 44.5703L210.79 47.7103" fill="#EDB74A"/>
<path d="M222.49 70.1503L213.25 73.3603L114.67 61.8203L115.05 64.3903L211.93 75.1103L223.67 71.0203" fill="#EDB74A"/>
<g style="mix-blend-mode:multiply" opacity="0.59">
<path d="M209.18 47.4203L212.59 53.7803L111.38 46.5503L110.57 44.5703L210.79 47.7103" fill="#EDB74A"/>
</g>
<g style="mix-blend-mode:multiply" opacity="0.59">
<path d="M222.49 70.1503L213.25 73.3603L114.67 61.8203L115.05 64.3903L211.93 75.1103L223.67 71.0203" fill="#EDB74A"/>
</g>
<path d="M230.02 60.6402L210.59 51.6802L110.57 44.5702L215.61 19.7002L315.19 27.4002L296.06 38.3502L230.02 60.6402Z" fill="#EDB74A"/>
<path d="M210.59 51.6804C210.59 51.6804 221.73 63.1704 211.93 75.1104L317.41 49.6504C317.41 49.6504 329.63 36.3004 315.19 27.4004L210.59 51.6804Z" fill="#EDB74A"/>
<path d="M210.59 51.6804C210.59 51.6804 221.73 63.1704 211.93 75.1104L317.41 49.6504C317.41 49.6504 329.63 36.3004 315.19 27.4004L210.59 51.6804Z" fill="#EDB74A"/>
<g style="mix-blend-mode:multiply">
<g style="mix-blend-mode:multiply" opacity="0.11">
<path d="M215.58 50.5195C216.21 51.0295 235.62 66.4595 270.33 61.0195L211.93 75.1095C221.73 63.1695 210.59 51.6795 210.59 51.6795L215.58 50.5195Z" fill="#EDB74A"/>
</g>
<g style="mix-blend-mode:multiply" opacity="0.11">
<path d="M321.25 43.2598C319.84 46.9898 317.41 49.6498 317.41 49.6498L290.15 56.2298C304.21 51.9798 314.3 47.2598 321.25 43.2598Z" fill="#EDB74A"/>
</g>
</g>
<g style="mix-blend-mode:multiply" opacity="0.59">
<path d="M210.59 51.6804C210.59 51.6804 221.73 63.1704 211.93 75.1104L317.41 49.6504C317.41 49.6504 329.63 36.3004 315.19 27.4004L210.59 51.6804Z" fill="#EDB74A"/>
</g>
<g style="mix-blend-mode:multiply" opacity="0.97">
<path d="M211.71 55.7101L117.19 48.5801" stroke="#F9EDDD" stroke-width="0.26" stroke-miterlimit="10"/>
</g>
<g style="mix-blend-mode:multiply" opacity="0.97">
<path d="M211.65 57.9004L117.38 50.3604" stroke="#F9EDDD" stroke-width="0.26" stroke-miterlimit="10"/>
</g>
<g style="mix-blend-mode:multiply" opacity="0.97">
<path d="M211.6 60.0799L117.56 52.1299" stroke="#F9EDDD" stroke-width="0.26" stroke-miterlimit="10"/>
</g>
<g style="mix-blend-mode:multiply" opacity="0.97">
<path d="M211.54 62.2604L117.75 53.9004" stroke="#F9EDDD" stroke-width="0.26" stroke-miterlimit="10"/>
</g>
<g style="mix-blend-mode:multiply" opacity="0.97">
<path d="M211.49 64.4499L117.93 55.6699" stroke="#F9EDDD" stroke-width="0.26" stroke-miterlimit="10"/>
</g>
<g style="mix-blend-mode:multiply" opacity="0.97">
<path d="M211.43 66.6302L118.12 57.4502" stroke="#F9EDDD" stroke-width="0.26" stroke-miterlimit="10"/>
</g>
<g style="mix-blend-mode:multiply" opacity="0.97">
<path d="M211.38 68.8097L118.31 59.2197" stroke="#F9EDDD" stroke-width="0.26" stroke-miterlimit="10"/>
</g>
<g style="mix-blend-mode:multiply" opacity="0.97">
<path d="M211.32 71.0002L118.49 60.9902" stroke="#F9EDDD" stroke-width="0.26" stroke-miterlimit="10"/>
</g>
<g style="mix-blend-mode:multiply" opacity="0.59">
<path d="M191.27 43.5607L285.44 25.6507L269.89 23.4307L191.27 43.5607Z" fill="#EDB74A"/>
</g>
<path d="M128.4 25.5104L113.82 25.6804C113.82 25.6804 118.25 31.6904 115.94 39.4204L191.26 43.5704L201.85 37.3604L200.48 27.2204C200.48 27.2204 198.1 23.6004 196.87 23.7904C195.64 23.9804 128.39 25.5104 128.39 25.5104H128.4Z" fill="#F9EDDD"/>
<g style="mix-blend-mode:multiply" opacity="0.38">
<path d="M121.29 24.3604L114.52 26.4704L186.4 31.9404C187.87 32.0504 188.93 33.4504 188.57 34.8804C188.06 36.8804 186 39.3404 179.23 40.0404L150.3 40.3904L192.6 43.1404L200.97 33.9304L200.82 26.1704L180.53 26.1104L121.29 24.3604Z" fill="#F3C7A1"/>
</g>
<path d="M189.78 26.7599L192.33 30.5399L112.15 26.0999L111.55 24.9199L191.06 26.8899" fill="#AF5099"/>
<path d="M199.77 40.2107L192.36 42.4607L114.42 38.4307L114.66 39.9907L191.27 43.5607L200.69 40.7107" fill="#AF5099"/>
<g style="mix-blend-mode:multiply" opacity="0.4">
<path d="M189.78 26.7599L192.33 30.5399L112.15 26.0999L111.55 24.9199L191.06 26.8899" fill="#AF5099"/>
</g>
<g style="mix-blend-mode:multiply" opacity="0.4">
<path d="M199.77 40.2107L192.36 42.4607L114.42 38.4307L114.66 39.9907L191.27 43.5607L200.69 40.7107" fill="#AF5099"/>
</g>
<path d="M205.99 34.1903L190.8 29.3103L111.55 24.9203L202.63 10.0303L274.42 11.3103L258.96 18.5703L205.99 34.1903Z" fill="#AF5099"/>
<path d="M190.8 29.3105C190.8 29.3105 199.35 35.9805 191.27 43.5605L275.62 24.8105C275.62 24.8105 285.65 16.3005 274.42 11.3105L190.79 29.3105H190.8Z" fill="#AF5099"/>
<path d="M190.8 29.3105C190.8 29.3105 199.35 35.9805 191.27 43.5605L275.62 24.8105C275.62 24.8105 285.65 16.3005 274.42 11.3105L190.79 29.3105H190.8Z" fill="#AF5099"/>
<g style="mix-blend-mode:multiply">
<g style="mix-blend-mode:multiply" opacity="0.11">
<path d="M194.79 28.4502C195.28 28.7402 210.29 37.5602 237.97 33.1802L191.27 43.5602C199.35 35.9802 190.8 29.3102 190.8 29.3102L194.79 28.4502Z" fill="#AF5099"/>
</g>
<g style="mix-blend-mode:multiply" opacity="0.11">
<path d="M278.83 20.7998C277.61 23.1198 275.62 24.8198 275.62 24.8198L253.82 29.6698C265.09 26.6498 273.21 23.4598 278.83 20.8098V20.7998Z" fill="#AF5099"/>
</g>
</g>
<g style="mix-blend-mode:multiply" opacity="0.4">
<path d="M190.8 29.3105C190.8 29.3105 199.35 35.9805 191.27 43.5605L275.62 24.8105C275.62 24.8105 285.65 16.3005 274.42 11.3105L190.79 29.3105H190.8Z" fill="#AF5099"/>
</g>
<g style="mix-blend-mode:multiply" opacity="0.97">
<path d="M115.88 27.3105L191.3 31.7805" stroke="#F9EDDD" stroke-width="0.26" stroke-miterlimit="10"/>
</g>
<g style="mix-blend-mode:multiply" opacity="0.97">
<path d="M116.08 28.4609L191.32 32.8809" stroke="#F9EDDD" stroke-width="0.26" stroke-miterlimit="10"/>
</g>
<g style="mix-blend-mode:multiply" opacity="0.97">
<path d="M116.27 29.6104L191.33 33.9704" stroke="#F9EDDD" stroke-width="0.26" stroke-miterlimit="10"/>
</g>
<g style="mix-blend-mode:multiply" opacity="0.97">
<path d="M116.46 30.7607L191.35 35.0707" stroke="#F9EDDD" stroke-width="0.26" stroke-miterlimit="10"/>
</g>
<g style="mix-blend-mode:multiply" opacity="0.97">
<path d="M116.65 31.9102L191.37 36.1702" stroke="#F9EDDD" stroke-width="0.26" stroke-miterlimit="10"/>
</g>
<g style="mix-blend-mode:multiply" opacity="0.97">
<path d="M116.84 33.0605L191.39 37.2605" stroke="#F9EDDD" stroke-width="0.26" stroke-miterlimit="10"/>
</g>
<g style="mix-blend-mode:multiply" opacity="0.97">
<path d="M117.04 34.2207L191.41 38.3607" stroke="#F9EDDD" stroke-width="0.26" stroke-miterlimit="10"/>
</g>
<g style="mix-blend-mode:multiply" opacity="0.97">
<path d="M117.23 35.3701L191.42 39.4601" stroke="#F9EDDD" stroke-width="0.26" stroke-miterlimit="10"/>
</g>
<g style="mix-blend-mode:multiply" opacity="0.97">
<path d="M117.42 36.5205L191.44 40.5505" stroke="#F9EDDD" stroke-width="0.26" stroke-miterlimit="10"/>
</g>
<g style="mix-blend-mode:multiply" opacity="0.97">
<path d="M117.61 37.6709L191.46 41.6509" stroke="#F9EDDD" stroke-width="0.26" stroke-miterlimit="10"/>
</g>
<g style="mix-blend-mode:multiply">
<path d="M236.75 80.9395L245.94 114.709L259.44 129.899L265.63 155.779L278.57 167.029L299.17 194.169L324.78 138.899L326.47 88.8295L236.75 80.9395Z" fill="#B1CBDB"/>
</g>
<path d="M421.79 214.059L318.93 197.679L306.36 195.179L394.73 152.189L490.84 182.569L514.89 183.889L452.17 221.239L421.79 214.059Z" fill="#F3C7A1"/>
<path d="M305.8 198.04C305.8 198.04 314.09 193.07 326.24 193.62C338.39 194.17 451.63 219.03 451.63 219.03L514.6 183.68C514.6 183.68 519.17 190.46 519.37 194.8L454.94 230.63L305.8 198.04Z" fill="#F9EDDD"/>
<path d="M305.8 198.04C305.8 198.04 303.04 192.52 326.24 193.62C338.39 194.2 452.18 220.13 452.18 220.13L514.6 183.67C514.6 183.67 519.17 190.45 519.37 194.79L454.94 230.62L305.8 198.03V198.04Z" fill="#F9EDDD"/>
<path opacity="0.55" d="M305.8 198.04C305.8 198.04 303.04 193.62 323.48 193.62C335.64 193.62 451.63 219.03 451.63 219.03L514.6 183.68C514.6 183.68 519.17 190.46 519.37 194.8L454.94 230.63L305.8 198.04Z" fill="#F3C7A1"/>
<g style="mix-blend-mode:multiply" opacity="0.55">
<path d="M490.84 182.569L504.63 183.369L449.97 212.399C449.97 212.399 393.23 189.639 342.89 190.519L490.85 182.569H490.84Z" fill="#F3C7A1"/>
</g>
<path d="M259.95 98.61L245.04 84.25L348.88 62.71C348.88 62.71 386.99 74.86 393.62 147.77L304.84 197.06C304.84 197.06 269.89 108 259.95 98.61Z" fill="#F9EDDD"/>
<path d="M242.83 84.25H251.12C251.12 84.25 293.65 111.87 305.8 198.04L303.15 196.43L299.56 191.02L242.83 84.25Z" fill="#F9EDDD"/>
<path d="M257.19 77.0697C257.19 77.0697 307.47 123.82 306.36 195.18L393.63 147.78C393.63 147.78 394.18 86.4697 348.89 54.4297L257.2 77.0797L257.19 77.0697Z" fill="#F9EDDD"/>
<path opacity="0.26" d="M257.19 77.0697C257.19 77.0697 307.47 123.82 306.36 195.18L393.63 147.78C393.63 147.78 394.18 86.4697 348.89 54.4297L257.2 77.0797L257.19 77.0697Z" fill="#F3C7A1"/>
<path opacity="0.23" d="M242.83 84.2494L251.12 83.1494C251.12 83.1494 289.23 104.139 305.8 198.039L303.15 196.429L299.56 191.019L242.83 84.2494Z" fill="#F3C7A1"/>
<path d="M520.67 196.38L454.94 232.84L312.43 200.8C312.43 200.8 300.83 204.11 299.17 194.17L236.75 80.9397L242.83 80.3896L301.93 190.31C301.93 190.31 300.85 194.19 303.14 196.43C304.52 197.77 307.1 198.52 311.87 197.49L455.48 228.42L519.55 192.52L520.65 196.39L520.67 196.38Z" fill="#66A09C"/>
<path d="M517.91 174.84L449.97 206.32C449.97 206.32 400.44 191.66 363.34 190.15C326.24 188.64 306.36 195.17 306.36 195.17L383.07 153.98C383.07 153.98 496.37 140.03 517.91 174.83V174.84Z" fill="#F9EDDD"/>
<path opacity="0.55" d="M517.91 174.84L449.97 206.32C449.97 206.32 400.44 191.66 363.34 190.15C326.24 188.64 306.36 195.17 306.36 195.17L383.07 153.98C383.07 153.98 496.37 140.03 517.91 174.83V174.84Z" fill="#F3C7A1"/>
<g style="mix-blend-mode:multiply" opacity="0.55">
<path d="M426.21 177.05L331.39 188.22C331.39 188.22 394.73 179.81 453.83 199.15L506.36 164.43L487.46 155.68L426.21 177.06V177.05Z" fill="#F3C7A1"/>
</g>
<path d="M516.8 150.539L452.73 193.619C452.73 193.619 423.48 186.089 395.84 184.229C338.39 180.359 304.7 196.379 304.7 196.379L393.63 147.769C393.63 147.769 477.04 116.289 516.81 150.529L516.8 150.539Z" fill="#F9EDDD"/>
<path d="M251.36 85.9893C251.36 85.9893 286.74 113.259 302.17 187.329" stroke="#F3C7A1" stroke-width="0.55" stroke-miterlimit="10"/>
<path d="M250.38 86.2988C250.38 86.2988 289.9 130.739 301.47 186.299" stroke="#F3C7A1" stroke-width="0.55" stroke-miterlimit="10"/>
<path d="M249.39 86.6191C249.39 86.6191 293.05 148.239 300.77 185.279" stroke="#F3C7A1" stroke-width="0.55" stroke-miterlimit="10"/>
<path d="M248.4 86.9395C248.4 86.9395 296.2 165.739 300.06 184.259" stroke="#F3C7A1" stroke-width="0.55" stroke-miterlimit="10"/>
<path d="M247.41 87.2588L299.35 183.229" stroke="#F3C7A1" stroke-width="0.55" stroke-miterlimit="10"/>
<path d="M312.76 195.48L320.1 195.06C324.12 194.83 328.16 195.13 332.11 195.96L452.18 221.24L514.87 186.16" stroke="#F3C7A1" stroke-width="0.55" stroke-miterlimit="10"/>
<path d="M312.7 196.109L324.85 198.319L455.77 227.039L517.63 191.689" stroke="#F3C7A1" stroke-width="0.55" stroke-miterlimit="10"/>
<path d="M321.76 196.72C325.78 196.49 329.82 196.79 333.77 197.62L453.84 224.55L516.53 189.47" stroke="#F3C7A1" stroke-width="0.55" stroke-miterlimit="10"/>
<path d="M392.13 150.8C392.13 150.8 456.31 127.06 499.95 150.26" stroke="#F3C7A1" stroke-width="0.55" stroke-miterlimit="10"/>
<path d="M380.22 157.319C380.22 157.319 446.04 133.579 489.68 156.779" stroke="#F3C7A1" stroke-width="0.55" stroke-miterlimit="10"/>
<path d="M368.32 163.84C368.32 163.84 435.77 140.1 479.41 163.3" stroke="#F3C7A1" stroke-width="0.55" stroke-miterlimit="10"/>
<path d="M356.41 170.36C356.41 170.36 425.5 146.61 469.14 169.81" stroke="#F3C7A1" stroke-width="0.55" stroke-miterlimit="10"/>
<path d="M344.5 176.88C344.5 176.88 415.22 153.13 458.86 176.33" stroke="#F3C7A1" stroke-width="0.55" stroke-miterlimit="10"/>
<path d="M332.59 183.4C332.59 183.4 404.95 159.65 448.59 182.85" stroke="#F3C7A1" stroke-width="0.55" stroke-miterlimit="10"/>
<path d="M346.95 61.3301C346.95 61.3301 385.06 88.4001 385.62 144.74" stroke="#F3C7A1" stroke-width="0.55" stroke-miterlimit="10"/>
<path d="M338.91 63.79C338.91 63.79 376.96 91.41 377.45 149.1" stroke="#F3C7A1" stroke-width="0.55" stroke-miterlimit="10"/>
<path d="M330.87 66.2402C330.87 66.2402 368.86 94.4102 369.29 153.45" stroke="#F3C7A1" stroke-width="0.55" stroke-miterlimit="10"/>
<path d="M322.83 68.6904C322.83 68.6904 360.76 97.4104 361.13 157.8" stroke="#F3C7A1" stroke-width="0.55" stroke-miterlimit="10"/>
<path d="M314.79 71.1504C314.79 71.1504 352.66 100.43 352.96 162.17" stroke="#F3C7A1" stroke-width="0.55" stroke-miterlimit="10"/>
<path d="M306.75 73.5996C306.75 73.5996 344.56 103.43 344.8 166.52" stroke="#F3C7A1" stroke-width="0.55" stroke-miterlimit="10"/>
<path d="M298.71 76.0605C298.71 76.0605 336.45 106.441 336.64 170.881" stroke="#F3C7A1" stroke-width="0.55" stroke-miterlimit="10"/>
<path d="M290.67 78.5098C290.67 78.5098 328.35 109.44 328.48 175.24" stroke="#F3C7A1" stroke-width="0.55" stroke-miterlimit="10"/>
<path d="M282.63 80.9697C282.63 80.9697 320.25 112.45 320.31 179.6" stroke="#F3C7A1" stroke-width="0.55" stroke-miterlimit="10"/>
<path d="M274.59 83.4199C274.59 83.4199 312.15 115.46 312.15 183.95" stroke="#F3C7A1" stroke-width="0.55" stroke-miterlimit="10"/>
<g style="mix-blend-mode:multiply" opacity="0.39">
<path d="M266.44 16.7598L268.87 22.2598C268.87 22.2598 218.76 26.0298 205.31 25.6498C191.87 25.2598 227.87 16.2598 227.87 16.2598L266.44 16.7598Z" fill="#3D6EBE"/>
</g>
<path d="M212.54 21.6904L206.87 25.2904L205.31 25.6504L162.08 25.5704L162.05 24.3004L175.33 24.6804L206.97 23.4804L212.54 21.6904Z" fill="#DA6A2C"/>
<g style="mix-blend-mode:multiply" opacity="0.99">
<path d="M212.54 21.6904L206.87 25.2904L205.31 25.6504L162.08 25.5704L162.05 24.3004L175.33 24.6804L206.97 23.4804L212.54 21.6904Z" fill="#DA6A2C"/>
</g>
<path d="M264.82 8.87L264.02 0.62L231.9 0L164.47 5.65L177.19 13.82" fill="#DA6A2C"/>
<path d="M201.13 18.7398L201.97 6.47984L262.29 0.439841C266.26 0.0398409 270.02 2.31984 271.48 6.02984C271.91 7.12984 272.24 8.32984 272.33 9.56984C272.71 14.3498 269.13 18.5298 264.36 19.0298L204.98 25.6498L199.83 17.8098" fill="#DA6A2C"/>
<g style="mix-blend-mode:multiply" opacity="0.54">
<path d="M201.13 18.7398L201.97 6.47984L262.29 0.439841C266.26 0.0398409 270.02 2.31984 271.48 6.02984C271.91 7.12984 272.24 8.32984 272.33 9.56984C272.71 14.3498 269.13 18.5298 264.36 19.0298L204.98 25.6498L199.83 17.8098" fill="#DA6A2C"/>
</g>
<path d="M165.43 6.26953L201.65 6.48953C204.14 6.43953 206.48 7.69953 207.78 9.82953C209.78 13.1195 211.54 18.2695 207.3 22.8895C205.95 24.3595 204.04 24.8595 202.05 24.8395L163.26 24.4295C163.26 24.4295 172.65 16.9295 165.44 6.26953H165.43Z" fill="#F9EDDD"/>
<g style="mix-blend-mode:multiply" opacity="0.97">
<path d="M207.78 9.82953C206.49 7.69953 204.14 6.43953 201.65 6.48953L165.43 6.26953C166.04 7.16953 166.53 8.04953 166.92 8.89953L198.53 9.08953C201.02 9.03953 203.36 10.2995 204.66 12.4295C206.5 15.4495 208.13 20.0495 205.1 24.3495C205.93 24.0395 206.68 23.5695 207.31 22.8795C211.55 18.2595 209.79 13.1095 207.79 9.81953L207.78 9.82953Z" fill="#F9EDDD"/>
</g>
<path d="M208.1 9.81977C206.81 7.68976 204.46 6.42977 201.97 6.47977L165.75 6.25977C165.75 6.25977 165.76 6.27977 165.77 6.28977L201.02 6.50977C203.51 6.45977 205.85 7.71977 207.15 9.84977C209.15 13.1398 210.91 18.2898 206.67 22.9098C205.5 24.1798 203.9 24.7298 202.2 24.8398H202.37C204.36 24.8598 206.28 24.3598 207.62 22.8898C211.86 18.2698 210.1 13.1198 208.1 9.82977V9.81977Z" fill="#DA6A2C"/>
<g style="mix-blend-mode:multiply" opacity="0.23">
<path d="M272.34 9.57961C272.24 8.32961 271.92 7.13961 271.49 6.03961C270.03 2.32961 266.27 0.0496066 262.3 0.449607L201.98 6.49961C201.98 6.49961 238.34 3.69961 249.59 9.82961C255.04 12.7996 258.33 16.4796 260.29 19.4896L264.38 19.0496C269.14 18.5396 272.73 14.3596 272.35 9.58961L272.34 9.57961Z" fill="#DA6A2C"/>
</g>
<path d="M164.22 5.82031L203.33 6.43031C203.33 6.43031 205.41 7.00031 206.47 8.04031L204.69 7.64031C203.59 7.39031 202.47 7.26031 201.34 7.25031L164.24 6.78031L164.22 5.83031V5.82031Z" fill="#DA6A2C"/>
<path d="M208.1 9.8198C207.56 8.9298 206.83 8.1898 205.98 7.6298C205.87 7.5498 205.76 7.4798 205.64 7.3998C204.55 6.7398 203.29 6.4098 202.02 6.3898L164.22 5.7998L164.24 6.7498L199.52 7.1898C200.83 7.2098 202.14 7.2998 203.44 7.4698C204.95 7.6698 206.34 8.4898 207.13 9.7898C207.13 9.7898 207.14 9.8098 207.15 9.8098C209.15 13.0998 210.91 18.2498 206.67 22.8698C205.5 24.1398 203.9 24.6898 202.2 24.7998H203.02C204.74 24.8298 206.42 24.1498 207.59 22.8898C211.88 18.2598 210.11 13.0898 208.1 9.7898V9.8198Z" fill="#DA6A2C"/>
<g style="mix-blend-mode:multiply" opacity="0.97">
<path d="M167.44 7.98047L204.33 8.50047" stroke="#F9EDDD" stroke-width="0.32" stroke-miterlimit="10"/>
</g>
<g style="mix-blend-mode:multiply" opacity="0.97">
<path d="M168.28 9.39062L205.47 9.88062" stroke="#F9EDDD" stroke-width="0.32" stroke-miterlimit="10"/>
</g>
<g style="mix-blend-mode:multiply" opacity="0.97">
<path d="M168.48 10.8203L206.77 11.2603" stroke="#F9EDDD" stroke-width="0.32" stroke-miterlimit="10"/>
</g>
<g style="mix-blend-mode:multiply" opacity="0.97">
<path d="M169 12.2402L207.43 12.6502" stroke="#F9EDDD" stroke-width="0.32" stroke-miterlimit="10"/>
</g>
<g style="mix-blend-mode:multiply" opacity="0.97">
<path d="M169.2 13.6602L207.46 14.0502" stroke="#F9EDDD" stroke-width="0.32" stroke-miterlimit="10"/>
</g>
<g style="mix-blend-mode:multiply" opacity="0.97">
<path d="M169.09 15.1006L207.81 15.4406" stroke="#F9EDDD" stroke-width="0.32" stroke-miterlimit="10"/>
</g>
<g style="mix-blend-mode:multiply" opacity="0.97">
<path d="M168.66 16.54L207.83 16.84" stroke="#F9EDDD" stroke-width="0.32" stroke-miterlimit="10"/>
</g>
<g style="mix-blend-mode:multiply" opacity="0.97">
<path d="M168.54 17.9707L207.54 18.2507" stroke="#F9EDDD" stroke-width="0.32" stroke-miterlimit="10"/>
</g>
<g style="mix-blend-mode:multiply" opacity="0.97">
<path d="M168.11 19.4102L206.87 19.6702" stroke="#F9EDDD" stroke-width="0.32" stroke-miterlimit="10"/>
</g>
<g style="mix-blend-mode:multiply" opacity="0.97">
<path d="M167.67 20.8506L206.39 21.0806" stroke="#F9EDDD" stroke-width="0.32" stroke-miterlimit="10"/>
</g>
<g style="mix-blend-mode:multiply" opacity="0.97">
<path d="M166.29 22.3105L205.28 22.5005" stroke="#F9EDDD" stroke-width="0.32" stroke-miterlimit="10"/>
</g>
<g style="mix-blend-mode:multiply" opacity="0.97">
<path d="M166.17 23.7402L203.84 23.9302" stroke="#F9EDDD" stroke-width="0.32" stroke-miterlimit="10"/>
</g>
<g style="mix-blend-mode:multiply" opacity="0.99">
<path d="M208.1 9.8198C207.56 8.9298 206.83 8.1898 205.98 7.6298C205.87 7.5498 205.76 7.4798 205.64 7.3998C204.55 6.7398 203.29 6.4098 202.02 6.3898L164.22 5.7998L164.24 6.7498L199.52 7.1898C200.83 7.2098 202.14 7.2998 203.44 7.4698C204.95 7.6698 206.34 8.4898 207.13 9.7898C207.13 9.7898 207.14 9.8098 207.15 9.8098C209.15 13.0998 210.91 18.2498 206.67 22.8698C205.5 24.1398 203.9 24.6898 202.2 24.7998H203.02C204.74 24.8298 206.42 24.1498 207.59 22.8898C211.88 18.2598 210.11 13.0898 208.1 9.7898V9.8198Z" fill="#DA6A2C"/>
</g>
<g style="mix-blend-mode:multiply">
<path d="M348.08 232.35L344.02 233.86L277.24 258.66L393.1 232.35L356.75 223.75" fill="#B1CBDB"/>
</g>
<path d="M213.05 232.74L198.09 232.64C198.09 232.64 202.53 240.89 200.04 251.34L277.24 258.66L288.21 250.47L286.98 236.67C286.98 236.67 284.6 231.71 283.33 231.93C282.07 232.15 213.05 232.74 213.05 232.74Z" fill="#F9EDDD"/>
<g style="mix-blend-mode:multiply" opacity="0.38">
<path d="M205.78 231.029L198.8 233.739L272.45 242.769C273.96 242.949 275.02 244.879 274.62 246.809C274.06 249.509 271.91 252.809 264.95 253.609L235.27 253.439L278.62 258.119L287.36 245.809L287.33 235.269L266.52 234.729L205.78 231.039V231.029Z" fill="#F3C7A1"/>
</g>
<path d="M276 235.819L278.55 240.999L196.36 233.189L195.77 231.569L277.31 236.019" fill="#3D6EBE"/>
<path d="M286.02 254.309L278.38 257.179L198.49 249.979L198.71 252.1L277.24 258.66L286.95 254.999" fill="#3D6EBE"/>
<g style="mix-blend-mode:multiply" opacity="0.39">
<path d="M276 235.819L278.55 240.999L196.36 233.189L195.77 231.569L277.31 236.019" fill="#3D6EBE"/>
</g>
<g style="mix-blend-mode:multiply" opacity="0.39">
<path d="M286.02 254.309L278.38 257.179L198.49 249.979L198.71 252.1L277.24 258.66L286.95 254.999" fill="#3D6EBE"/>
</g>
<path d="M292.5 246.26L277 239.31L195.77 231.57L289.46 213.39L363.09 216.73L347.11 226.24L292.5 246.26Z" fill="#3D6EBE"/>
<path d="M277 239.309C277 239.309 285.66 248.549 277.24 258.669L364.09 235.099C364.09 235.099 374.53 223.769 363.09 216.739L276.99 239.319L277 239.309Z" fill="#3D6EBE"/>
<path d="M277 239.309C277 239.309 285.66 248.549 277.24 258.669L364.09 235.099C364.09 235.099 374.53 223.769 363.09 216.739L276.99 239.319L277 239.309Z" fill="#3D6EBE"/>
<g style="mix-blend-mode:multiply" opacity="0.11">
<path d="M281.11 238.23C281.61 238.64 296.86 250.94 325.33 245.61L277.24 258.66C285.66 248.55 277 239.3 277 239.3L281.11 238.22V238.23Z" fill="#3D6EBE"/>
</g>
<g style="mix-blend-mode:multiply" opacity="0.11">
<path d="M367.46 229.71C366.17 232.83 364.1 235.09 364.1 235.09L341.65 241.18C353.26 237.33 361.65 233.19 367.46 229.71Z" fill="#3D6EBE"/>
</g>
<g style="mix-blend-mode:multiply" opacity="0.39">
<path d="M277 239.309C277 239.309 285.66 248.549 277.24 258.669L364.09 235.099C364.09 235.099 374.53 223.769 363.09 216.739L276.99 239.319L277 239.309Z" fill="#3D6EBE"/>
</g>
<path d="M283.12 238.68C283.12 238.68 290.25 246 284.2 255.94" stroke="#B1CBDB" stroke-width="0.96" stroke-miterlimit="10" stroke-linecap="round"/>
<path d="M359.76 218.569C359.76 218.569 366.89 225.889 360.84 235.829" stroke="#B1CBDB" stroke-width="0.96" stroke-miterlimit="10" stroke-linecap="round"/>
<g style="mix-blend-mode:multiply" opacity="0.97">
<path d="M200.18 234.909L277.47 242.669" stroke="#F9EDDD" stroke-width="0.31" stroke-miterlimit="10"/>
</g>
<g style="mix-blend-mode:multiply" opacity="0.97">
<path d="M200.36 236.479L277.47 244.16" stroke="#F9EDDD" stroke-width="0.31" stroke-miterlimit="10"/>
</g>
<g style="mix-blend-mode:multiply" opacity="0.97">
<path d="M200.53 238.039L277.47 245.649" stroke="#F9EDDD" stroke-width="0.31" stroke-miterlimit="10"/>
</g>
<g style="mix-blend-mode:multiply" opacity="0.97">
<path d="M200.71 239.609L277.47 247.139" stroke="#F9EDDD" stroke-width="0.31" stroke-miterlimit="10"/>
</g>
<g style="mix-blend-mode:multiply" opacity="0.97">
<path d="M200.89 241.179L277.47 248.629" stroke="#F9EDDD" stroke-width="0.31" stroke-miterlimit="10"/>
</g>
<g style="mix-blend-mode:multiply" opacity="0.97">
<path d="M201.07 242.749L277.47 250.119" stroke="#F9EDDD" stroke-width="0.31" stroke-miterlimit="10"/>
</g>
<g style="mix-blend-mode:multiply" opacity="0.97">
<path d="M201.24 244.319L277.47 251.599" stroke="#F9EDDD" stroke-width="0.31" stroke-miterlimit="10"/>
</g>
<g style="mix-blend-mode:multiply" opacity="0.97">
<path d="M201.42 245.879L277.47 253.089" stroke="#F9EDDD" stroke-width="0.31" stroke-miterlimit="10"/>
</g>
<g style="mix-blend-mode:multiply" opacity="0.97">
<path d="M201.6 247.449L277.47 254.579" stroke="#F9EDDD" stroke-width="0.31" stroke-miterlimit="10"/>
</g>
<g style="mix-blend-mode:multiply" opacity="0.97">
<path d="M201.78 249.02L277.47 256.07" stroke="#F9EDDD" stroke-width="0.31" stroke-miterlimit="10"/>
</g>
</svg>
