<svg width="90" height="71" viewBox="0 0 90 71" fill="none" xmlns="http://www.w3.org/2000/svg">
<path fill-rule="evenodd" clip-rule="evenodd" d="M78.8608 5.54945C78.8608 2.48457 76.3389 0 73.2279 0H5.63309C2.52213 0 0.000190735 2.48457 0.000190735 5.54945V49.9451C0.000190735 53.01 2.52213 55.4945 5.63309 55.4945H73.2279C76.3389 55.4945 78.8608 53.01 78.8608 49.9451V5.54945ZM5.63309 5.54945H73.2279V49.9451H5.63309V5.54945Z" fill="#DC5142"/>
<path fill-rule="evenodd" clip-rule="evenodd" d="M28.1647 41.6209C28.1647 40.0885 26.9037 38.8462 25.3483 38.8462H14.0825C12.527 38.8462 11.266 40.0885 11.266 41.6209C11.266 43.1533 12.527 44.3956 14.0825 44.3956H25.3483C26.9037 44.3956 28.1647 43.1533 28.1647 41.6209Z" fill="#DC5142"/>
<path fill-rule="evenodd" clip-rule="evenodd" d="M45.0634 41.6209C45.0634 40.0885 43.8025 38.8462 42.247 38.8462H36.6141C35.0586 38.8462 33.7976 40.0885 33.7976 41.6209C33.7976 43.1533 35.0586 44.3956 36.6141 44.3956H42.247C43.8025 44.3956 45.0634 43.1533 45.0634 41.6209Z" fill="#DC5142"/>
<path fill-rule="evenodd" clip-rule="evenodd" d="M78.8608 16.9607C78.8608 15.4282 77.5999 14.1859 76.0444 14.1859H2.81664C1.26116 14.1859 0.000190735 15.4282 0.000190735 16.9607C0.000190735 18.4931 1.26116 19.7354 2.81664 19.7354H76.0444C77.5999 19.7354 78.8608 18.4931 78.8608 16.9607Z" fill="#DC5142"/>
<circle cx="69.3681" cy="50.3842" r="16.7944" fill="white"/>
<path fill-rule="evenodd" clip-rule="evenodd" d="M70.0983 35.0477C61.2262 35.0477 54.034 42.2399 54.034 51.1119C54.034 59.9839 61.2262 67.1761 70.0983 67.1761C78.9703 67.1761 86.1625 59.9839 86.1625 51.1119C86.1625 42.2399 78.9703 35.0477 70.0983 35.0477ZM51.1133 51.1119C51.1133 40.6268 59.6131 32.127 70.0983 32.127C80.5834 32.127 89.0832 40.6268 89.0832 51.1119C89.0832 61.597 80.5834 70.0969 70.0983 70.0969C59.6131 70.0969 51.1133 61.597 51.1133 51.1119Z" fill="#DC5142"/>
<path fill-rule="evenodd" clip-rule="evenodd" d="M76.9724 44.2377C77.5427 44.8081 77.5427 45.7327 76.9724 46.303L65.2894 57.9861C64.7191 58.5564 63.7944 58.5564 63.2241 57.9861C62.6538 57.4158 62.6538 56.4911 63.2241 55.9208L74.9071 44.2377C75.4774 43.6674 76.4021 43.6674 76.9724 44.2377Z" fill="#DC5142"/>
<path fill-rule="evenodd" clip-rule="evenodd" d="M63.2241 44.2377C63.7944 43.6674 64.7191 43.6674 65.2894 44.2377L76.9724 55.9208C77.5427 56.4911 77.5427 57.4158 76.9724 57.9861C76.4021 58.5564 75.4774 58.5564 74.9071 57.9861L63.2241 46.303C62.6538 45.7327 62.6538 44.8081 63.2241 44.2377Z" fill="#DC5142"/>
</svg>
