<svg width="92" height="73" viewBox="0 0 92 73" fill="none" xmlns="http://www.w3.org/2000/svg">
<path fill-rule="evenodd" clip-rule="evenodd" d="M78.8604 5.54945C78.8604 2.48457 76.3384 0 73.2274 0H5.63261C2.52164 0 -0.000297546 2.48457 -0.000297546 5.54945V49.9451C-0.000297546 53.01 2.52164 55.4945 5.63261 55.4945H73.2274C76.3384 55.4945 78.8604 53.01 78.8604 49.9451V5.54945ZM5.63261 5.54945H73.2274V49.9451H5.63261V5.54945Z" fill="#009590"/>
<path fill-rule="evenodd" clip-rule="evenodd" d="M28.1642 41.6209C28.1642 40.0885 26.9032 38.8462 25.3478 38.8462H14.082C12.5265 38.8462 11.2655 40.0885 11.2655 41.6209C11.2655 43.1533 12.5265 44.3956 14.082 44.3956H25.3478C26.9032 44.3956 28.1642 43.1533 28.1642 41.6209Z" fill="#009590"/>
<path fill-rule="evenodd" clip-rule="evenodd" d="M45.0629 41.6209C45.0629 40.0885 43.802 38.8462 42.2465 38.8462H36.6136C35.0581 38.8462 33.7971 40.0885 33.7971 41.6209C33.7971 43.1533 35.0581 44.3956 36.6136 44.3956H42.2465C43.802 44.3956 45.0629 43.1533 45.0629 41.6209Z" fill="#009590"/>
<path fill-rule="evenodd" clip-rule="evenodd" d="M78.8604 16.9607C78.8604 15.4282 77.5994 14.1859 76.0439 14.1859H2.81615C1.26067 14.1859 -0.000297546 15.4282 -0.000297546 16.9607C-0.000297546 18.4931 1.26067 19.7354 2.81615 19.7354H76.0439C77.5994 19.7354 78.8604 18.4931 78.8604 16.9607Z" fill="#009590"/>
<circle cx="69.3686" cy="50.3842" r="16.7944" fill="white"/>
<path fill-rule="evenodd" clip-rule="evenodd" d="M78.5574 45.9259C79.0816 46.4753 79.0611 47.3457 78.5116 47.8699L68.4226 57.4949C67.891 58.002 67.0546 58.0017 66.5235 57.4941L61.4875 52.6816C60.9385 52.1569 60.9188 51.2865 61.4434 50.7375C61.9681 50.1885 62.8385 50.1688 63.3875 50.6934L67.4742 54.5989L76.6134 45.8801C77.1628 45.3559 78.0332 45.3764 78.5574 45.9259Z" fill="#009590"/>
<path fill-rule="evenodd" clip-rule="evenodd" d="M70 35.875C61.6467 35.875 54.875 42.6467 54.875 51C54.875 59.3533 61.6467 66.125 70 66.125C78.3533 66.125 85.125 59.3533 85.125 51C85.125 42.6467 78.3533 35.875 70 35.875ZM52.125 51C52.125 41.1279 60.1279 33.125 70 33.125C79.8721 33.125 87.875 41.1279 87.875 51C87.875 60.8721 79.8721 68.875 70 68.875C60.1279 68.875 52.125 60.8721 52.125 51Z" fill="#009590"/>
</svg>
