<svg width="18" height="18" viewBox="0 0 18 18" fill="none" xmlns="http://www.w3.org/2000/svg">
<path d="M17.2569 4.99209L13.4097 1.1457C13.1482 0.887721 12.8 0.744976 12.4345 0.750135C12.0673 0.752715 11.7225 0.8989 11.468 1.15687L1.14814 11.4776C1.01399 11.6126 0.912524 11.7699 0.84545 11.9411C0.835991 11.9634 0.828252 11.9858 0.821373 12.0081C0.774938 12.1466 0.75 12.2936 0.75 12.4441V16.2879C0.75 17.0464 1.36742 17.6638 2.12586 17.6638H5.97226C6.11501 17.6638 6.25689 17.6397 6.39104 17.5959C6.42457 17.5864 6.45811 17.5752 6.48993 17.5606C6.65589 17.4927 6.80896 17.3921 6.93708 17.2648L17.2672 6.93378C17.7995 6.39289 17.7926 5.52008 17.2561 4.99209H17.2569ZM2.41135 12.1603L9.69569 4.8803L11.1274 6.31206L3.84569 13.5947L2.41135 12.1603ZM2.12414 13.8183L4.59296 16.2871H2.12586L2.12328 13.8183H2.12414ZM6.25431 16.0024L4.81911 14.5672L12.1017 7.28462L13.5369 8.71982L6.25431 16.0024ZM14.5095 7.74726L10.67 3.90774L12.4491 2.12944L16.2844 5.97239L14.5095 7.74726Z" fill="black"/>
</svg>
