<svg width="56" height="56" viewBox="0 0 56 56" fill="none" xmlns="http://www.w3.org/2000/svg">
<path fill-rule="evenodd" clip-rule="evenodd" d="M28 4.625C15.0903 4.625 4.625 15.0903 4.625 28C4.625 40.9097 15.0903 51.375 28 51.375C40.9097 51.375 51.375 40.9097 51.375 28C51.375 15.0903 40.9097 4.625 28 4.625ZM0.375 28C0.375 12.7431 12.7431 0.375 28 0.375C43.2569 0.375 55.625 12.7431 55.625 28C55.625 43.2569 43.2569 55.625 28 55.625C12.7431 55.625 0.375 43.2569 0.375 28Z" fill="black"/>
<path fill-rule="evenodd" clip-rule="evenodd" d="M22.7473 17.6264C23.4383 17.2567 24.2767 17.2972 24.9287 17.7319L37.6787 26.2319C38.2699 26.626 38.625 27.2895 38.625 28C38.625 28.7105 38.2699 29.374 37.6787 29.7681L24.9287 38.2681C24.2767 38.7028 23.4383 38.7434 22.7473 38.3736C22.0563 38.0038 21.625 37.2837 21.625 36.5V19.5C21.625 18.7163 22.0563 17.9962 22.7473 17.6264ZM25.875 23.4706V32.5294L32.6691 28L25.875 23.4706Z" fill="black"/>
</svg>
