<svg width="20" height="20" viewBox="0 0 20 20" fill="none" xmlns="http://www.w3.org/2000/svg">
<path fill-rule="evenodd" clip-rule="evenodd" d="M10 1.75C5.44365 1.75 1.75 5.44365 1.75 10C1.75 14.5563 5.44365 18.25 10 18.25C14.5563 18.25 18.25 14.5563 18.25 10C18.25 5.44365 14.5563 1.75 10 1.75ZM0.25 10C0.25 4.61522 4.61522 0.25 10 0.25C15.3848 0.25 19.75 4.61522 19.75 10C19.75 15.3848 15.3848 19.75 10 19.75C4.61522 19.75 0.25 15.3848 0.25 10Z" fill="white"/>
<path fill-rule="evenodd" clip-rule="evenodd" d="M5.5 10C5.5 9.58579 5.83579 9.25 6.25 9.25H13.75C14.1642 9.25 14.5 9.58579 14.5 10C14.5 10.4142 14.1642 10.75 13.75 10.75H6.25C5.83579 10.75 5.5 10.4142 5.5 10Z" fill="white"/>
<path fill-rule="evenodd" clip-rule="evenodd" d="M10 5.5C10.4142 5.5 10.75 5.83579 10.75 6.25V13.75C10.75 14.1642 10.4142 14.5 10 14.5C9.58579 14.5 9.25 14.1642 9.25 13.75V6.25C9.25 5.83579 9.58579 5.5 10 5.5Z" fill="white"/>
</svg>
