<svg width="23" height="22" viewBox="0 0 23 22" fill="none" xmlns="http://www.w3.org/2000/svg">
<path fill-rule="evenodd" clip-rule="evenodd" d="M11.4585 4.89608C11.9195 4.89608 12.2933 5.27896 12.2933 5.75128V10.8825H17.3024C17.7635 10.8825 18.1373 11.2653 18.1373 11.7376C18.1373 12.21 17.7635 12.5928 17.3024 12.5928H11.4585C10.9974 12.5928 10.6236 12.21 10.6236 11.7376V5.75128C10.6236 5.27896 10.9974 4.89608 11.4585 4.89608Z" fill="#0C084F"/>
<path fill-rule="evenodd" clip-rule="evenodd" d="M11.4585 3.18569C6.84768 3.18569 3.10991 7.01453 3.10991 11.7376C3.10991 16.4608 6.84768 20.2896 11.4585 20.2896C16.0692 20.2896 19.807 16.4608 19.807 11.7376C19.807 7.01453 16.0692 3.18569 11.4585 3.18569ZM1.4402 11.7376C1.4402 6.06991 5.92553 1.4753 11.4585 1.4753C16.9914 1.4753 21.4767 6.06991 21.4767 11.7376C21.4767 17.4054 16.9914 22 11.4585 22C5.92553 22 1.4402 17.4054 1.4402 11.7376Z" fill="#0C084F"/>
<path fill-rule="evenodd" clip-rule="evenodd" d="M17.9538 0.250481C18.2798 -0.0834936 18.8084 -0.0834937 19.1344 0.250481L22.6721 3.87437C22.9982 4.20835 22.9982 4.74983 22.6721 5.0838C22.3461 5.41778 21.8175 5.41778 21.4915 5.0838L17.9538 1.45991C17.6278 1.12594 17.6278 0.584456 17.9538 0.250481Z" fill="#0C084F"/>
<path fill-rule="evenodd" clip-rule="evenodd" d="M4.96288 0.250481C5.28891 0.584456 5.28891 1.12594 4.96288 1.45991L1.42519 5.0838C1.09915 5.41778 0.570554 5.41778 0.244523 5.0838C-0.0815077 4.74983 -0.0815077 4.20835 0.244523 3.87437L3.78222 0.250481C4.10825 -0.0834937 4.63685 -0.0834937 4.96288 0.250481Z" fill="#0C084F"/>
</svg>
