<svg width="24" height="22" viewBox="0 0 24 22" fill="none" xmlns="http://www.w3.org/2000/svg">
<path fill-rule="evenodd" clip-rule="evenodd" d="M0 3.38462C0 2.44998 0.859648 1.69231 1.92008 1.69231H21.1208C22.1813 1.69231 23.0409 2.44998 23.0409 3.38462V20.3077C23.0409 21.2423 22.1813 22 21.1208 22H1.92008C0.859648 22 0 21.2423 0 20.3077V3.38462ZM21.1208 3.38462H1.92008V20.3077H21.1208V3.38462Z" fill="#0C084F"/>
<path fill-rule="evenodd" clip-rule="evenodd" d="M17.2807 0C17.8109 0 18.2407 0.378836 18.2407 0.846154V4.23077C18.2407 4.69809 17.8109 5.07692 17.2807 5.07692C16.7505 5.07692 16.3207 4.69809 16.3207 4.23077V0.846154C16.3207 0.378836 16.7505 0 17.2807 0Z" fill="#0C084F"/>
<path fill-rule="evenodd" clip-rule="evenodd" d="M5.76023 0C6.29044 0 6.72027 0.378836 6.72027 0.846154V4.23077C6.72027 4.69809 6.29044 5.07692 5.76023 5.07692C5.23002 5.07692 4.80019 4.69809 4.80019 4.23077V0.846154C4.80019 0.378836 5.23002 0 5.76023 0Z" fill="#0C084F"/>
<path fill-rule="evenodd" clip-rule="evenodd" d="M0 7.61538C0 7.14807 0.429824 6.76923 0.960038 6.76923H22.0809C22.6111 6.76923 23.0409 7.14807 23.0409 7.61538C23.0409 8.0827 22.6111 8.46154 22.0809 8.46154H0.960038C0.429824 8.46154 0 8.0827 0 7.61538Z" fill="#0C084F"/>
</svg>
