<svg width="32" height="32" viewBox="0 0 32 32" fill="none" xmlns="http://www.w3.org/2000/svg">
<path fill-rule="evenodd" clip-rule="evenodd" d="M27 5C27 3.89543 26.1046 3 25 3H7C5.89543 3 5 3.89543 5 5V27C5 28.1046 5.89543 29 7 29H25C26.1046 29 27 28.1046 27 27V5ZM7 5H25V27H7V5Z" fill="white"/>
<path d="M21.5 11C20.6716 11 20 10.3284 20 9.5C20 8.67157 20.6716 8 21.5 8C22.3284 8 23 8.67157 23 9.5C23 10.3284 22.3284 11 21.5 11Z" fill="white"/>
<path d="M21.5 24C20.6716 24 20 23.3284 20 22.5C20 21.6716 20.6716 21 21.5 21C22.3284 21 23 21.6716 23 22.5C23 23.3284 22.3284 24 21.5 24Z" fill="white"/>
<path d="M21.5 17.5C20.6716 17.5 20 16.8284 20 16C20 15.1716 20.6716 14.5 21.5 14.5C22.3284 14.5 23 15.1716 23 16C23 16.8284 22.3284 17.5 21.5 17.5Z" fill="white"/>
</svg>
