<svg width="25" height="24" viewBox="0 0 25 24" fill="none" xmlns="http://www.w3.org/2000/svg">
<path fill-rule="evenodd" clip-rule="evenodd" d="M2.08579 1.08579C2.46086 0.710714 2.96957 0.5 3.5 0.5H22.5C23.0304 0.5 23.5391 0.710714 23.9142 1.08579C24.2893 1.46086 24.5 1.96957 24.5 2.5V21.5C24.5 22.0304 24.2893 22.5391 23.9142 22.9142C23.5391 23.2893 23.0304 23.5 22.5 23.5H13.95C13.3977 23.5 12.95 23.0523 12.95 22.5C12.95 21.9477 13.3977 21.5 13.95 21.5H22.5V2.5L3.5 2.5L3.5 13.9125C3.5 14.4648 3.05228 14.9125 2.5 14.9125C1.94772 14.9125 1.5 14.4648 1.5 13.9125V2.5C1.5 1.96957 1.71071 1.46086 2.08579 1.08579Z" fill="#185494"/>
<path fill-rule="evenodd" clip-rule="evenodd" d="M13.7071 14.2929C14.0976 14.6834 14.0976 15.3166 13.7071 15.7071L5.70711 23.7071C5.31658 24.0976 4.68342 24.0976 4.29289 23.7071L0.292893 19.7071C-0.0976311 19.3166 -0.0976311 18.6834 0.292893 18.2929C0.683417 17.9024 1.31658 17.9024 1.70711 18.2929L5 21.5858L12.2929 14.2929C12.6834 13.9024 13.3166 13.9024 13.7071 14.2929Z" fill="#185494"/>
</svg>
