<svg width="30" height="23" viewBox="0 0 30 23" fill="none" xmlns="http://www.w3.org/2000/svg">
<path fill-rule="evenodd" clip-rule="evenodd" d="M14.5041 0.131757C14.8115 -0.043919 15.189 -0.043919 15.4964 0.131757L29.4964 8.13176C29.808 8.3098 30.0002 8.64114 30.0002 9C30.0002 9.35886 29.808 9.6902 29.4964 9.86824L15.4964 17.8682C15.189 18.0439 14.8115 18.0439 14.5041 17.8682L0.504105 9.86824C0.19253 9.6902 0.000244141 9.35886 0.000244141 9C0.000244141 8.64114 0.19253 8.3098 0.504105 8.13176L14.5041 0.131757ZM3.01581 9L15.0002 15.8482L26.9847 9L15.0002 2.15175L3.01581 9Z" fill="#185494"/>
<path fill-rule="evenodd" clip-rule="evenodd" d="M0.131928 13.5039C0.405938 13.0244 1.01679 12.8578 1.49631 13.1318L15.0002 20.8483L28.504 13.1318C28.9836 12.8578 29.5944 13.0244 29.8684 13.5039C30.1424 13.9834 29.9758 14.5943 29.4963 14.8683L15.4963 22.8683C15.1889 23.044 14.8115 23.044 14.504 22.8683L0.504032 14.8683C0.0245147 14.5943 -0.142082 13.9834 0.131928 13.5039Z" fill="#185494"/>
</svg>
