<svg width="22" height="26" viewBox="0 0 22 26" fill="none" xmlns="http://www.w3.org/2000/svg">
<path fill-rule="evenodd" clip-rule="evenodd" d="M22 2C22 0.89543 21.1046 0 20 0H2C0.89543 0 0 0.89543 0 2V24C0 25.1046 0.89543 26 2 26H20C21.1046 26 22 25.1046 22 24V2ZM2 2H20V24H2V2Z" fill="#185494"/>
<path d="M16.5 8C15.6716 8 15 7.32843 15 6.5C15 5.67157 15.6716 5 16.5 5C17.3284 5 18 5.67157 18 6.5C18 7.32843 17.3284 8 16.5 8Z" fill="#185494"/>
<path d="M16.5 21C15.6716 21 15 20.3284 15 19.5C15 18.6716 15.6716 18 16.5 18C17.3284 18 18 18.6716 18 19.5C18 20.3284 17.3284 21 16.5 21Z" fill="#185494"/>
<path d="M16.5 14.5C15.6716 14.5 15 13.8284 15 13C15 12.1716 15.6716 11.5 16.5 11.5C17.3284 11.5 18 12.1716 18 13C18 13.8284 17.3284 14.5 16.5 14.5Z" fill="#185494"/>
</svg>
