<svg width="32" height="32" viewBox="0 0 32 32" fill="none" xmlns="http://www.w3.org/2000/svg">
<path fill-rule="evenodd" clip-rule="evenodd" d="M21.5 5C21.5 4.44772 21.9477 4 22.5 4H26C26.5304 4 27.0391 4.21071 27.4142 4.58579C27.7893 4.96086 28 5.46957 28 6V9.5C28 10.0523 27.5523 10.5 27 10.5C26.4477 10.5 26 10.0523 26 9.5V6L22.5 6C21.9477 6 21.5 5.55228 21.5 5Z" fill="#185494"/>
<path fill-rule="evenodd" clip-rule="evenodd" d="M27 21.5C27.5523 21.5 28 21.9477 28 22.5V26C28 26.5304 27.7893 27.0391 27.4142 27.4142C27.0391 27.7893 26.5304 28 26 28H22.5C21.9477 28 21.5 27.5523 21.5 27C21.5 26.4477 21.9477 26 22.5 26H26V22.5C26 21.9477 26.4477 21.5 27 21.5Z" fill="#185494"/>
<path fill-rule="evenodd" clip-rule="evenodd" d="M5 21.5C5.55228 21.5 6 21.9477 6 22.5V26H9.5C10.0523 26 10.5 26.4477 10.5 27C10.5 27.5523 10.0523 28 9.5 28H6C5.46957 28 4.96086 27.7893 4.58579 27.4142C4.21071 27.0391 4 26.5304 4 26V22.5C4 21.9477 4.44772 21.5 5 21.5Z" fill="#185494"/>
<path fill-rule="evenodd" clip-rule="evenodd" d="M4.58579 4.58579C4.96086 4.21071 5.46957 4 6 4H9.5C10.0523 4 10.5 4.44772 10.5 5C10.5 5.55228 10.0523 6 9.5 6L6 6L6 9.5C6 10.0523 5.55228 10.5 5 10.5C4.44772 10.5 4 10.0523 4 9.5V6C4 5.46957 4.21071 4.96086 4.58579 4.58579Z" fill="#185494"/>
<path fill-rule="evenodd" clip-rule="evenodd" d="M16 11C14.3431 11 13 12.3431 13 14C13 15.6569 14.3431 17 16 17C17.6569 17 19 15.6569 19 14C19 12.3431 17.6569 11 16 11ZM11 14C11 11.2386 13.2386 9 16 9C18.7614 9 21 11.2386 21 14C21 16.7614 18.7614 19 16 19C13.2386 19 11 16.7614 11 14Z" fill="#185494"/>
<path fill-rule="evenodd" clip-rule="evenodd" d="M16 19.0061C14.8169 19.0061 13.6561 19.3284 12.6424 19.9384C11.6286 20.5484 10.8002 21.423 10.246 22.4683C9.98735 22.9562 9.38208 23.1421 8.89412 22.8834C8.40617 22.6248 8.2203 22.0195 8.47898 21.5315C9.2033 20.1652 10.2862 19.022 11.6112 18.2247C12.9363 17.4274 14.4536 17.0061 16 17.0061C17.5465 17.0061 19.0637 17.4274 20.3888 18.2247C21.7139 19.022 22.7967 20.1652 23.521 21.5315C23.7797 22.0195 23.5938 22.6248 23.1059 22.8834C22.6179 23.1421 22.0127 22.9562 21.754 22.4683C21.1998 21.423 20.3714 20.5484 19.3576 19.9384C18.3439 19.3284 17.1831 19.0061 16 19.0061Z" fill="#185494"/>
</svg>
