<svg width="24" height="24" viewBox="0 0 24 24" fill="none" xmlns="http://www.w3.org/2000/svg">
<path fill-rule="evenodd" clip-rule="evenodd" d="M17.5 1C17.5 0.447715 17.9477 0 18.5 0H22C22.5304 0 23.0391 0.210714 23.4142 0.585787C23.7893 0.960861 24 1.46957 24 2V5.5C24 6.05228 23.5523 6.5 23 6.5C22.4477 6.5 22 6.05228 22 5.5V2L18.5 2C17.9477 2 17.5 1.55228 17.5 1Z" fill="white"/>
<path fill-rule="evenodd" clip-rule="evenodd" d="M23 17.5C23.5523 17.5 24 17.9477 24 18.5V22C24 22.5304 23.7893 23.0391 23.4142 23.4142C23.0391 23.7893 22.5304 24 22 24H18.5C17.9477 24 17.5 23.5523 17.5 23C17.5 22.4477 17.9477 22 18.5 22H22V18.5C22 17.9477 22.4477 17.5 23 17.5Z" fill="white"/>
<path fill-rule="evenodd" clip-rule="evenodd" d="M1 17.5C1.55228 17.5 2 17.9477 2 18.5V22H5.5C6.05228 22 6.5 22.4477 6.5 23C6.5 23.5523 6.05228 24 5.5 24H2C1.46957 24 0.960861 23.7893 0.585787 23.4142C0.210714 23.0391 0 22.5304 0 22V18.5C0 17.9477 0.447715 17.5 1 17.5Z" fill="white"/>
<path fill-rule="evenodd" clip-rule="evenodd" d="M0.585787 0.585787C0.960859 0.210714 1.46957 0 2 0H5.5C6.05228 0 6.5 0.447715 6.5 1C6.5 1.55228 6.05228 2 5.5 2L2 2L2 5.5C2 6.05228 1.55228 6.5 1 6.5C0.447715 6.5 0 6.05228 0 5.5V2C0 1.46957 0.210714 0.960859 0.585787 0.585787Z" fill="white"/>
<path fill-rule="evenodd" clip-rule="evenodd" d="M12 7C10.3431 7 9 8.34315 9 10C9 11.6569 10.3431 13 12 13C13.6569 13 15 11.6569 15 10C15 8.34315 13.6569 7 12 7ZM7 10C7 7.23858 9.23858 5 12 5C14.7614 5 17 7.23858 17 10C17 12.7614 14.7614 15 12 15C9.23858 15 7 12.7614 7 10Z" fill="white"/>
<path fill-rule="evenodd" clip-rule="evenodd" d="M12 15.0061C10.8169 15.0061 9.65612 15.3284 8.64237 15.9384C7.62862 16.5484 6.80018 17.423 6.24603 18.4683C5.98735 18.9562 5.38208 19.1421 4.89412 18.8834C4.40617 18.6248 4.2203 18.0195 4.47898 17.5315C5.2033 16.1652 6.28615 15.022 7.61123 14.2247C8.93631 13.4274 10.4536 13.0061 12 13.0061C13.5465 13.0061 15.0637 13.4274 16.3888 14.2247C17.7139 15.022 18.7967 16.1652 19.521 17.5315C19.7797 18.0195 19.5938 18.6248 19.1059 18.8834C18.6179 19.1421 18.0127 18.9562 17.754 18.4683C17.1998 17.423 16.3714 16.5484 15.3576 15.9384C14.3439 15.3284 13.1831 15.0061 12 15.0061Z" fill="white"/>
</svg>
