<svg width="30" height="21" viewBox="0 0 30 21" fill="none" xmlns="http://www.w3.org/2000/svg">
<path fill-rule="evenodd" clip-rule="evenodd" d="M2.58579 0.585787C2.96086 0.210714 3.46957 0 4 0H26C26.5304 0 27.0391 0.210714 27.4142 0.585787C27.7893 0.960861 28 1.46957 28 2V20C28 20.5523 27.5523 21 27 21C26.4477 21 26 20.5523 26 20V2L4 2V20C4 20.5523 3.55228 21 3 21C2.44772 21 2 20.5523 2 20V2C2 1.46957 2.21071 0.960859 2.58579 0.585787Z" fill="#185494"/>
<path fill-rule="evenodd" clip-rule="evenodd" d="M0 20C0 19.4477 0.447715 19 1 19H29C29.5523 19 30 19.4477 30 20C30 20.5523 29.5523 21 29 21H1C0.447715 21 0 20.5523 0 20Z" fill="#185494"/>
<path fill-rule="evenodd" clip-rule="evenodd" d="M13 16C13 15.4477 13.4477 15 14 15H23C23.5523 15 24 15.4477 24 16V20C24 20.5523 23.5523 21 23 21C22.4477 21 22 20.5523 22 20V17H15V20C15 20.5523 14.5523 21 14 21C13.4477 21 13 20.5523 13 20V16Z" fill="#185494"/>
<path fill-rule="evenodd" clip-rule="evenodd" d="M6 5C6 4.44772 6.44772 4 7 4H23C23.5523 4 24 4.44772 24 5V12C24 12.5523 23.5523 13 23 13C22.4477 13 22 12.5523 22 12V6H8V20C8 20.5523 7.55228 21 7 21C6.44772 21 6 20.5523 6 20V5Z" fill="#185494"/>
</svg>
