<svg width="32" height="32" viewBox="0 0 32 32" fill="none" xmlns="http://www.w3.org/2000/svg">
<path fill-rule="evenodd" clip-rule="evenodd" d="M15.5041 4.13176C15.8115 3.95608 16.189 3.95608 16.4964 4.13176L30.4964 12.1318C30.808 12.3098 31.0002 12.6411 31.0002 13C31.0002 13.3589 30.808 13.6902 30.4964 13.8682L16.4964 21.8682C16.189 22.0439 15.8115 22.0439 15.5041 21.8682L1.50411 13.8682C1.19253 13.6902 1.00024 13.3589 1.00024 13C1.00024 12.6411 1.19253 12.3098 1.50411 12.1318L15.5041 4.13176ZM4.01581 13L16.0002 19.8482L27.9847 13L16.0002 6.15175L4.01581 13Z" fill="white"/>
<path fill-rule="evenodd" clip-rule="evenodd" d="M1.13193 17.5039C1.40594 17.0244 2.01679 16.8578 2.49631 17.1318L16.0002 24.8483L29.504 17.1318C29.9836 16.8578 30.5944 17.0244 30.8684 17.5039C31.1424 17.9834 30.9758 18.5943 30.4963 18.8683L16.4963 26.8683C16.1889 27.044 15.8115 27.044 15.504 26.8683L1.50403 18.8683C1.02451 18.5943 0.857918 17.9834 1.13193 17.5039Z" fill="white"/>
</svg>
