<svg width="25" height="25" viewBox="0 0 25 25" fill="none" xmlns="http://www.w3.org/2000/svg">
<path fill-rule="evenodd" clip-rule="evenodd" d="M12.4999 2C15.2847 2 17.9554 3.10625 19.9245 5.07538C21.8937 7.04451 22.9999 9.71523 22.9999 12.5V23H12.4999C11.121 23 9.75566 22.7284 8.48174 22.2007C7.20782 21.6731 6.05031 20.8996 5.0753 19.9246C4.10028 18.9496 3.32685 17.7921 2.79918 16.5182C2.27151 15.2443 1.99992 13.8789 1.99992 12.5C1.99992 11.1211 2.27151 9.75574 2.79918 8.48182C3.32685 7.2079 4.10028 6.05039 5.0753 5.07538C6.05031 4.10036 7.20782 3.32694 8.48174 2.79926C9.75566 2.27159 11.121 2 12.4999 2ZM12.4999 25H23.032C23.2897 25.0024 23.5454 24.9536 23.7843 24.8566C24.0255 24.7585 24.2447 24.6131 24.4289 24.4289C24.613 24.2448 24.7584 24.0256 24.8565 23.7844C24.9536 23.5455 25.0023 23.2898 24.9999 23.0321V12.5C24.9999 9.18479 23.683 6.00537 21.3388 3.66116C18.9945 1.31696 15.8151 0 12.4999 0C10.8584 0 9.23294 0.323322 7.71637 0.951506C6.1998 1.57969 4.82181 2.50043 3.66108 3.66116C2.50035 4.8219 1.57961 6.19989 0.951422 7.71646C0.323238 9.23303 -8.39233e-05 10.8585 -8.39233e-05 12.5C-8.39233e-05 14.1415 0.323238 15.767 0.951422 17.2835C1.57961 18.8001 2.50035 20.1781 3.66108 21.3388C4.82181 22.4996 6.1998 23.4203 7.71637 24.0485C9.23294 24.6767 10.8584 25 12.4999 25Z" fill="white"/>
<path d="M12.5 14.5C11.6716 14.5 11 13.8284 11 13C11 12.1716 11.6716 11.5 12.5 11.5C13.3284 11.5 14 12.1716 14 13C14 13.8284 13.3284 14.5 12.5 14.5Z" fill="white"/>
<path d="M18.5 14.5C17.6716 14.5 17 13.8284 17 13C17 12.1716 17.6716 11.5 18.5 11.5C19.3284 11.5 20 12.1716 20 13C20 13.8284 19.3284 14.5 18.5 14.5Z" fill="white"/>
<path d="M6.5 14.5C5.67157 14.5 5 13.8284 5 13C5 12.1716 5.67157 11.5 6.5 11.5C7.32843 11.5 8 12.1716 8 13C8 13.8284 7.32843 14.5 6.5 14.5Z" fill="white"/>
</svg>
