<svg width="34" height="34" viewBox="0 0 34 34" fill="none" xmlns="http://www.w3.org/2000/svg">
<path fill-rule="evenodd" clip-rule="evenodd" d="M16.4687 5.3125C19.4275 5.3125 22.2651 6.48789 24.3573 8.58009C26.4495 10.6723 27.6249 13.5099 27.6249 16.4688V27.625H16.4687C15.0036 27.625 13.5529 27.3364 12.1994 26.7758C10.8458 26.2151 9.61596 25.3934 8.58 24.3574C7.54405 23.3215 6.72228 22.0916 6.16163 20.7381C5.60098 19.3845 5.31241 17.9338 5.31241 16.4688C5.31241 15.0037 5.60098 13.553 6.16163 12.1994C6.72228 10.8459 7.54405 9.61604 8.58 8.58009C9.61596 7.54414 10.8458 6.72237 12.1994 6.16172C13.5529 5.60106 15.0036 5.3125 16.4687 5.3125ZM16.4687 29.75H27.659C27.9328 29.7525 28.2045 29.7007 28.4583 29.5976C28.7146 29.4934 28.9475 29.3389 29.1432 29.1433C29.3388 28.9476 29.4933 28.7147 29.5975 28.4584C29.7006 28.2046 29.7524 27.9329 29.7499 27.6591V16.4688C29.7499 12.9463 28.3506 9.56821 25.8599 7.07749C23.3692 4.58677 19.9911 3.1875 16.4687 3.1875C14.7245 3.1875 12.9975 3.53103 11.3861 4.19847C9.77479 4.86592 8.31068 5.84421 7.0774 7.07749C5.84412 8.31077 4.86583 9.77488 4.19839 11.3862C3.53094 12.9976 3.18741 14.7246 3.18741 16.4688C3.18741 18.2129 3.53094 19.9399 4.19839 21.5513C4.86583 23.1626 5.84412 24.6267 7.0774 25.86C8.31068 27.0933 9.77479 28.0716 11.3861 28.739C12.9975 29.4065 14.7245 29.75 16.4687 29.75Z" fill="#185494"/>
<path d="M16.6612 20.8576C16.6612 20.3813 16.6804 19.9629 16.719 19.6025C16.7631 19.2361 16.8733 18.8696 17.0496 18.5032C17.2149 18.155 17.4187 17.868 17.6612 17.642C17.9036 17.4099 18.157 17.1931 18.4215 16.9915C18.686 16.7839 18.9366 16.5396 19.1736 16.2586C19.3884 15.9838 19.5317 15.7059 19.6033 15.4249C19.6749 15.144 19.7107 14.8478 19.7107 14.5363C19.7107 14.2248 19.6749 13.9469 19.6033 13.7026C19.5372 13.4583 19.4325 13.2476 19.2893 13.0705C19.0689 12.7712 18.7989 12.5666 18.4793 12.4567C18.1598 12.3467 17.8264 12.2918 17.4793 12.2918C17.1377 12.2918 16.8182 12.3467 16.5207 12.4567C16.2287 12.5605 15.9862 12.7223 15.7934 12.9422C15.6061 13.1377 15.4683 13.3728 15.3802 13.6476C15.2975 13.9225 15.2562 14.2126 15.2562 14.518H14C14.022 14.0355 14.1157 13.5652 14.281 13.1071C14.4518 12.6429 14.6997 12.2551 15.0248 11.9436C15.3499 11.6138 15.7273 11.3756 16.157 11.229C16.5923 11.0763 17.0303 11 17.4711 11C18.011 11 18.5234 11.0916 19.0083 11.2748C19.4931 11.452 19.9008 11.7512 20.2314 12.1727C20.4959 12.4841 20.6887 12.8414 20.8099 13.2445C20.9366 13.6415 21 14.066 21 14.518C21 15.0249 20.9146 15.5013 20.7438 15.9471C20.573 16.393 20.3333 16.79 20.0248 17.1381C19.8375 17.3641 19.6253 17.5748 19.3884 17.7703C19.1515 17.9596 18.9229 18.1581 18.7025 18.3658C18.4876 18.5673 18.3223 18.7872 18.2066 19.0254C18.0634 19.3185 17.9835 19.5964 17.9669 19.8591C17.9559 20.1217 17.9504 20.4545 17.9504 20.8576H16.6612ZM16.686 24L16.6694 22.6624H17.9504V24H16.686Z" fill="#185494"/>
</svg>
