<svg width="22" height="26" viewBox="0 0 22 26" fill="none" xmlns="http://www.w3.org/2000/svg">
<path fill-rule="evenodd" clip-rule="evenodd" d="M0.585787 0.585787C0.960859 0.210714 1.46957 0 2 0H14C14.2652 0 14.5196 0.105357 14.7071 0.292893L21.7071 7.29289C21.8946 7.48043 22 7.73478 22 8V24C22 24.5304 21.7893 25.0391 21.4142 25.4142C21.0391 25.7893 20.5304 26 20 26H2C1.46957 26 0.960861 25.7893 0.585787 25.4142C0.210714 25.0391 0 24.5304 0 24V2C0 1.46957 0.210714 0.960859 0.585787 0.585787ZM13.5858 2L2 2L2 24H20V8.41421L13.5858 2Z" fill="#185494"/>
<path fill-rule="evenodd" clip-rule="evenodd" d="M14 0C14.5523 0 15 0.447715 15 1V7H21C21.5523 7 22 7.44772 22 8C22 8.55228 21.5523 9 21 9H14C13.4477 9 13 8.55228 13 8V1C13 0.447715 13.4477 0 14 0Z" fill="#185494"/>
<path fill-rule="evenodd" clip-rule="evenodd" d="M6.79289 15.7929C7.18342 15.4024 7.81658 15.4024 8.20711 15.7929L11 18.5858L13.7929 15.7929C14.1834 15.4024 14.8166 15.4024 15.2071 15.7929C15.5976 16.1834 15.5976 16.8166 15.2071 17.2071L11.7071 20.7071C11.3166 21.0976 10.6834 21.0976 10.2929 20.7071L6.79289 17.2071C6.40237 16.8166 6.40237 16.1834 6.79289 15.7929Z" fill="#185494"/>
<path fill-rule="evenodd" clip-rule="evenodd" d="M11 11C11.5523 11 12 11.4477 12 12V20C12 20.5523 11.5523 21 11 21C10.4477 21 10 20.5523 10 20V12C10 11.4477 10.4477 11 11 11Z" fill="#185494"/>
</svg>
