<svg width="25" height="25" viewBox="0 0 25 25" fill="none" xmlns="http://www.w3.org/2000/svg">
<path fill-rule="evenodd" clip-rule="evenodd" d="M19.2929 0.292893C19.6834 -0.0976311 20.3166 -0.0976311 20.7071 0.292893L24.7071 4.29289C25.0976 4.68342 25.0976 5.31658 24.7071 5.70711L12.7071 17.7071C12.5196 17.8946 12.2652 18 12 18H8C7.44772 18 7 17.5523 7 17V13C7 12.7348 7.10536 12.4804 7.29289 12.2929L19.2929 0.292893ZM9 13.4142V16H11.5858L22.5858 5L20 2.41421L9 13.4142Z" fill="white"/>
<path fill-rule="evenodd" clip-rule="evenodd" d="M16.2929 3.29289C16.6834 2.90237 17.3166 2.90237 17.7071 3.29289L21.7071 7.29289C22.0976 7.68342 22.0976 8.31658 21.7071 8.70711C21.3166 9.09763 20.6834 9.09763 20.2929 8.70711L16.2929 4.70711C15.9024 4.31658 15.9024 3.68342 16.2929 3.29289Z" fill="white"/>
<path fill-rule="evenodd" clip-rule="evenodd" d="M0.585787 1.58579C0.960859 1.21071 1.46957 1 2 1H13C13.5523 1 14 1.44772 14 2C14 2.55228 13.5523 3 13 3L2 3L2 23H22V12C22 11.4477 22.4477 11 23 11C23.5523 11 24 11.4477 24 12V23C24 23.5304 23.7893 24.0391 23.4142 24.4142C23.0391 24.7893 22.5304 25 22 25H2C1.46957 25 0.960861 24.7893 0.585787 24.4142C0.210714 24.0391 0 23.5304 0 23V3C0 2.46957 0.210714 1.96086 0.585787 1.58579Z" fill="white"/>
</svg>
