<svg width="33" height="29" viewBox="0 0 33 29" fill="none" xmlns="http://www.w3.org/2000/svg">
<path fill-rule="evenodd" clip-rule="evenodd" d="M4.70225 0H27.9103C28.451 0.00423756 28.976 0.173742 29.4079 0.483467C29.8397 0.793193 30.1557 1.2268 30.3092 1.7204L30.3129 1.73226L32.5543 9.22351C32.5861 9.32989 32.6022 9.43996 32.6022 9.55057V11.9382C32.6022 13.5213 31.9417 15.0396 30.7659 16.159C30.5549 16.3599 30.3304 16.545 30.0944 16.7135V26.2641C30.0944 26.8973 29.8302 27.5046 29.3598 27.9524C28.8895 28.4002 28.2516 28.6517 27.5865 28.6517H5.01573C4.35061 28.6517 3.71272 28.4002 3.2424 27.9524C2.77209 27.5046 2.50786 26.8973 2.50786 26.2641V16.7135C2.27188 16.545 2.04736 16.3599 1.83634 16.159C0.660552 15.0396 0 13.5213 0 11.9382V9.55057C0 9.43996 0.0161461 9.32989 0.0479748 9.22351L2.29294 1.72038C2.44646 1.22678 2.7625 0.793191 3.19439 0.483467C3.62628 0.173742 4.15124 0.00427798 4.69193 4.04174e-05L4.70225 0ZM4.53172 15.1146C4.44231 15.0482 4.34322 14.9932 4.2368 14.9517C4.01199 14.8143 3.80153 14.6534 3.60967 14.4707C2.9042 13.799 2.50786 12.8881 2.50786 11.9382V10.7444H10.0315V11.9382C10.0315 12.8881 9.63513 13.799 8.92966 14.4707C8.22418 15.1423 7.26735 15.5197 6.26966 15.5197C5.65895 15.5197 5.06354 15.3783 4.53172 15.1146ZM5.01573 17.7867V26.2641H27.5865V17.7867C27.1769 17.8664 26.7569 17.9073 26.3326 17.9073C24.6698 17.9073 23.0751 17.2784 21.8993 16.159C21.6882 15.9581 21.4938 15.7444 21.3169 15.5197C21.1399 15.7444 20.9455 15.9581 20.7344 16.159C19.5587 17.2784 17.9639 17.9073 16.3011 17.9073C14.6383 17.9073 13.0436 17.2784 11.8678 16.159C11.6568 15.9581 11.4624 15.7444 11.2854 15.5197C11.1084 15.7444 10.914 15.9581 10.703 16.159C9.52719 17.2784 7.93248 17.9073 6.26966 17.9073C5.84531 17.9073 5.42538 17.8664 5.01573 17.7867ZM12.5393 11.9382C12.5393 12.8881 12.9357 13.799 13.6411 14.4707C14.3466 15.1423 15.3034 15.5197 16.3011 15.5197C17.2988 15.5197 18.2556 15.1423 18.9611 14.4707C19.6666 13.799 20.0629 12.8881 20.0629 11.9382V10.7444H12.5393V11.9382ZM29.6873 8.35675L27.9042 2.39712C27.9031 2.39453 27.9013 2.39228 27.899 2.39061C27.8966 2.38888 27.8937 2.38785 27.8907 2.38764H4.71154C4.70855 2.38785 4.70567 2.38888 4.70327 2.39061C4.70093 2.39228 4.69914 2.39454 4.69809 2.39712L2.91494 8.35675H29.6873ZM30.0944 10.7444H22.5708V11.9382C22.5708 12.8881 22.9671 13.799 23.6726 14.4707C24.3781 15.1423 25.3349 15.5197 26.3326 15.5197C26.9433 15.5197 27.5387 15.3783 28.0705 15.1146C28.1599 15.0482 28.259 14.9932 28.3654 14.9517C28.5903 14.8143 28.8007 14.6534 28.9926 14.4707C29.698 13.799 30.0944 12.8881 30.0944 11.9382V10.7444Z" fill="#185494"/>
</svg>
