<svg width="24" height="24" viewBox="0 0 24 24" fill="none" xmlns="http://www.w3.org/2000/svg">
<path fill-rule="evenodd" clip-rule="evenodd" d="M8.33121 0.0433461C8.56652 -0.0361253 8.82318 -0.00535803 9.0352 0.12774L11.5396 1.69983C11.8466 1.68548 12.154 1.68549 12.461 1.69986L14.9549 0.138411C15.1652 0.00675774 15.4193 -0.0243878 15.653 0.0528489C17.2896 0.593823 18.7943 1.50048 20.063 2.71004C20.2448 2.88343 20.3466 3.13025 20.3425 3.38764L20.2935 6.43328C20.4626 6.70499 20.6178 6.98592 20.7584 7.27488L23.2971 8.7516C23.5108 8.87594 23.6636 9.08995 23.7169 9.33969C24.0904 11.0899 24.0944 12.9043 23.7285 14.6563C23.6759 14.9082 23.5221 15.1242 23.3066 15.2491L20.758 16.7259C20.6175 17.0146 20.4625 17.2952 20.2935 17.5667L20.3425 20.6124C20.3466 20.8698 20.2448 21.1166 20.0629 21.29C18.797 22.4969 17.2987 23.4062 15.6688 23.9567C15.4335 24.0361 15.1768 24.0054 14.9648 23.8723L12.4604 22.3002C12.1534 22.3145 11.846 22.3145 11.539 22.3001L9.04506 23.8616C8.83479 23.9932 8.58069 24.0244 8.34702 23.9471C6.71037 23.4062 5.20565 22.4995 3.93704 21.29C3.75517 21.1166 3.65334 20.8697 3.6575 20.6123L3.70656 17.5736C3.53844 17.299 3.38342 17.016 3.24208 16.7254L0.702926 15.2484C0.489159 15.1241 0.33638 14.91 0.283083 14.6603C-0.0904248 12.9101 -0.0943663 11.0957 0.271534 9.34367C0.324139 9.09179 0.477865 8.8758 0.693442 8.75089L3.24197 7.27414C3.38247 6.98544 3.53753 6.70476 3.7065 6.43328L3.6575 3.38764C3.65336 3.13024 3.75519 2.88341 3.93707 2.71001C5.20301 1.50309 6.70132 0.593815 8.33121 0.0433461ZM5.37743 3.77218L5.42431 6.68519C5.42734 6.87391 5.37336 7.05882 5.27005 7.21356C5.04025 7.55777 4.83907 7.92195 4.6687 8.3021C4.59211 8.473 4.4659 8.61424 4.30808 8.70569L1.8712 10.1177C1.65804 11.3628 1.661 12.6379 1.87994 13.8819L4.3093 15.295C4.46594 15.3861 4.59131 15.5263 4.6678 15.6959C4.8419 16.0819 5.04497 16.4529 5.2751 16.8053C5.37517 16.9585 5.4273 17.1405 5.4243 17.3261L5.37746 20.2277C6.3035 21.0462 7.36248 21.6841 8.50394 22.1112L10.8854 20.6202C11.0362 20.5258 11.2111 20.4822 11.3864 20.4953C11.795 20.5259 12.205 20.5259 12.6136 20.4953C12.7892 20.4821 12.9645 20.5259 13.1155 20.6207L15.5046 22.1205C16.6423 21.6866 17.6979 21.0459 18.6226 20.2278L18.5757 17.3148C18.5727 17.1261 18.6266 16.9412 18.7299 16.7864C18.9597 16.4422 19.1609 16.0781 19.3313 15.6979C19.4079 15.527 19.5341 15.3858 19.6919 15.2943L22.1288 13.8823C22.342 12.6372 22.339 11.3621 22.1201 10.1181L19.6907 8.70498C19.5334 8.61351 19.4077 8.47255 19.3313 8.3021C19.1609 7.92195 18.9597 7.55777 18.7299 7.21356C18.6266 7.05882 18.5727 6.87391 18.5757 6.68519L18.6226 3.7723C17.6965 2.95384 16.6375 2.31588 15.4961 1.88882L13.1146 3.3798C12.9638 3.47423 12.7889 3.51784 12.6136 3.50472C12.205 3.47415 11.795 3.47415 11.3864 3.50472C11.2108 3.51787 11.0355 3.47406 10.8845 3.37927L8.49541 1.87954C7.35768 2.31337 6.3021 2.95411 5.37743 3.77218ZM12 7.51821C9.63414 7.51821 7.71624 9.52477 7.71624 12C7.71624 14.4752 9.63414 16.4818 12 16.4818C14.3659 16.4818 16.2838 14.4752 16.2838 12C16.2838 9.52477 14.3659 7.51821 12 7.51821ZM6.00273 12C6.00273 8.53468 8.6878 5.72549 12 5.72549C15.3122 5.72549 17.9973 8.53468 17.9973 12C17.9973 15.4653 15.3122 18.2745 12 18.2745C8.6878 18.2745 6.00273 15.4653 6.00273 12Z" fill="white"/>
</svg>
