<svg width="40" height="27" viewBox="0 0 40 27" fill="none" xmlns="http://www.w3.org/2000/svg">
<path fill-rule="evenodd" clip-rule="evenodd" d="M3.44462 0.818046C3.94426 0.34866 4.62193 0.0849609 5.32854 0.0849609H34.6355C35.3421 0.0849609 36.0198 0.348659 36.5194 0.818046C37.0191 1.28743 37.2998 1.92406 37.2998 2.58787V25.114C37.2998 25.8052 36.7034 26.3655 35.9676 26.3655C35.2319 26.3655 34.6355 25.8052 34.6355 25.114V2.58787L5.32854 2.58787V25.114C5.32854 25.8052 4.73212 26.3655 3.9964 26.3655C3.26069 26.3655 2.66427 25.8052 2.66427 25.114V2.58787C2.66427 1.92406 2.94497 1.28743 3.44462 0.818046Z" fill="#185494"/>
<path fill-rule="evenodd" clip-rule="evenodd" d="M0 25.114C0 24.4229 0.596417 23.8626 1.33213 23.8626H38.6319C39.3676 23.8626 39.964 24.4229 39.964 25.114C39.964 25.8052 39.3676 26.3655 38.6319 26.3655H1.33213C0.596417 26.3655 0 25.8052 0 25.114Z" fill="#185494"/>
<path fill-rule="evenodd" clip-rule="evenodd" d="M17.3178 20.1082C17.3178 19.4171 17.9142 18.8568 18.6499 18.8568H30.6391C31.3748 18.8568 31.9712 19.4171 31.9712 20.1082V25.114C31.9712 25.8052 31.3748 26.3655 30.6391 26.3655C29.9034 26.3655 29.307 25.8052 29.307 25.114V21.3597H19.982V25.114C19.982 25.8052 19.3856 26.3655 18.6499 26.3655C17.9142 26.3655 17.3178 25.8052 17.3178 25.114V20.1082Z" fill="#185494"/>
<path fill-rule="evenodd" clip-rule="evenodd" d="M7.99281 6.34223C7.99281 5.65107 8.58923 5.09078 9.32494 5.09078H30.6391C31.3748 5.09078 31.9712 5.65107 31.9712 6.34223V15.1024C31.9712 15.7936 31.3748 16.3539 30.6391 16.3539C29.9034 16.3539 29.307 15.7936 29.307 15.1024V7.59369H10.6571V25.114C10.6571 25.8052 10.0607 26.3655 9.32494 26.3655C8.58923 26.3655 7.99281 25.8052 7.99281 25.114V6.34223Z" fill="#185494"/>
</svg>
