<svg width="32" height="35" viewBox="0 0 32 35" fill="none" xmlns="http://www.w3.org/2000/svg">
<path fill-rule="evenodd" clip-rule="evenodd" d="M6.50961 7.18162C6.50961 6.46807 7.13028 5.88963 7.89592 5.88963H24.5317C25.2973 5.88963 25.918 6.46807 25.918 7.18162V14.9335C25.918 15.6471 25.2973 16.2255 24.5317 16.2255H7.89592C7.13028 16.2255 6.50961 15.6471 6.50961 14.9335V7.18162ZM9.28223 8.4736V13.6416H23.1454V8.4736H9.28223Z" fill="#185494"/>
<path fill-rule="evenodd" clip-rule="evenodd" d="M28.6906 0.72168C30.2219 0.72168 31.4632 1.87856 31.4632 3.30565V31.7294C31.4632 33.1565 30.2219 34.3133 28.6906 34.3133H3.73698C2.2057 34.3133 0.964355 33.1565 0.964355 31.7294V3.30565C0.964355 1.87856 2.2057 0.72168 3.73698 0.72168H28.6906ZM28.6906 31.7294V3.30565H3.73698V31.7294H28.6906Z" fill="#185494"/>
<path d="M9.28223 22.6855C10.4307 22.6855 11.3617 21.8178 11.3617 20.7475C11.3617 19.6772 10.4307 18.8095 9.28223 18.8095C8.13377 18.8095 7.20276 19.6772 7.20276 20.7475C7.20276 21.8178 8.13377 22.6855 9.28223 22.6855Z" fill="#185494"/>
<path d="M16.2138 22.6855C17.3623 22.6855 18.2933 21.8178 18.2933 20.7475C18.2933 19.6772 17.3623 18.8095 16.2138 18.8095C15.0653 18.8095 14.1343 19.6772 14.1343 20.7475C14.1343 21.8178 15.0653 22.6855 16.2138 22.6855Z" fill="#185494"/>
<path d="M23.1454 22.6855C24.2938 22.6855 25.2248 21.8178 25.2248 20.7475C25.2248 19.6772 24.2938 18.8095 23.1454 18.8095C21.9969 18.8095 21.0659 19.6772 21.0659 20.7475C21.0659 21.8178 21.9969 22.6855 23.1454 22.6855Z" fill="#185494"/>
<path d="M9.28223 29.1454C10.4307 29.1454 11.3617 28.2777 11.3617 27.2074C11.3617 26.1371 10.4307 25.2694 9.28223 25.2694C8.13377 25.2694 7.20276 26.1371 7.20276 27.2074C7.20276 28.2777 8.13377 29.1454 9.28223 29.1454Z" fill="#185494"/>
<path d="M16.2138 29.1454C17.3623 29.1454 18.2933 28.2777 18.2933 27.2074C18.2933 26.1371 17.3623 25.2694 16.2138 25.2694C15.0653 25.2694 14.1343 26.1371 14.1343 27.2074C14.1343 28.2777 15.0653 29.1454 16.2138 29.1454Z" fill="#185494"/>
<path d="M23.1454 29.1454C24.2938 29.1454 25.2248 28.2777 25.2248 27.2074C25.2248 26.1371 24.2938 25.2694 23.1454 25.2694C21.9969 25.2694 21.0659 26.1371 21.0659 27.2074C21.0659 28.2777 21.9969 29.1454 23.1454 29.1454Z" fill="#185494"/>
</svg>
