<svg width="33" height="34" viewBox="0 0 33 34" fill="none" xmlns="http://www.w3.org/2000/svg">
<path fill-rule="evenodd" clip-rule="evenodd" d="M0.964233 3.81371C0.964233 2.35213 2.08329 1.16729 3.46371 1.16729H8.46266C9.84308 1.16729 10.9621 2.35213 10.9621 3.81371V30.2779C10.9621 31.7395 9.84308 32.9243 8.46266 32.9243H3.46371C2.08329 32.9243 0.964233 31.7395 0.964233 30.2779V3.81371ZM8.46266 3.81371H3.46371V30.2779H8.46266V3.81371Z" fill="#185494"/>
<path fill-rule="evenodd" clip-rule="evenodd" d="M0.964233 9.10655C0.964233 8.37576 1.52376 7.78334 2.21397 7.78334H9.7124C10.4026 7.78334 10.9621 8.37576 10.9621 9.10655C10.9621 9.83734 10.4026 10.4298 9.7124 10.4298H2.21397C1.52376 10.4298 0.964233 9.83734 0.964233 9.10655Z" fill="#185494"/>
<path fill-rule="evenodd" clip-rule="evenodd" d="M8.46266 3.81371C8.46266 2.35213 9.58172 1.16729 10.9621 1.16729H15.9611C17.3415 1.16729 18.4606 2.35213 18.4606 3.81371V30.2779C18.4606 31.7395 17.3415 32.9243 15.9611 32.9243H10.9621C9.58172 32.9243 8.46266 31.7395 8.46266 30.2779V3.81371ZM15.9611 3.81371H10.9621V30.2779H15.9611V3.81371Z" fill="#185494"/>
<path fill-rule="evenodd" clip-rule="evenodd" d="M8.46266 24.9851C8.46266 24.2543 9.02219 23.6619 9.7124 23.6619H17.2108C17.901 23.6619 18.4606 24.2543 18.4606 24.9851C18.4606 25.7159 17.901 26.3083 17.2108 26.3083H9.7124C9.02219 26.3083 8.46266 25.7159 8.46266 24.9851Z" fill="#185494"/>
<path fill-rule="evenodd" clip-rule="evenodd" d="M16.4386 5.40513C16.0797 3.9874 16.8742 2.53004 18.2132 2.15003L23.0622 0.773893C24.4012 0.393883 25.7776 1.23512 26.1365 2.65285L32.6352 28.3231C32.9941 29.7409 32.1996 31.1982 30.8605 31.5782L26.0116 32.9544C24.6726 33.3344 23.2961 32.4931 22.9372 31.0754L16.4386 5.40513ZM23.712 3.34092L18.8631 4.71706L25.3617 30.3873L30.2107 29.0112L23.712 3.34092Z" fill="#185494"/>
<path fill-rule="evenodd" clip-rule="evenodd" d="M31.1648 23.1025C31.3443 23.8081 30.9496 24.5343 30.2831 24.7244L23.0346 26.7919C22.3682 26.982 21.6824 26.5641 21.5028 25.8584C21.3233 25.1528 21.718 24.4267 22.3845 24.2366L29.633 22.1691C30.2994 21.979 30.9852 22.3969 31.1648 23.1025Z" fill="#185494"/>
<path fill-rule="evenodd" clip-rule="evenodd" d="M27.2914 7.77252C27.4696 8.47853 27.0735 9.20382 26.4067 9.3925L19.1582 11.4435C18.4914 11.6321 17.8064 11.2128 17.6282 10.5068C17.45 9.80074 17.8461 9.07545 18.5129 8.88677L25.7614 6.8358C26.4282 6.64712 27.1132 7.06651 27.2914 7.77252Z" fill="#185494"/>
</svg>
