<svg width="42" height="42" viewBox="0 0 42 42" fill="none" xmlns="http://www.w3.org/2000/svg">
<path d="M24.9375 22.5752V25.2448C24.9375 26.5691 25.9232 27.6848 27.237 27.8501L32.4529 28.5024C34.2142 28.7229 35.6107 30.0945 35.8627 31.8533L36.75 38.0627H5.25L6.13725 31.8519C6.38794 30.0945 7.78444 28.7216 9.54713 28.5011L14.763 27.8488C16.0768 27.6861 17.0625 26.5691 17.0625 25.2448V22.5752" stroke="white" stroke-width="2" stroke-miterlimit="10" stroke-linecap="round" stroke-linejoin="round"/>
<path d="M11.8125 34.125V38.0625" stroke="white" stroke-width="2" stroke-miterlimit="10" stroke-linecap="round" stroke-linejoin="round"/>
<path d="M30.1875 34.125V38.0625" stroke="white" stroke-width="2" stroke-miterlimit="10" stroke-linecap="round" stroke-linejoin="round"/>
<path d="M17.0625 26.25L21 28.875L18.375 32.8125L13.125 28.3828" stroke="white" stroke-width="2" stroke-miterlimit="10" stroke-linecap="round" stroke-linejoin="round"/>
<path d="M24.9375 26.25L21 28.875L23.625 32.8125L28.875 28.3828" stroke="white" stroke-width="2" stroke-miterlimit="10" stroke-linecap="round" stroke-linejoin="round"/>
<path d="M21 23.625C17.3762 23.625 14.4375 20.6863 14.4375 17.0625V14.4375C14.4375 10.8137 17.3762 7.875 21 7.875C24.6238 7.875 27.5625 10.8137 27.5625 14.4375V17.0625C27.5625 20.6863 24.6238 23.625 21 23.625Z" stroke="white" stroke-width="2" stroke-miterlimit="10" stroke-linecap="round" stroke-linejoin="round"/>
<path d="M10.5 14.4375C10.5 8.63887 15.2014 3.9375 21 3.9375C26.7986 3.9375 31.5 8.63887 31.5 14.4375" stroke="white" stroke-width="2" stroke-miterlimit="10" stroke-linecap="round" stroke-linejoin="round"/>
<path d="M21 18.375V19.6875H15.75" stroke="white" stroke-width="2" stroke-miterlimit="10" stroke-linecap="round" stroke-linejoin="round"/>
<path d="M14.8313 11.8125H10.8938" stroke="white" stroke-width="2" stroke-miterlimit="10" stroke-linecap="round" stroke-linejoin="round"/>
<path d="M27.1687 11.8125H31.1062" stroke="white" stroke-width="2" stroke-miterlimit="10" stroke-linecap="round" stroke-linejoin="round"/>
</svg>
