<svg width="32" height="35" viewBox="0 0 32 35" fill="none" xmlns="http://www.w3.org/2000/svg">
<path fill-rule="evenodd" clip-rule="evenodd" d="M6.50948 7.18162C6.50948 6.46807 7.13016 5.88963 7.8958 5.88963H24.5315C25.2972 5.88963 25.9179 6.46807 25.9179 7.18162V14.9335C25.9179 15.6471 25.2972 16.2255 24.5315 16.2255H7.8958C7.13016 16.2255 6.50948 15.6471 6.50948 14.9335V7.18162ZM9.28211 8.4736V13.6416H23.1452V8.4736H9.28211Z" fill="white"/>
<path fill-rule="evenodd" clip-rule="evenodd" d="M28.6905 0.72168C30.2218 0.72168 31.4631 1.87856 31.4631 3.30565V31.7294C31.4631 33.1565 30.2218 34.3133 28.6905 34.3133H3.73686C2.20558 34.3133 0.964233 33.1565 0.964233 31.7294V3.30565C0.964233 1.87856 2.20558 0.72168 3.73686 0.72168H28.6905ZM28.6905 31.7294V3.30565H3.73686V31.7294H28.6905Z" fill="white"/>
<path d="M9.28211 22.6855C10.4306 22.6855 11.3616 21.8178 11.3616 20.7475C11.3616 19.6772 10.4306 18.8095 9.28211 18.8095C8.13365 18.8095 7.20264 19.6772 7.20264 20.7475C7.20264 21.8178 8.13365 22.6855 9.28211 22.6855Z" fill="white"/>
<path d="M16.2137 22.6855C17.3621 22.6855 18.2931 21.8178 18.2931 20.7475C18.2931 19.6772 17.3621 18.8095 16.2137 18.8095C15.0652 18.8095 14.1342 19.6772 14.1342 20.7475C14.1342 21.8178 15.0652 22.6855 16.2137 22.6855Z" fill="white"/>
<path d="M23.1452 22.6855C24.2937 22.6855 25.2247 21.8178 25.2247 20.7475C25.2247 19.6772 24.2937 18.8095 23.1452 18.8095C21.9968 18.8095 21.0658 19.6772 21.0658 20.7475C21.0658 21.8178 21.9968 22.6855 23.1452 22.6855Z" fill="white"/>
<path d="M9.28211 29.1454C10.4306 29.1454 11.3616 28.2777 11.3616 27.2074C11.3616 26.1371 10.4306 25.2694 9.28211 25.2694C8.13365 25.2694 7.20264 26.1371 7.20264 27.2074C7.20264 28.2777 8.13365 29.1454 9.28211 29.1454Z" fill="white"/>
<path d="M16.2137 29.1454C17.3621 29.1454 18.2931 28.2777 18.2931 27.2074C18.2931 26.1371 17.3621 25.2694 16.2137 25.2694C15.0652 25.2694 14.1342 26.1371 14.1342 27.2074C14.1342 28.2777 15.0652 29.1454 16.2137 29.1454Z" fill="white"/>
<path d="M23.1452 29.1454C24.2937 29.1454 25.2247 28.2777 25.2247 27.2074C25.2247 26.1371 24.2937 25.2694 23.1452 25.2694C21.9968 25.2694 21.0658 26.1371 21.0658 27.2074C21.0658 28.2777 21.9968 29.1454 23.1452 29.1454Z" fill="white"/>
</svg>
