<svg width="34" height="30" viewBox="0 0 34 30" fill="none" xmlns="http://www.w3.org/2000/svg">
<path fill-rule="evenodd" clip-rule="evenodd" d="M5.25217 0.811523H28.4602C29.0009 0.815761 29.5259 0.985265 29.9578 1.29499C30.3897 1.60472 30.7057 2.03832 30.8592 2.53192L30.8629 2.54379L33.1042 10.035C33.136 10.1414 33.1522 10.2515 33.1522 10.3621V12.7497C33.1522 14.3328 32.4916 15.8511 31.3158 16.9705C31.1048 17.1714 30.8803 17.3565 30.6443 17.5251V27.0756C30.6443 27.7088 30.3801 28.3161 29.9098 28.7639C29.4395 29.2117 28.8016 29.4632 28.1364 29.4632H5.56566C4.90053 29.4632 4.26265 29.2117 3.79233 28.7639C3.32201 28.3161 3.05779 27.7088 3.05779 27.0756V17.5251C2.82181 17.3565 2.59729 17.1714 2.38627 16.9705C1.21048 15.8511 0.549927 14.3328 0.549927 12.7497V10.3621C0.549927 10.2515 0.566073 10.1414 0.597902 10.035L2.84287 2.5319C2.99638 2.0383 3.31243 1.60471 3.74432 1.29499C4.17621 0.985266 4.70117 0.815801 5.24185 0.811564L5.25217 0.811523ZM5.08165 15.9261C4.99224 15.8598 4.89315 15.8047 4.78673 15.7632C4.56191 15.6258 4.35146 15.4649 4.1596 15.2822C3.45412 14.6106 3.05779 13.6996 3.05779 12.7497V11.5559H10.5814V12.7497C10.5814 13.6996 10.1851 14.6106 9.47958 15.2822C8.77411 15.9539 7.81728 16.3312 6.81959 16.3312C6.20887 16.3312 5.61347 16.1898 5.08165 15.9261ZM5.56566 18.5983V27.0756H28.1364V18.5983C27.7268 18.6779 27.3069 18.7188 26.8825 18.7188C25.2197 18.7188 23.625 18.09 22.4492 16.9705C22.2382 16.7696 22.0438 16.5559 21.8668 16.3312C21.6898 16.5559 21.4954 16.7696 21.2844 16.9705C20.1086 18.09 18.5139 18.7188 16.851 18.7188C15.1882 18.7188 13.5935 18.09 12.4177 16.9705C12.2067 16.7696 12.0123 16.5559 11.8353 16.3312C11.6583 16.5559 11.4639 16.7696 11.2529 16.9705C10.0771 18.09 8.48241 18.7188 6.81959 18.7188C6.39523 18.7188 5.97531 18.6779 5.56566 18.5983ZM13.0893 12.7497C13.0893 13.6996 13.4856 14.6106 14.1911 15.2822C14.8965 15.9539 15.8534 16.3312 16.851 16.3312C17.8487 16.3312 18.8056 15.9539 19.511 15.2822C20.2165 14.6106 20.6128 13.6996 20.6128 12.7497V11.5559H13.0893V12.7497ZM30.2372 9.16827L28.4541 3.20864C28.453 3.20606 28.4512 3.2038 28.4489 3.20213C28.4465 3.2004 28.4436 3.19938 28.4406 3.19917H5.26146C5.25847 3.19938 5.2556 3.2004 5.25319 3.20213C5.25086 3.2038 5.24907 3.20606 5.24802 3.20864L3.46487 9.16827H30.2372ZM30.6443 11.5559H23.1207V12.7497C23.1207 13.6996 23.517 14.6106 24.2225 15.2822C24.928 15.9539 25.8848 16.3312 26.8825 16.3312C27.4932 16.3312 28.0886 16.1898 28.6204 15.9261C28.7099 15.8598 28.809 15.8047 28.9154 15.7632C29.1402 15.6258 29.3506 15.4649 29.5425 15.2822C30.248 14.6106 30.6443 13.6996 30.6443 12.7497V11.5559Z" fill="white"/>
</svg>
