<svg width="74" height="43" viewBox="0 0 74 43" fill="none" xmlns="http://www.w3.org/2000/svg">
<g id="Group 105">
<path id="Vector" d="M17 15.2319V2H57M57 41H17V25.3298" stroke="#185494" stroke-width="3" stroke-linecap="round" stroke-linejoin="round"/>
<path id="Vector_2" d="M17 35.4292H47M67 25.2608V41H57M72 11.4711V21.5C72 22.4974 71.6049 23.454 70.9016 24.1593C70.1984 24.8646 69.2446 25.2608 68.25 25.2608H12V30.2753L2 20.2464L12 10.2175V15.2319H68.25M57 2H67V15.2319" stroke="#185494" stroke-width="3" stroke-linecap="round" stroke-linejoin="round"/>
<path id="Vector_3" d="M68 7.23001C68.3209 7.07687 68.6592 6.99905 69 7.00001C69.7956 7.00001 70.5587 7.42144 71.1213 8.17158C71.6839 8.92172 72 9.93914 72 11C72 12.0609 71.6839 13.0783 71.1213 13.8284C70.5587 14.5786 69.7956 15 69 15" stroke="#185494" stroke-width="3" stroke-linecap="round" stroke-linejoin="round"/>
</g>
</svg>
