<svg width="46" height="43" viewBox="0 0 46 43" fill="none" xmlns="http://www.w3.org/2000/svg">
<path id="Vector" d="M22.9554 0.00142828C19.7728 0.00142828 16.5729 0.832649 13.7468 2.4551C8.29869 5.63288 4.88606 11.1858 4.53675 17.3628C4.53491 17.3923 4.53491 17.4219 4.53675 17.4514C4.51746 17.4945 4.50254 17.5395 4.49219 17.5856V18.5225H3.72888C2.507 18.5225 1.48206 19.4966 1.48206 20.7091V21.5132H1.39438C0.567813 21.5132 0 22.213 0 23.0314V24.5025C0 25.3208 0.567812 26.0664 1.39294 26.0664H1.48206V26.8233C1.48206 28.103 2.507 29.1456 3.72888 29.1456H4.49219V30.5281C4.48467 30.5874 4.48467 30.6474 4.49219 30.7066V33.7416C4.49037 33.8855 4.53236 34.0266 4.61265 34.1464C4.69294 34.2662 4.80778 34.359 4.94212 34.4129C6.29625 34.9941 7.682 35.5354 9.1195 35.9739V40.4371C9.11434 40.5992 9.16491 40.7583 9.26289 40.8881C9.36087 41.0179 9.50042 41.1107 9.65856 41.1512C18.1139 43.6163 27.7969 43.6163 36.2523 41.1512C36.4019 41.1022 36.5311 41.0059 36.6202 40.8768C36.7093 40.7478 36.7533 40.5933 36.7454 40.4371V35.9296C38.1647 35.4982 39.5596 34.9914 40.9242 34.4114C41.0578 34.3576 41.172 34.265 41.252 34.1458C41.332 34.0266 41.374 33.8863 41.3727 33.743V30.6624C41.3768 30.6182 41.3768 30.5737 41.3727 30.5295C41.3626 30.0925 41.3756 29.6055 41.3727 29.1442H42.2711C43.493 29.1442 44.5179 28.1016 44.5179 26.8247V26.0649H44.6071C45.4322 26.0649 46 25.3208 46 24.5039V23.03C46 22.213 45.4322 21.5132 44.6071 21.5132H44.5179V20.7091C44.5179 19.4951 43.493 18.524 42.2711 18.524H41.3727V18.4783C41.3583 18.0298 41.3583 17.5856 41.3281 17.1843C41.3238 17.1243 41.3324 17.0643 41.3281 17.0058C41.3138 16.8415 41.2994 16.623 41.2836 16.4702C41.2728 16.424 41.2573 16.3791 41.2376 16.3359C41.2277 16.2899 41.2132 16.2449 41.1944 16.2017C40.8416 13.3786 39.8447 10.6728 38.2797 8.29055C36.7148 5.90829 34.6231 3.91243 32.1641 2.4551C32.1492 2.45464 32.1344 2.45464 32.1195 2.4551C29.3354 0.85008 26.1743 0.00321727 22.9554 0V0.00142828ZM22.1921 1.47249V9.99894C22.1921 11.0372 23.6728 11.0372 23.6728 9.99894V1.47249C26.3652 1.58389 29.0116 2.28943 31.4007 3.66052C32.0519 4.04899 32.6974 4.49459 33.2868 4.95448C32.1023 6.31128 31.4453 8.09084 31.4453 9.99894C31.4453 10.3474 31.7731 10.713 32.1195 10.713C32.5809 10.713 32.9274 10.3474 32.9274 9.99894C32.9274 8.54216 33.4981 7.09966 34.4554 5.98137C37.1995 8.5297 39.0295 11.8997 39.6664 15.5775C34.6121 14.145 29.0303 13.3995 23.4485 13.3452C17.4685 13.2881 11.5316 14.0079 6.1985 15.5318C6.18413 15.5314 6.16975 15.5314 6.15538 15.5318C6.77754 11.8497 8.60937 8.47586 11.3649 5.93709C12.351 7.06253 12.9375 8.51645 12.9375 9.99751C12.9375 10.3417 13.3113 10.7116 13.6562 10.7116C14.1177 10.7116 14.4656 10.3417 14.4656 9.99751C14.4752 8.14952 13.7856 6.3654 12.5336 4.99875C13.1459 4.52459 13.7799 4.05899 14.4656 3.66052C16.8403 2.29657 19.5098 1.5896 22.1907 1.47392L22.1921 1.47249ZM23.4485 14.7735C29.1266 14.8306 34.7875 15.6404 39.8461 17.1386C39.8892 17.667 39.9165 18.3354 39.9352 18.9696V29.9483C29.4731 33.056 16.2797 33.0546 5.92969 29.9483V18.3897C5.92969 17.947 5.94119 17.5299 5.97425 17.0943C6.02169 17.08 6.03606 17.0657 6.10938 17.05C6.21575 17.0258 6.30631 16.9986 6.42419 16.9601C6.46788 16.9432 6.51252 16.9289 6.55787 16.9172C11.7329 15.4376 17.5964 14.7163 23.4485 14.7735ZM3.73031 19.9507H4.49362V27.7174H3.73031C3.335 27.7174 2.921 27.3917 2.921 26.8247V25.3508C2.921 25.1614 2.84527 24.9798 2.71048 24.8459C2.57569 24.712 2.39287 24.6367 2.20225 24.6367H1.4835C1.47919 24.6182 1.43894 24.5582 1.43894 24.5039V23.03C1.43894 22.9743 1.47919 22.95 1.4835 22.9414H2.20225C2.39287 22.9414 2.57569 22.8662 2.71048 22.7323C2.84527 22.5983 2.921 22.4167 2.921 22.2273V20.7091C2.921 20.3078 3.335 19.9507 3.73031 19.9507ZM41.4187 19.9507H42.2726C42.6679 19.9507 43.0819 20.3078 43.0819 20.7091V22.2273C43.0819 22.4167 43.1576 22.5983 43.2924 22.7323C43.4272 22.8662 43.61 22.9414 43.8006 22.9414H44.5194C44.5237 22.95 44.5639 22.9743 44.5639 23.0314V24.5025C44.5639 24.5596 44.5237 24.6167 44.5194 24.6381H43.8006C43.61 24.6381 43.4272 24.7134 43.2924 24.8473C43.1576 24.9812 43.0819 25.1629 43.0819 25.3523V26.8233C43.0819 27.3917 42.6679 27.7174 42.2726 27.7174H41.3741V26.9133C41.4014 24.5496 41.4374 22.1045 41.4187 19.9507ZM5.92969 31.4679C16.3803 34.4928 29.3868 34.4957 39.9352 31.4679V33.2531C29.4803 37.5492 16.2653 37.5564 5.92969 33.2531V31.4679ZM10.557 36.3766C18.4747 38.4975 27.3427 38.5047 35.3079 36.3766V39.9029C27.4218 42.0881 18.4388 42.0524 10.557 39.8586V36.3766Z" fill="#185494"/>
</svg>
