<svg width="54" height="25" viewBox="0 0 54 25" fill="none" xmlns="http://www.w3.org/2000/svg">
<path id="Vector" fill-rule="evenodd" clip-rule="evenodd" d="M14.3422 3.74812C12.5988 3.40512 10.7922 3.58272 9.15047 4.25847C7.50879 4.93423 6.10576 6.07782 5.11868 7.54472C4.13161 9.01163 3.60478 10.736 3.60478 12.5C3.60478 14.264 4.13161 15.9884 5.11868 17.4553C6.10576 18.9222 7.50879 20.0658 9.15047 20.7415C10.7922 21.4173 12.5988 21.5949 14.3422 21.2519C16.0686 20.9122 17.6561 20.0771 18.9083 18.8507L20.8307 16.7014C21.4916 15.9626 22.6308 15.8954 23.3752 16.5513C24.1196 17.2072 24.1873 18.3379 23.5265 19.0767L21.5664 21.2681C21.5423 21.295 21.5175 21.3212 21.4919 21.3465C19.7297 23.0925 17.4856 24.2809 15.0431 24.7614C12.6007 25.242 10.0695 24.9931 7.76953 24.0464C5.46952 23.0997 3.50387 21.4975 2.12098 19.4424C0.738082 17.3872 0 14.9713 0 12.5C0 10.0287 0.738082 7.61279 2.12098 5.55765C3.50387 3.50251 5.46952 1.90034 7.76953 0.953602C10.0695 0.00686594 12.6007 -0.241951 15.0431 0.238594C17.4856 0.719139 19.7297 1.90748 21.4919 3.65345C21.5175 3.6788 21.5423 3.70492 21.5663 3.73175L35.0916 18.8506C36.3438 20.0771 37.9314 20.9122 39.6578 21.2519C41.4012 21.5949 43.2078 21.4173 44.8495 20.7415C46.4912 20.0658 47.8942 18.9222 48.8813 17.4553C49.8684 15.9884 50.3952 14.264 50.3952 12.5C50.3952 10.736 49.8684 9.01163 48.8813 7.54472C47.8942 6.07782 46.4912 4.93423 44.8495 4.25847C43.2078 3.58272 41.4012 3.40512 39.6578 3.74812C37.9314 4.08778 36.3439 4.92287 35.0917 6.1493L33.1693 8.29855C32.5084 9.0374 31.3692 9.10463 30.6248 8.44871C29.8804 7.7928 29.8127 6.66212 30.4735 5.92328L32.4336 3.73186C32.4577 3.70499 32.4825 3.67884 32.5081 3.65345C34.2703 1.90748 36.5144 0.719139 38.9569 0.238594C41.3993 -0.241951 43.9305 0.00686594 46.2305 0.953602C48.5305 1.90034 50.4961 3.50251 51.879 5.55765C53.2619 7.61279 54 10.0287 54 12.5C54 14.9713 53.2619 17.3872 51.879 19.4424C50.4961 21.4975 48.5305 23.0997 46.2305 24.0464C43.9305 24.9931 41.3993 25.242 38.9569 24.7614C36.5144 24.2809 34.2703 23.0925 32.5081 21.3465C32.4825 21.3212 32.4577 21.2951 32.4337 21.2682L18.9084 6.14936C17.6562 4.9229 16.0686 4.08779 14.3422 3.74812Z" fill="#185494"/>
</svg>
