<svg width="41" height="48" viewBox="0 0 41 48" fill="none" xmlns="http://www.w3.org/2000/svg">
<g id="Group 106">
<path id="Vector" d="M23.2336 48H8.7126C6.4027 47.9973 4.18818 47.077 2.55483 45.4409C0.921487 43.8048 0.00269018 41.5865 0 39.2727V8.72727C0.00269018 6.41348 0.921487 4.19523 2.55483 2.55913C4.18818 0.923037 6.4027 0.00269471 8.7126 0H31.9462C34.2561 0.00269471 36.4706 0.923037 38.104 2.55913C39.7373 4.19523 40.6561 6.41348 40.6588 8.72727V30.5455C40.6587 30.9312 40.5057 31.3011 40.2334 31.5738L24.2602 47.5738C23.988 47.8466 23.6187 47.9999 23.2336 48ZM8.7126 2.90909C7.17259 2.91063 5.6961 3.52411 4.60714 4.6149C3.51819 5.70569 2.90574 7.18467 2.9042 8.72727V39.2727C2.90574 40.8153 3.51819 42.2943 4.60714 43.3851C5.6961 44.4759 7.17259 45.0894 8.7126 45.0909H22.6324L37.7546 29.9433V8.72727C37.7531 7.18467 37.1406 5.70569 36.0517 4.6149C34.9627 3.52411 33.4862 2.91063 31.9462 2.90909H8.7126Z" fill="#185494"/>
<path id="Vector_2" d="M23.4351 47.9999C23.0544 47.9999 22.6894 47.8472 22.4202 47.5754C22.151 47.3036 21.9998 46.9349 21.9998 46.5505V37.854C22.0025 35.5484 22.9106 33.338 24.5251 31.7077C26.1395 30.0774 28.3285 29.1603 30.6116 29.1576H39.2235C39.5073 29.1576 39.7848 29.2427 40.0207 29.4019C40.2567 29.5612 40.4406 29.7876 40.5492 30.0524C40.6579 30.3172 40.6863 30.6085 40.6309 30.8897C40.5756 31.1708 40.4389 31.429 40.2382 31.6317L24.4499 47.5752C24.1808 47.8471 23.8157 47.9998 23.4351 47.9999ZM30.6116 32.0564C29.0894 32.0579 27.63 32.6692 26.5537 33.7562C25.4773 34.8431 24.8719 36.3169 24.8704 37.854V43.0516L35.7587 32.0564H30.6116ZM14.1056 20.4611C12.5443 20.4611 11.018 19.9936 9.71984 19.1176C8.42165 18.2417 7.40983 16.9967 6.81234 15.54C6.21485 14.0834 6.05851 12.4805 6.36311 10.9341C6.66771 9.38776 7.41956 7.96733 8.52358 6.85246C9.6276 5.73759 11.0342 4.97835 12.5655 4.67076C14.0969 4.36316 15.6841 4.52103 17.1266 5.1244C18.5691 5.72776 19.802 6.74952 20.6694 8.06047C21.5368 9.37142 21.9998 10.9127 21.9998 12.4893C21.9971 14.6028 21.1646 16.6289 19.6847 18.1233C18.2048 19.6177 16.1985 20.4584 14.1056 20.4611ZM14.1056 7.4164C13.112 7.4164 12.1408 7.71393 11.3147 8.27135C10.4885 8.82877 9.84466 9.62105 9.46444 10.548C9.08422 11.475 8.98473 12.495 9.17857 13.479C9.3724 14.4631 9.85085 15.367 10.5534 16.0765C11.256 16.7859 12.1511 17.2691 13.1256 17.4648C14.1 17.6605 15.1101 17.5601 16.0281 17.1761C16.946 16.7922 17.7306 16.142 18.2826 15.3077C18.8346 14.4735 19.1292 13.4927 19.1292 12.4893C19.1277 11.1444 18.5979 9.85496 17.6561 8.90393C16.7144 7.9529 15.4375 7.41794 14.1056 7.4164Z" fill="#185494"/>
<path id="Vector_3" d="M14.8514 16.1894C14.6623 16.1895 14.4751 16.1517 14.3004 16.0784C14.1257 16.0051 13.967 15.8976 13.8333 15.762L10.9533 12.8445C10.691 12.5694 10.5459 12.2009 10.5492 11.8184C10.5525 11.436 10.7039 11.0701 10.9709 10.7996C11.2379 10.5292 11.599 10.3758 11.9766 10.3724C12.3542 10.3691 12.7179 10.5161 12.9895 10.7819L14.7549 12.5703L20.9441 5.04316C21.1887 4.74565 21.5399 4.55876 21.9206 4.52361C22.1091 4.5062 22.2991 4.52657 22.4798 4.58356C22.6605 4.64054 22.8283 4.73302 22.9737 4.85572C23.1192 4.97841 23.2393 5.12893 23.3273 5.29866C23.4153 5.46839 23.4694 5.65402 23.4866 5.84494C23.5038 6.03587 23.4837 6.22836 23.4274 6.41141C23.3712 6.59446 23.2799 6.7645 23.1588 6.91182L15.9588 15.6643C15.8304 15.8201 15.6714 15.9472 15.4919 16.0373C15.3124 16.1275 15.1164 16.1788 14.9162 16.188L14.8514 16.1894ZM32.1314 8.89571H26.3714C25.9895 8.89571 25.6232 8.74202 25.3532 8.46845C25.0831 8.19489 24.9314 7.82385 24.9314 7.43696C24.9314 7.05008 25.0831 6.67904 25.3532 6.40548C25.6232 6.13191 25.9895 5.97822 26.3714 5.97822H32.1314C32.5133 5.97822 32.8796 6.13191 33.1497 6.40548C33.4197 6.67904 33.5714 7.05008 33.5714 7.43696C33.5714 7.82385 33.4197 8.19489 33.1497 8.46845C32.8796 8.74202 32.5133 8.89571 32.1314 8.89571ZM33.5714 13.2719H24.9314C24.5495 13.2719 24.1832 13.1183 23.9132 12.8447C23.6431 12.5711 23.4914 12.2001 23.4914 11.8132C23.4914 11.4263 23.6431 11.0553 23.9132 10.7817C24.1832 10.5081 24.5495 10.3545 24.9314 10.3545H33.5714C33.9533 10.3545 34.3196 10.5081 34.5897 10.7817C34.8597 11.0553 35.0114 11.4263 35.0114 11.8132C35.0114 12.2001 34.8597 12.5711 34.5897 12.8447C34.3196 13.1183 33.9533 13.2719 33.5714 13.2719ZM14.1314 39.5293C12.565 39.5293 11.0337 39.0588 9.73131 38.1772C8.42887 37.2956 7.41375 36.0426 6.8143 34.5766C6.21486 33.1105 6.05802 31.4973 6.36361 29.941C6.6692 28.3847 7.42351 26.9551 8.53114 25.8331C9.63877 24.711 11.05 23.9469 12.5863 23.6373C14.1226 23.3277 15.7151 23.4866 17.1623 24.0939C18.6095 24.7011 19.8464 25.7295 20.7167 27.0489C21.5869 28.3682 22.0514 29.9194 22.0514 31.5062C22.0488 33.6333 21.2135 35.6724 19.7288 37.1764C18.2441 38.6805 16.2311 39.5266 14.1314 39.5293ZM14.1314 26.4006C13.1346 26.4006 12.1602 26.7001 11.3314 27.2611C10.5025 27.8221 9.85654 28.6195 9.47507 29.5524C9.09361 30.4853 8.9938 31.5119 9.18827 32.5023C9.38274 33.4927 9.86275 34.4024 10.5676 35.1165C11.2725 35.8305 12.1705 36.3167 13.1482 36.5137C14.1258 36.7107 15.1392 36.6096 16.0602 36.2232C16.9811 35.8368 17.7682 35.1824 18.322 34.3428C18.8758 33.5032 19.1714 32.516 19.1714 31.5062C19.1699 30.1526 18.6384 28.8549 17.6936 27.8977C16.7487 26.9406 15.4676 26.4022 14.1314 26.4006ZM32.1314 27.8594H26.3714C25.9895 27.8594 25.6232 27.7057 25.3532 27.4321C25.0831 27.1586 24.9314 26.7875 24.9314 26.4006C24.9314 26.0138 25.0831 25.6427 25.3532 25.3692C25.6232 25.0956 25.9895 24.9419 26.3714 24.9419H32.1314C32.5133 24.9419 32.8796 25.0956 33.1497 25.3692C33.4197 25.6427 33.5714 26.0138 33.5714 26.4006C33.5714 26.7875 33.4197 27.1586 33.1497 27.4321C32.8796 27.7057 32.5133 27.8594 32.1314 27.8594Z" fill="#185494"/>
</g>
</svg>
