<svg width="42" height="42" viewBox="0 0 42 42" fill="none" xmlns="http://www.w3.org/2000/svg">
<g id="Vector">
<path fill-rule="evenodd" clip-rule="evenodd" d="M21.001 0C21.8932 0 22.6165 0.723232 22.6165 1.61538V21C22.6165 21.8922 21.8932 22.6154 21.001 22.6154C20.1088 22.6154 19.3856 21.8922 19.3856 21V1.61538C19.3856 0.723232 20.1088 0 21.001 0Z" fill="#185494"/>
<path fill-rule="evenodd" clip-rule="evenodd" d="M39.1805 10.4996C39.6268 11.2721 39.3622 12.2601 38.5897 12.7064L5.02837 32.091C4.25579 32.5372 3.26774 32.2727 2.82148 31.5002C2.37523 30.7276 2.63977 29.7396 3.41234 29.2934L36.9736 9.90877C37.7462 9.46254 38.7343 9.72706 39.1805 10.4996Z" fill="#185494"/>
<path fill-rule="evenodd" clip-rule="evenodd" d="M15.4726 1.40736C15.9005 1.71016 16.1548 2.20177 16.1548 2.72597V17.2644C16.1548 17.841 15.8475 18.3739 15.3483 18.6627L2.74772 25.9521C2.29409 26.2145 1.74135 26.2406 1.26503 26.0221C0.788705 25.8035 0.448006 25.3675 0.351131 24.8525C0.112023 23.5813 -0.00548518 22.2902 0.000196559 20.9968C-0.00169312 16.6549 1.34369 12.4192 3.85086 8.87412C6.35885 5.32785 9.90572 2.64737 14.002 1.20258C14.4964 1.02821 15.0446 1.10456 15.4726 1.40736ZM12.9239 5.17256C10.3696 6.47375 8.15741 8.38015 6.48881 10.7395C4.36704 13.7397 3.22879 17.3244 3.23113 20.999L3.23111 21.0074C3.2297 21.3146 3.23654 21.6216 3.25161 21.9281L12.9239 16.3327V5.17256Z" fill="#185494"/>
<path fill-rule="evenodd" clip-rule="evenodd" d="M19.3856 1.61538C19.3856 0.723232 20.1088 0 21.001 0C24.681 0.000416719 28.2965 0.967721 31.4848 2.80502C34.6732 4.64232 37.3228 7.28511 39.1683 10.4687C41.0137 13.6522 41.9902 17.2648 41.9999 20.9445C42.0096 24.6243 41.0523 28.2419 39.2237 31.4352C37.3951 34.6285 34.7594 37.2852 31.5808 39.1393C28.4022 40.9935 24.7921 41.9798 21.1123 41.9997C17.4324 42.0195 13.8119 41.0722 10.6135 39.2525C7.41502 37.4328 4.75088 34.8046 2.88793 31.6313C2.43625 30.8619 2.69384 29.872 3.46325 29.4204C4.23267 28.9687 5.22256 29.2263 5.67424 29.9957C7.25059 32.6808 9.50485 34.9046 12.2112 36.4444C14.9176 37.9841 17.9811 38.7858 21.0948 38.769C24.2086 38.7522 27.2632 37.9175 29.9528 36.3487C32.6424 34.7798 34.8726 32.5318 36.4199 29.8298C37.9671 27.1278 38.7772 24.0667 38.769 20.9531C38.7608 17.8395 37.9345 14.7827 36.373 12.0889C34.8115 9.3951 32.5695 7.15889 29.8716 5.60425C27.1738 4.04961 24.1147 3.23112 21.001 3.23077C20.1088 3.23067 19.3855 2.50754 19.3856 1.61538Z" fill="#185494"/>
</g>
</svg>
