<svg width="55" height="55" viewBox="0 0 55 55" fill="none" xmlns="http://www.w3.org/2000/svg">
<g id="Globe">
<g id="Vector">
<path fill-rule="evenodd" clip-rule="evenodd" d="M27.5 8.59375C17.0584 8.59375 8.59375 17.0584 8.59375 27.5C8.59375 37.9416 17.0584 46.4062 27.5 46.4062C37.9416 46.4062 46.4062 37.9416 46.4062 27.5C46.4062 17.0584 37.9416 8.59375 27.5 8.59375ZM5.15625 27.5C5.15625 15.1599 15.1599 5.15625 27.5 5.15625C39.8401 5.15625 49.8438 15.1599 49.8438 27.5C49.8438 39.8401 39.8401 49.8438 27.5 49.8438C15.1599 49.8438 5.15625 39.8401 5.15625 27.5Z" fill="#185494"/>
<path fill-rule="evenodd" clip-rule="evenodd" d="M6.33789 20.625C6.33789 19.6758 7.1074 18.9062 8.05664 18.9062H46.9434C47.8926 18.9062 48.6621 19.6758 48.6621 20.625C48.6621 21.5742 47.8926 22.3438 46.9434 22.3438H8.05664C7.1074 22.3438 6.33789 21.5742 6.33789 20.625Z" fill="#185494"/>
<path fill-rule="evenodd" clip-rule="evenodd" d="M6.33789 34.375C6.33789 33.4258 7.1074 32.6562 8.05664 32.6562H46.9434C47.8926 32.6562 48.6621 33.4258 48.6621 34.375C48.6621 35.3242 47.8926 36.0938 46.9434 36.0938H8.05664C7.1074 36.0938 6.33789 35.3242 6.33789 34.375Z" fill="#185494"/>
<path fill-rule="evenodd" clip-rule="evenodd" d="M23.0033 13.9875C21.5598 17.358 20.625 22.1342 20.625 27.4999C20.625 32.8656 21.5598 37.6418 23.0033 41.0124C23.7263 42.7007 24.5432 43.9572 25.3627 44.7665C26.1748 45.5686 26.8951 45.8476 27.5 45.8476C28.1049 45.8476 28.8252 45.5686 29.6373 44.7665C30.4568 43.9572 31.2737 42.7007 31.9967 41.0124C33.4402 37.6418 34.375 32.8656 34.375 27.4999C34.375 22.1342 33.4402 17.358 31.9967 13.9875C31.2737 12.2991 30.4568 11.0427 29.6373 10.2333C28.8252 9.43122 28.1049 9.15226 27.5 9.15226C26.8951 9.15226 26.1748 9.43122 25.3627 10.2333C24.5432 11.0427 23.7263 12.2991 23.0033 13.9875ZM22.9472 7.78754C24.1913 6.5588 25.7318 5.71476 27.5 5.71476C29.2682 5.71476 30.8087 6.5588 32.0528 7.78754C33.2896 9.00902 34.3246 10.6912 35.1567 12.6342C36.8235 16.5262 37.8125 21.7832 37.8125 27.4999C37.8125 33.2166 36.8235 38.4736 35.1567 42.3656C34.3246 44.3086 33.2896 45.9908 32.0528 47.2123C30.8087 48.441 29.2682 49.2851 27.5 49.2851C25.7318 49.2851 24.1913 48.441 22.9472 47.2123C21.7104 45.9908 20.6754 44.3086 19.8433 42.3656C18.1765 38.4736 17.1875 33.2166 17.1875 27.4999C17.1875 21.7832 18.1765 16.5262 19.8433 12.6342C20.6754 10.6912 21.7104 9.00902 22.9472 7.78754Z" fill="#185494"/>
</g>
</g>
</svg>
