<svg width="50" height="50" viewBox="0 0 50 50" fill="none" xmlns="http://www.w3.org/2000/svg">
<g id="Result">
<g id="Group">
<path id="Vector" d="M7.81201 3.125V46.8727H29.7713C30.5726 46.8733 31.363 46.6875 32.0801 46.33C32.7972 45.9725 33.4214 45.4531 33.9032 44.8129L42.1852 33.7966V3.125H7.81201ZM9.37443 4.68742H40.6228V33.0459L29.6767 38.1024C29.7908 38.1011 29.9048 38.1052 30.0185 38.1146C30.0246 38.1146 30.0307 38.1146 30.0368 38.1146C30.045 38.1156 30.0531 38.1166 30.0612 38.1177C30.9624 38.2047 31.7978 38.6277 32.4014 39.3026C33.0049 39.9775 33.3323 40.8548 33.3184 41.7601C33.3046 42.6653 32.9505 43.5322 32.3266 44.1884C31.7028 44.8445 30.8548 45.2417 29.9514 45.3012C29.9412 45.3022 29.931 45.3032 29.9208 45.3042C29.8711 45.3073 29.8212 45.3093 29.7713 45.3103H9.37443V4.68742ZM38.9048 35.5604L34.8766 40.913C34.8504 40.7435 34.8158 40.5755 34.7729 40.4094V40.4064C34.7611 40.3676 34.7489 40.3289 34.7363 40.2904C34.6545 39.9988 34.5473 39.7149 34.4159 39.4421L34.4128 39.439C34.338 39.2845 34.2555 39.1337 34.1656 38.9874C33.9839 38.6945 33.7733 38.4205 33.537 38.1696C33.5089 38.1397 33.4804 38.1102 33.4515 38.0811L38.9048 35.5604Z" fill="#185494"/>
<path id="Vector_2" d="M21.8219 11.7083C21.6939 11.7174 21.5701 11.7579 21.4614 11.8263C21.3528 11.8947 21.2627 11.9889 21.1991 12.1004L17.0469 19.0207L14.6018 16.3794C14.5345 16.296 14.4507 16.2273 14.3557 16.1776C14.2607 16.1279 14.1565 16.0982 14.0496 16.0906C13.9427 16.0829 13.8353 16.0975 13.7342 16.1331C13.6331 16.1687 13.5404 16.2246 13.4618 16.2976C13.3833 16.3706 13.3206 16.4589 13.2777 16.5571C13.2348 16.6554 13.2126 16.7615 13.2124 16.8687C13.2122 16.9759 13.2341 17.0819 13.2767 17.1803C13.3193 17.2787 13.3817 17.3673 13.46 17.4405L16.6087 20.843C16.6909 20.9325 16.7929 21.0017 16.9066 21.0448C17.0202 21.088 17.1424 21.104 17.2633 21.0917C17.3843 21.0794 17.5007 21.0391 17.6033 20.9738C17.7059 20.9086 17.7918 20.8202 17.8543 20.716L22.5485 12.9076C22.6273 12.7846 22.67 12.6422 22.6718 12.4962C22.6736 12.3502 22.6345 12.2066 22.5588 12.0817C22.4831 11.9568 22.374 11.8556 22.2438 11.7896C22.1135 11.7235 21.9674 11.6954 21.8219 11.7083Z" fill="#185494"/>
<path id="Vector_3" d="M21.8219 21.0846C21.6939 21.0938 21.5701 21.1344 21.4614 21.2028C21.3528 21.2712 21.2627 21.3652 21.1991 21.4767L17.0469 28.397L14.6018 25.7558C14.5345 25.6723 14.4507 25.6036 14.3557 25.5539C14.2607 25.5042 14.1565 25.4747 14.0496 25.4671C13.9427 25.4594 13.8353 25.4738 13.7342 25.5094C13.6331 25.545 13.5404 25.601 13.4618 25.6739C13.3833 25.7469 13.3206 25.8354 13.2777 25.9336C13.2348 26.0319 13.2126 26.1378 13.2124 26.245C13.2122 26.3522 13.2341 26.4583 13.2767 26.5566C13.3193 26.655 13.3817 26.7436 13.46 26.8169L16.6087 30.2193C16.6909 30.3089 16.7929 30.378 16.9066 30.4212C17.0202 30.4643 17.1424 30.4803 17.2633 30.468C17.3843 30.4557 17.5007 30.4154 17.6033 30.3502C17.7059 30.2849 17.7918 30.1966 17.8543 30.0923L22.5485 22.2724C22.624 22.1496 22.664 22.0083 22.6642 21.8642C22.6643 21.7201 22.6246 21.5786 22.5494 21.4557C22.4742 21.3327 22.3664 21.233 22.238 21.1675C22.1096 21.102 21.9656 21.0733 21.8219 21.0846ZM21.8219 30.4615C21.6939 30.4707 21.5701 30.5114 21.4614 30.5797C21.3528 30.6481 21.2627 30.7422 21.1991 30.8537L17.0469 37.7739L14.6018 35.1327C14.5345 35.0493 14.4507 34.9805 14.3557 34.9309C14.2607 34.8812 14.1565 34.8517 14.0496 34.844C13.9427 34.8363 13.8353 34.8507 13.7342 34.8863C13.6331 34.9219 13.5404 34.9779 13.4618 35.0509C13.3833 35.1239 13.3206 35.2123 13.2777 35.3106C13.2348 35.4088 13.2126 35.5148 13.2124 35.622C13.2122 35.7292 13.2341 35.8352 13.2767 35.9336C13.3193 36.0319 13.3817 36.1206 13.46 36.1938L16.6087 39.5963C16.6909 39.6858 16.7929 39.7549 16.9066 39.7981C17.0202 39.8413 17.1424 39.8573 17.2633 39.8449C17.3843 39.8326 17.5007 39.7923 17.6033 39.7271C17.7059 39.6619 17.7918 39.5735 17.8543 39.4692L22.5485 31.6493C22.624 31.5265 22.664 31.3853 22.6642 31.2411C22.6643 31.097 22.6246 30.9556 22.5494 30.8326C22.4742 30.7096 22.3664 30.6099 22.238 30.5444C22.1096 30.4789 21.9656 30.4503 21.8219 30.4615Z" fill="#185494"/>
</g>
<g id="20">
<path d="M28.4614 13.6988L28.4662 12.9398L31.5266 10.2123C31.7821 9.98457 31.9529 9.76953 32.0391 9.56714C32.1285 9.36158 32.1732 9.15128 32.1732 8.93624C32.1732 8.67376 32.1125 8.43658 31.9912 8.2247C31.8699 8.01282 31.7038 7.84521 31.4931 7.72188C31.2856 7.59855 31.0493 7.53688 30.7843 7.53688C30.5097 7.53688 30.2654 7.60171 30.0515 7.73137C29.8376 7.85786 29.6684 8.02705 29.5438 8.23893C29.4225 8.45081 29.3634 8.68167 29.3666 8.93149H28.495C28.495 8.50141 28.5955 8.12192 28.7967 7.79303C28.9978 7.46098 29.2708 7.20167 29.6157 7.01508C29.9637 6.82534 30.358 6.73047 30.7987 6.73047C31.2265 6.73047 31.6097 6.8285 31.9481 7.02457C32.2866 7.21748 32.5532 7.48154 32.7479 7.81675C32.9459 8.1488 33.0449 8.52513 33.0449 8.94573C33.0449 9.24299 33.0066 9.50073 32.9299 9.71893C32.8565 9.93714 32.7416 10.1395 32.5851 10.3261C32.4286 10.5095 32.2323 10.7056 31.996 10.9143L29.4528 13.177L29.3427 12.8924H33.0449V13.6988H28.4614Z" fill="#185494"/>
<path d="M36.5184 13.8459C36.0714 13.8459 35.6723 13.7462 35.321 13.547C34.973 13.3446 34.6968 13.0711 34.4925 12.7264C34.2913 12.3785 34.1907 11.9832 34.1907 11.5405V9.03585C34.1907 8.59312 34.2913 8.19782 34.4925 7.84996C34.6968 7.50209 34.973 7.22855 35.321 7.02931C35.6723 6.83008 36.0714 6.73047 36.5184 6.73047C36.9654 6.73047 37.3645 6.83008 37.7157 7.02931C38.067 7.22855 38.3432 7.50209 38.5443 7.84996C38.7455 8.19782 38.846 8.59312 38.846 9.03585V11.5405C38.846 11.9832 38.7455 12.3785 38.5443 12.7264C38.3432 13.0711 38.067 13.3446 37.7157 13.547C37.3645 13.7462 36.9654 13.8459 36.5184 13.8459ZM36.5184 13.0347C36.7898 13.0347 37.0356 12.9699 37.256 12.8402C37.4763 12.7106 37.6519 12.5366 37.7828 12.3184C37.9137 12.0971 37.9792 11.8535 37.9792 11.5879V8.98367C37.9792 8.71487 37.9137 8.47137 37.7828 8.25316C37.6519 8.03496 37.4763 7.86102 37.256 7.73137C37.0356 7.60171 36.7898 7.53688 36.5184 7.53688C36.2502 7.53688 36.0043 7.60171 35.7808 7.73137C35.5605 7.86102 35.3849 8.03496 35.254 8.25316C35.1231 8.47137 35.0576 8.71487 35.0576 8.98367V11.5879C35.0576 11.8535 35.1231 12.0971 35.254 12.3184C35.3849 12.5366 35.5605 12.7106 35.7808 12.8402C36.0043 12.9699 36.2502 13.0347 36.5184 13.0347Z" fill="#185494"/>
</g>
</g>
</svg>
