<svg width="60" height="60" viewBox="0 0 60 60" fill="none" xmlns="http://www.w3.org/2000/svg">
<g id="planet">
<path id="Vector" d="M19.3979 37.1141C19.1819 37.7405 19.5149 38.4239 20.1413 38.6393C22.5179 39.4577 25.0265 40.1651 27.5981 40.7417C27.9263 40.8149 28.2593 40.8785 28.5899 40.9475C28.2281 41.1401 27.8651 41.3405 27.5051 41.5211C26.9135 41.8193 26.6747 42.5405 26.9729 43.1327C27.1841 43.5515 27.6065 43.7933 28.0457 43.7933C28.2269 43.7933 28.4105 43.7519 28.5839 43.6649C29.8079 43.0487 31.0481 42.3587 32.2805 41.6243C34.9949 42.0437 37.6445 42.2927 40.1579 42.3527C40.1681 42.3527 40.1771 42.3527 40.1873 42.3527C40.8365 42.3527 41.3711 41.8343 41.3861 41.1815C41.4017 40.5191 40.8779 39.9689 40.2155 39.9533C38.6735 39.9167 37.0727 39.7991 35.4395 39.6197C35.7383 39.4169 36.0323 39.2141 36.3215 39.0101C38.5115 37.4741 40.5779 35.8289 42.4625 34.1201C42.9533 33.6749 42.9905 32.9165 42.5453 32.4251C42.1007 31.9343 41.3417 31.8971 40.8503 32.3423C39.0395 33.9839 37.0523 35.5667 34.9415 37.0469C33.9623 37.7369 32.9255 38.4167 31.7969 39.1151C30.5687 38.9057 29.3339 38.6687 28.1189 38.3987C25.6355 37.8419 23.2139 37.1591 20.9213 36.3695C20.2949 36.1535 19.6133 36.4877 19.3979 37.1141Z" fill="#185494"/>
<path id="Vector_2" d="M8.44309 45.1263C9.64309 46.8375 11.8313 47.7159 14.7737 47.7159C15.8957 47.7159 17.1335 47.5803 18.4613 47.3217C21.7667 49.5303 25.7345 50.8215 29.9993 50.8215C37.0175 50.8215 43.2305 47.3277 47.0045 41.9925C52.6907 41.1813 56.1941 39.0729 56.8793 36.0213C57.5639 32.9661 55.2977 29.5647 50.5043 26.4081C50.4239 25.9473 50.3297 25.4919 50.2193 25.0419C52.7303 20.8323 53.2115 17.2323 51.5561 14.8713C49.8965 12.5055 46.3487 11.7363 41.5373 12.6789C38.2325 10.4709 34.2647 9.17969 29.9999 9.17969C22.9811 9.17969 16.7669 12.6741 12.9929 18.0111C7.30609 18.8229 3.80329 20.9307 3.11989 23.9823C2.43469 27.0387 4.70329 30.4413 9.49549 33.5961C9.57589 34.0557 9.66949 34.5111 9.77989 34.9599C7.26829 39.1659 6.78709 42.7647 8.44309 45.1263ZM10.4087 43.7481C9.55669 42.5337 9.72229 40.5399 10.8239 38.1111C11.9849 40.8459 13.7171 43.2807 15.8663 45.2715C13.1969 45.4863 11.2613 44.9649 10.4087 43.7481ZM54.5381 35.4963C54.1673 37.1481 52.0169 38.4945 48.6413 39.2601C50.0333 36.4689 50.8211 33.3255 50.8211 30.0003C50.8211 29.8557 50.8133 29.7135 50.8103 29.5701C53.5385 31.7031 54.9089 33.8403 54.5381 35.4963ZM49.5911 16.2501C50.4425 17.4645 50.2769 19.4595 49.1759 21.8907C48.0149 19.1553 46.2821 16.7205 44.1329 14.7297C46.8017 14.5113 48.7373 15.0327 49.5911 16.2501ZM29.9999 11.5797C38.2997 11.5797 45.3317 17.0973 47.6279 24.6567C47.4311 24.9531 47.2265 25.2543 47.0003 25.5723C45.9335 27.0717 44.6309 28.6119 43.1291 30.1509C42.6665 30.6255 42.6755 31.3851 43.1501 31.8483C43.3835 32.0757 43.6859 32.1891 43.9877 32.1891C44.2997 32.1891 44.6117 32.0679 44.8469 31.8273C46.1417 30.5001 47.2907 29.1687 48.2921 27.8541C48.3743 28.5591 48.4211 29.2743 48.4211 30.0009C48.4211 33.5775 47.3933 36.9165 45.6221 39.7455C44.8937 39.8247 44.1401 39.8889 43.3547 39.9249C42.6923 39.9555 42.1805 40.5165 42.2111 41.1789C42.2411 41.8221 42.7715 42.3237 43.4087 42.3237C43.4273 42.3237 43.4465 42.3237 43.4651 42.3225C43.5425 42.3189 43.6157 42.3117 43.6925 42.3075C40.3187 46.0587 35.4305 48.4221 29.9999 48.4221C27.0401 48.4221 24.2441 47.7165 21.7637 46.4709C23.0093 46.0797 24.2957 45.6099 25.6223 45.0441C26.2325 44.7843 26.5157 44.0793 26.2559 43.4697C25.9961 42.8601 25.2911 42.5763 24.6815 42.8361C22.6661 43.6953 20.7557 44.3307 18.9779 44.7519C15.8729 42.4257 13.5257 39.1425 12.3719 35.3451C12.3797 35.3331 12.3875 35.3205 12.3959 35.3091C13.8707 36.0969 15.4769 36.8475 17.2001 37.5423C17.3471 37.6017 17.4989 37.6299 17.6483 37.6299C18.1235 37.6299 18.5729 37.3461 18.7613 36.8787C19.0091 36.2643 18.7121 35.5653 18.0977 35.3169C16.0901 34.5069 14.2439 33.6243 12.6041 32.6901C12.2975 32.5179 12.0011 32.3415 11.7101 32.1639C11.6261 31.4529 11.5787 30.7329 11.5787 30.0009C11.5787 19.8435 19.8419 11.5797 29.9999 11.5797ZM5.46169 24.5067C5.83189 22.8555 7.98169 21.5091 11.3579 20.7429C9.96589 23.5341 9.17869 26.6763 9.17869 30.0009C9.17869 30.1461 9.18649 30.2889 9.18949 30.4329C6.46129 28.3005 5.09089 26.1633 5.46169 24.5067Z" fill="#185494"/>
<path id="Vector_3" d="M37.2193 22.2377C38.9173 22.2377 40.2991 20.8559 40.2991 19.1579C40.2991 17.4593 38.9173 16.0781 37.2193 16.0781C37.1119 16.0781 37.0069 16.0835 36.9037 16.0943C36.2443 16.1609 35.7643 16.7495 35.8303 17.4083C35.8969 18.0677 36.4741 18.5519 37.1449 18.4817C37.5247 18.4439 37.8991 18.7577 37.8991 19.1579C37.8991 19.5329 37.5943 19.8377 37.2193 19.8377C36.9121 19.8377 36.6421 19.6313 36.5629 19.3361C36.3913 18.6965 35.7349 18.3167 35.0929 18.4883C34.4533 18.6605 34.0735 19.3181 34.2451 19.9583C34.6057 21.3005 35.8285 22.2377 37.2193 22.2377ZM18.8545 31.8365C19.0333 31.9307 19.2241 31.9751 19.4131 31.9751C19.8445 31.9751 20.2609 31.7417 20.4757 31.3343C20.7847 30.7481 20.5597 30.0221 19.9735 29.7131C19.6621 29.5499 19.4101 29.2997 19.2409 28.9889C19.0141 28.5713 18.9631 28.0901 19.0981 27.6347C19.2331 27.1787 19.5373 26.8025 19.9555 26.5751C20.8189 26.1053 21.9013 26.4275 22.3693 27.2891C22.7533 27.9953 22.6153 28.8749 22.0333 29.4281C21.5533 29.8847 21.5347 30.6443 21.9913 31.1243C22.4491 31.6049 23.2075 31.6235 23.6881 31.1669C25.0543 29.8667 25.3789 27.8009 24.4777 26.1425C23.9443 25.1615 23.0611 24.4469 21.9901 24.1301C20.9203 23.8139 19.7905 23.9333 18.8083 24.4661C17.8273 24.9995 17.1127 25.8827 16.7959 26.9537C16.4797 28.0247 16.5985 29.1545 17.1319 30.1343C17.5273 30.8627 18.1225 31.4507 18.8545 31.8365Z" fill="#185494"/>
</g>
</svg>
