<svg width="26" height="22" viewBox="0 0 26 22" fill="none" xmlns="http://www.w3.org/2000/svg">
<path fill-rule="evenodd" clip-rule="evenodd" d="M10 10C8.34315 10 7 11.3431 7 13C7 14.6569 8.34315 16 10 16C11.6569 16 13 14.6569 13 13C13 11.3431 11.6569 10 10 10ZM5 13C5 10.2386 7.23858 8 10 8C12.7614 8 15 10.2386 15 13C15 15.7614 12.7614 18 10 18C7.23858 18 5 15.7614 5 13Z" fill="black"/>
<path fill-rule="evenodd" clip-rule="evenodd" d="M0.585787 0.585787C0.960859 0.210714 1.46957 0 2 0H24C24.5304 0 25.0391 0.210714 25.4142 0.585787C25.7893 0.960861 26 1.46957 26 2V20C26 20.5304 25.7893 21.0391 25.4142 21.4142C25.0391 21.7893 24.5304 22 24 22H16.325C15.9387 22 15.5869 21.7775 15.4214 21.4284C14.9349 20.4024 14.1672 19.5354 13.2075 18.9284C12.2478 18.3213 11.1356 18 10 18C8.86443 18 7.75218 18.3213 6.79249 18.9284C5.8328 19.5354 5.06509 20.4024 4.57857 21.4284C4.41306 21.7775 4.06131 22 3.675 22H2C1.46957 22 0.960861 21.7893 0.585787 21.4142C0.210714 21.0391 0 20.5304 0 20V2C0 1.46957 0.210714 0.960859 0.585787 0.585787ZM24 2L2 2L2 20H3.07125C3.71706 18.8811 4.62608 17.9322 5.72332 17.2381C7.0029 16.4287 8.48591 16 10 16C11.5141 16 12.9971 16.4287 14.2767 17.2381C15.3739 17.9322 16.2829 18.8811 16.9287 20H24V2Z" fill="black"/>
<path fill-rule="evenodd" clip-rule="evenodd" d="M4 5C4 4.44772 4.44772 4 5 4H21C21.5523 4 22 4.44772 22 5V17C22 17.5523 21.5523 18 21 18H19C18.4477 18 18 17.5523 18 17C18 16.4477 18.4477 16 19 16H20V6H6V7C6 7.55228 5.55228 8 5 8C4.44772 8 4 7.55228 4 7V5Z" fill="black"/>
</svg>
