<svg width="28" height="26" viewBox="0 0 28 26" fill="none" xmlns="http://www.w3.org/2000/svg">
<path fill-rule="evenodd" clip-rule="evenodd" d="M14 6.00049C14.5523 6.00049 15 6.4482 15 7.00049V13.0005H21C21.5523 13.0005 22 13.4482 22 14.0005C22 14.5528 21.5523 15.0005 21 15.0005H14C13.4477 15.0005 13 14.5528 13 14.0005V7.00049C13 6.4482 13.4477 6.00049 14 6.00049Z" fill="#185494"/>
<path fill-rule="evenodd" clip-rule="evenodd" d="M14 4.00049C8.47715 4.00049 4 8.47764 4 14.0005C4 19.5233 8.47715 24.0005 14 24.0005C19.5228 24.0005 24 19.5233 24 14.0005C24 8.47764 19.5228 4.00049 14 4.00049ZM2 14.0005C2 7.37307 7.37258 2.00049 14 2.00049C20.6274 2.00049 26 7.37307 26 14.0005C26 20.6279 20.6274 26.0005 14 26.0005C7.37258 26.0005 2 20.6279 2 14.0005Z" fill="#185494"/>
<path fill-rule="evenodd" clip-rule="evenodd" d="M21.7802 0.568284C22.1707 0.17776 22.8039 0.17776 23.1944 0.568284L27.4319 4.80578C27.8224 5.19631 27.8224 5.82947 27.4319 6.22C27.0414 6.61052 26.4082 6.61052 26.0177 6.22L21.7802 1.9825C21.3897 1.59197 21.3897 0.958808 21.7802 0.568284Z" fill="#185494"/>
<path fill-rule="evenodd" clip-rule="evenodd" d="M6.21951 0.568284C6.61003 0.958808 6.61003 1.59197 6.21951 1.9825L1.98201 6.22C1.59148 6.61052 0.95832 6.61052 0.567796 6.22C0.177271 5.82947 0.177271 5.19631 0.567796 4.80578L4.8053 0.568284C5.19582 0.17776 5.82898 0.17776 6.21951 0.568284Z" fill="#185494"/>
</svg>
