<svg width="31" height="30" viewBox="0 0 31 30" fill="none" xmlns="http://www.w3.org/2000/svg">
<path fill-rule="evenodd" clip-rule="evenodd" d="M15.9214 10.1997C13.2566 10.1997 11.0963 12.3487 11.0963 14.9996C11.0963 17.6505 13.2566 19.7995 15.9214 19.7995C18.5863 19.7995 20.7466 17.6505 20.7466 14.9996C20.7466 12.3487 18.5863 10.1997 15.9214 10.1997ZM8.68373 14.9996C8.68373 11.0233 11.9242 7.79981 15.9214 7.79981C19.9187 7.79981 23.1591 11.0233 23.1591 14.9996C23.1591 18.976 19.9187 22.1995 15.9214 22.1995C11.9242 22.1995 8.68373 18.976 8.68373 14.9996Z" fill="#0C084F"/>
<path fill-rule="evenodd" clip-rule="evenodd" d="M9.28687 2.39994C5.95582 2.39994 3.25546 5.08617 3.25546 8.39979V21.5995C3.25546 24.9131 5.95582 27.5993 9.28687 27.5993H22.556C25.887 27.5993 28.5874 24.9131 28.5874 21.5995V8.39979C28.5874 5.08617 25.887 2.39994 22.556 2.39994H9.28687ZM0.842896 8.39979C0.842896 3.76072 4.62339 0 9.28687 0H22.556C27.2195 0 31 3.76072 31 8.39979V21.5995C31 26.2386 27.2195 29.9993 22.556 29.9993H9.28687C4.62339 29.9993 0.842896 26.2386 0.842896 21.5995V8.39979Z" fill="#0C084F"/>
<path d="M23.7623 8.99978C24.7616 8.99978 25.5717 8.19391 25.5717 7.19982C25.5717 6.20574 24.7616 5.39987 23.7623 5.39987C22.763 5.39987 21.9528 6.20574 21.9528 7.19982C21.9528 8.19391 22.763 8.99978 23.7623 8.99978Z" fill="#0C084F"/>
</svg>
