<svg width="100" height="100" viewBox="0 0 100 100" fill="none" xmlns="http://www.w3.org/2000/svg">
<path d="M68.75 17.1875H31.25C28.5938 17.1875 26.5625 19.2188 26.5625 21.875V28.125C26.5625 30.7812 28.5938 32.8125 31.25 32.8125H68.75C71.4062 32.8125 73.4375 30.7812 73.4375 28.125V21.875C73.4375 19.2188 71.4062 17.1875 68.75 17.1875ZM70.3125 28.125C70.3125 29.0625 69.6875 29.6875 68.75 29.6875H31.25C30.3125 29.6875 29.6875 29.0625 29.6875 28.125V21.875C29.6875 20.9375 30.3125 20.3125 31.25 20.3125H68.75C69.6875 20.3125 70.3125 20.9375 70.3125 21.875V28.125Z" fill="#185494"/>
<path d="M75 7.8125H25C22.3438 7.8125 20.3125 9.84375 20.3125 12.5V87.5C20.3125 90.1562 22.3438 92.1875 25 92.1875H75C77.6562 92.1875 79.6875 90.1562 79.6875 87.5V12.5C79.6875 9.84375 77.6562 7.8125 75 7.8125ZM76.5625 87.5C76.5625 88.4375 75.9375 89.0625 75 89.0625H25C24.0625 89.0625 23.4375 88.4375 23.4375 87.5V12.5C23.4375 11.5625 24.0625 10.9375 25 10.9375H75C75.9375 10.9375 76.5625 11.5625 76.5625 12.5V87.5Z" fill="#185494"/>
<path d="M35.9375 39.0625H32.8125C30.1562 39.0625 28.125 41.0938 28.125 43.75V46.875C28.125 49.5312 30.1562 51.5625 32.8125 51.5625H35.9375C38.5938 51.5625 40.625 49.5312 40.625 46.875V43.75C40.625 41.0938 38.5938 39.0625 35.9375 39.0625ZM37.5 46.875C37.5 47.8125 36.875 48.4375 35.9375 48.4375H32.8125C31.875 48.4375 31.25 47.8125 31.25 46.875V43.75C31.25 42.8125 31.875 42.1875 32.8125 42.1875H35.9375C36.875 42.1875 37.5 42.8125 37.5 43.75V46.875ZM51.5625 39.0625H48.4375C45.7812 39.0625 43.75 41.0938 43.75 43.75V46.875C43.75 49.5312 45.7812 51.5625 48.4375 51.5625H51.5625C54.2188 51.5625 56.25 49.5312 56.25 46.875V43.75C56.25 41.0938 54.2188 39.0625 51.5625 39.0625ZM53.125 46.875C53.125 47.8125 52.5 48.4375 51.5625 48.4375H48.4375C47.5 48.4375 46.875 47.8125 46.875 46.875V43.75C46.875 42.8125 47.5 42.1875 48.4375 42.1875H51.5625C52.5 42.1875 53.125 42.8125 53.125 43.75V46.875ZM67.1875 39.0625H64.0625C61.4062 39.0625 59.375 41.0938 59.375 43.75V46.875C59.375 49.5312 61.4062 51.5625 64.0625 51.5625H67.1875C69.8438 51.5625 71.875 49.5312 71.875 46.875V43.75C71.875 41.0938 69.8438 39.0625 67.1875 39.0625ZM68.75 46.875C68.75 47.8125 68.125 48.4375 67.1875 48.4375H64.0625C63.125 48.4375 62.5 47.8125 62.5 46.875V43.75C62.5 42.8125 63.125 42.1875 64.0625 42.1875H67.1875C68.125 42.1875 68.75 42.8125 68.75 43.75V46.875ZM35.9375 54.6875H32.8125C30.1562 54.6875 28.125 56.7188 28.125 59.375V62.5C28.125 65.1562 30.1562 67.1875 32.8125 67.1875H35.9375C38.5938 67.1875 40.625 65.1562 40.625 62.5V59.375C40.625 56.7188 38.5938 54.6875 35.9375 54.6875ZM37.5 62.5C37.5 63.4375 36.875 64.0625 35.9375 64.0625H32.8125C31.875 64.0625 31.25 63.4375 31.25 62.5V59.375C31.25 58.4375 31.875 57.8125 32.8125 57.8125H35.9375C36.875 57.8125 37.5 58.4375 37.5 59.375V62.5ZM51.5625 54.6875H48.4375C45.7812 54.6875 43.75 56.7188 43.75 59.375V62.5C43.75 65.1562 45.7812 67.1875 48.4375 67.1875H51.5625C54.2188 67.1875 56.25 65.1562 56.25 62.5V59.375C56.25 56.7188 54.2188 54.6875 51.5625 54.6875ZM53.125 62.5C53.125 63.4375 52.5 64.0625 51.5625 64.0625H48.4375C47.5 64.0625 46.875 63.4375 46.875 62.5V59.375C46.875 58.4375 47.5 57.8125 48.4375 57.8125H51.5625C52.5 57.8125 53.125 58.4375 53.125 59.375V62.5ZM67.1875 54.6875H64.0625C61.4062 54.6875 59.375 56.7188 59.375 59.375V78.125C59.375 80.7812 61.4062 82.8125 64.0625 82.8125H67.1875C69.8438 82.8125 71.875 80.7812 71.875 78.125V59.375C71.875 56.7188 69.8438 54.6875 67.1875 54.6875ZM68.75 78.125C68.75 79.0625 68.125 79.6875 67.1875 79.6875H64.0625C63.125 79.6875 62.5 79.0625 62.5 78.125V59.375C62.5 58.4375 63.125 57.8125 64.0625 57.8125H67.1875C68.125 57.8125 68.75 58.4375 68.75 59.375V78.125ZM35.9375 70.3125H32.8125C30.1562 70.3125 28.125 72.3438 28.125 75V78.125C28.125 80.7812 30.1562 82.8125 32.8125 82.8125H35.9375C38.5938 82.8125 40.625 80.7812 40.625 78.125V75C40.625 72.3438 38.5938 70.3125 35.9375 70.3125ZM37.5 78.125C37.5 79.0625 36.875 79.6875 35.9375 79.6875H32.8125C31.875 79.6875 31.25 79.0625 31.25 78.125V75C31.25 74.0625 31.875 73.4375 32.8125 73.4375H35.9375C36.875 73.4375 37.5 74.0625 37.5 75V78.125ZM51.5625 70.3125H48.4375C45.7812 70.3125 43.75 72.3438 43.75 75V78.125C43.75 80.7812 45.7812 82.8125 48.4375 82.8125H51.5625C54.2188 82.8125 56.25 80.7812 56.25 78.125V75C56.25 72.3438 54.2188 70.3125 51.5625 70.3125ZM53.125 78.125C53.125 79.0625 52.5 79.6875 51.5625 79.6875H48.4375C47.5 79.6875 46.875 79.0625 46.875 78.125V75C46.875 74.0625 47.5 73.4375 48.4375 73.4375H51.5625C52.5 73.4375 53.125 74.0625 53.125 75V78.125Z" fill="#185494"/>
</svg>
