<svg width="26" height="25" viewBox="0 0 26 25" fill="none" xmlns="http://www.w3.org/2000/svg">
<path fill-rule="evenodd" clip-rule="evenodd" d="M10 11.0656C8.34315 11.0656 7 12.5518 7 14.3852C7 16.2187 8.34315 17.7049 10 17.7049C11.6569 17.7049 13 16.2187 13 14.3852C13 12.5518 11.6569 11.0656 10 11.0656ZM5 14.3852C5 11.3296 7.23858 8.85246 10 8.85246C12.7614 8.85246 15 11.3296 15 14.3852C15 17.4409 12.7614 19.918 10 19.918C7.23858 19.918 5 17.4409 5 14.3852Z" fill="#185494"/>
<path fill-rule="evenodd" clip-rule="evenodd" d="M0.585787 0.648207C0.960859 0.233168 1.46957 0 2 0H24C24.5304 0 25.0391 0.233167 25.4142 0.648207C25.7893 1.06325 26 1.62616 26 2.21311V22.1311C26 22.7181 25.7893 23.281 25.4142 23.6961C25.0391 24.1111 24.5304 24.3443 24 24.3443H16.325C15.9387 24.3443 15.5869 24.098 15.4214 23.7118C14.9349 22.5764 14.1672 21.6171 13.2075 20.9453C12.2478 20.2736 11.1356 19.918 10 19.918C8.86443 19.918 7.75218 20.2736 6.79249 20.9453C5.8328 21.6171 5.06509 22.5764 4.57857 23.7118C4.41306 24.098 4.06131 24.3443 3.675 24.3443H2C1.46957 24.3443 0.960861 24.1111 0.585787 23.6961C0.210714 23.281 0 22.7181 0 22.1311V2.21311C0 1.62616 0.210714 1.06325 0.585787 0.648207ZM24 2.21311L2 2.21312L2 22.1311H3.07125C3.71706 20.893 4.62608 19.843 5.72332 19.075C7.0029 18.1793 8.48591 17.7049 10 17.7049C11.5141 17.7049 12.9971 18.1793 14.2767 19.075C15.3739 19.843 16.2829 20.893 16.9287 22.1311H24V2.21311Z" fill="#185494"/>
<path fill-rule="evenodd" clip-rule="evenodd" d="M4 5.53279C4 4.92165 4.44772 4.42623 5 4.42623H21C21.5523 4.42623 22 4.92165 22 5.53279V18.8115C22 19.4226 21.5523 19.918 21 19.918H19C18.4477 19.918 18 19.4226 18 18.8115C18 18.2003 18.4477 17.7049 19 17.7049H20V6.63934H6V7.7459C6 8.35704 5.55228 8.85246 5 8.85246C4.44772 8.85246 4 8.35704 4 7.7459V5.53279Z" fill="#185494"/>
</svg>
