<svg width="33" height="33" viewBox="0 0 33 33" fill="none" xmlns="http://www.w3.org/2000/svg">
<path fill-rule="evenodd" clip-rule="evenodd" d="M0.964355 3.13109C0.964355 1.66951 2.08341 0.484672 3.46383 0.484672H8.46278C9.84321 0.484672 10.9623 1.66951 10.9623 3.13109V29.5953C10.9623 31.0569 9.84321 32.2417 8.46278 32.2417H3.46383C2.08341 32.2417 0.964355 31.0569 0.964355 29.5953V3.13109ZM8.46278 3.13109H3.46383V29.5953H8.46278V3.13109Z" fill="white"/>
<path fill-rule="evenodd" clip-rule="evenodd" d="M0.964355 8.42393C0.964355 7.69314 1.52388 7.10072 2.21409 7.10072H9.71252C10.4027 7.10072 10.9623 7.69314 10.9623 8.42393C10.9623 9.15472 10.4027 9.74714 9.71252 9.74714H2.21409C1.52388 9.74714 0.964355 9.15472 0.964355 8.42393Z" fill="white"/>
<path fill-rule="evenodd" clip-rule="evenodd" d="M8.46278 3.13109C8.46278 1.66951 9.58184 0.484672 10.9623 0.484672H15.9612C17.3416 0.484672 18.4607 1.66951 18.4607 3.13109V29.5953C18.4607 31.0569 17.3416 32.2417 15.9612 32.2417H10.9623C9.58184 32.2417 8.46278 31.0569 8.46278 29.5953V3.13109ZM15.9612 3.13109H10.9623V29.5953H15.9612V3.13109Z" fill="white"/>
<path fill-rule="evenodd" clip-rule="evenodd" d="M8.46278 24.3025C8.46278 23.5717 9.02231 22.9792 9.71252 22.9792H17.211C17.9012 22.9792 18.4607 23.5717 18.4607 24.3025C18.4607 25.0332 17.9012 25.6257 17.211 25.6257H9.71252C9.02231 25.6257 8.46278 25.0332 8.46278 24.3025Z" fill="white"/>
<path fill-rule="evenodd" clip-rule="evenodd" d="M16.4387 4.72251C16.0798 3.30478 16.8743 1.84742 18.2133 1.46741L23.0623 0.0912758C24.4013 -0.288734 25.7777 0.552504 26.1367 1.97023L32.6353 27.6405C32.9942 29.0582 32.1997 30.5156 30.8607 30.8956L26.0117 32.2717C24.6727 32.6518 23.2962 31.8105 22.9373 30.3928L16.4387 4.72251ZM23.7122 2.6583L18.8632 4.03444L25.3618 29.7047L30.2108 28.3286L23.7122 2.6583Z" fill="white"/>
<path fill-rule="evenodd" clip-rule="evenodd" d="M31.1649 22.4199C31.3444 23.1255 30.9497 23.8517 30.2832 24.0418L23.0348 26.1093C22.3683 26.2994 21.6825 25.8814 21.503 25.1758C21.3234 24.4702 21.7181 23.7441 22.3846 23.554L29.6331 21.4864C30.2995 21.2963 30.9853 21.7143 31.1649 22.4199Z" fill="white"/>
<path fill-rule="evenodd" clip-rule="evenodd" d="M27.2915 7.0899C27.4697 7.79591 27.0736 8.5212 26.4068 8.70988L19.1583 10.7609C18.4915 10.9495 17.8065 10.5301 17.6283 9.82413C17.4501 9.11812 17.8462 8.39283 18.513 8.20416L25.7615 6.15318C26.4283 5.96451 27.1133 6.38389 27.2915 7.0899Z" fill="white"/>
</svg>
