<svg width="26" height="25" viewBox="0 0 26 25" fill="none" xmlns="http://www.w3.org/2000/svg">
<path fill-rule="evenodd" clip-rule="evenodd" d="M10 11.5001C8.34315 11.5001 7 12.9864 7 14.8198C7 16.6532 8.34315 18.1395 10 18.1395C11.6569 18.1395 13 16.6532 13 14.8198C13 12.9864 11.6569 11.5001 10 11.5001ZM5 14.8198C5 11.7641 7.23858 9.28703 10 9.28703C12.7614 9.28703 15 11.7641 15 14.8198C15 17.8755 12.7614 20.3526 10 20.3526C7.23858 20.3526 5 17.8755 5 14.8198Z" fill="white"/>
<path fill-rule="evenodd" clip-rule="evenodd" d="M0.585787 1.08278C0.960859 0.667738 1.46957 0.43457 2 0.43457H24C24.5304 0.43457 25.0391 0.667737 25.4142 1.08278C25.7893 1.49782 26 2.06073 26 2.64769V22.5657C26 23.1527 25.7893 23.7156 25.4142 24.1306C25.0391 24.5457 24.5304 24.7788 24 24.7788H16.325C15.9387 24.7788 15.5869 24.5326 15.4214 24.1464C14.9349 23.011 14.1672 22.0516 13.2075 21.3799C12.2478 20.7082 11.1356 20.3526 10 20.3526C8.86443 20.3526 7.75218 20.7082 6.79249 21.3799C5.8328 22.0516 5.06509 23.011 4.57857 24.1464C4.41306 24.5326 4.06131 24.7788 3.675 24.7788H2C1.46957 24.7788 0.960861 24.5457 0.585787 24.1306C0.210714 23.7156 0 23.1527 0 22.5657V2.64769C0 2.06073 0.210714 1.49782 0.585787 1.08278ZM24 2.64769L2 2.64769L2 22.5657H3.07125C3.71706 21.3275 4.62608 20.2776 5.72332 19.5096C7.0029 18.6139 8.48591 18.1395 10 18.1395C11.5141 18.1395 12.9971 18.6139 14.2767 19.5096C15.3739 20.2776 16.2829 21.3275 16.9287 22.5657H24V2.64769Z" fill="white"/>
<path fill-rule="evenodd" clip-rule="evenodd" d="M4 5.96736C4 5.35622 4.44772 4.8608 5 4.8608H21C21.5523 4.8608 22 5.35622 22 5.96736V19.246C22 19.8572 21.5523 20.3526 21 20.3526H19C18.4477 20.3526 18 19.8572 18 19.246C18 18.6349 18.4477 18.1395 19 18.1395H20V7.07391H6V8.18047C6 8.79161 5.55228 9.28703 5 9.28703C4.44772 9.28703 4 8.79161 4 8.18047V5.96736Z" fill="white"/>
</svg>
