<svg width="101" height="101" viewBox="0 0 101 101" fill="none" xmlns="http://www.w3.org/2000/svg">
<path d="M100.557 31.9121C100.28 31.6351 99.9036 31.4795 99.5116 31.4795C99.1196 31.4795 98.7437 31.6351 98.4664 31.9121C90.8355 39.5417 81.1912 38.3036 71.881 36.1524L71.2897 33.7382C74.4063 34.5335 77.5806 35.0828 80.7832 35.3812C80.9159 35.4264 81.0542 35.4533 81.1942 35.4609C81.2691 35.4516 81.3432 35.4368 81.4159 35.4166C82.0368 35.455 82.6607 35.5259 83.2786 35.5259C85.6588 35.5552 88.0274 35.1908 90.2886 34.4474C90.3821 34.4248 90.4732 34.3931 90.5606 34.3528C92.9437 33.5004 95.1049 32.124 96.8847 30.3253C97.0259 30.189 97.1385 30.026 97.216 29.8457C97.2934 29.6655 97.3342 29.4716 97.3359 29.2754C97.3376 29.0792 97.3002 28.8847 97.2259 28.7031C97.1516 28.5215 97.0418 28.3566 96.903 28.2178C96.7642 28.0791 96.5992 27.9694 96.4175 27.8951C96.2358 27.8208 96.0411 27.7835 95.8449 27.7852C95.6486 27.7869 95.4546 27.8276 95.2742 27.9051C95.0939 27.9825 94.9308 28.095 94.7944 28.2362C93.4961 29.5414 91.9542 30.5795 90.2561 31.2915L69.6961 10.743C70.4114 9.04766 71.452 7.50873 72.7591 6.21314C72.9003 6.07685 73.0129 5.91382 73.0904 5.73357C73.1679 5.55331 73.2087 5.35944 73.2104 5.16326C73.2121 4.96709 73.1747 4.77253 73.1003 4.59096C73.026 4.40939 72.9163 4.24443 72.7775 4.1057C72.6386 3.96698 72.4736 3.85727 72.2919 3.78299C72.1102 3.7087 71.9156 3.67132 71.7193 3.67302C71.523 3.67473 71.329 3.71548 71.1487 3.79292C70.9683 3.87035 70.8052 3.9829 70.6688 4.12402C68.8683 5.90333 67.4911 8.06446 66.639 10.4475C66.5974 10.5364 66.5657 10.6295 66.5444 10.7253C65.6183 13.641 65.2777 16.7108 65.5422 19.7585C65.5378 19.8165 65.5378 19.8748 65.5422 19.9328C65.9507 24.0399 66.7124 28.1041 67.8187 32.0805L69.2172 37.7274C71.4878 47.3013 73.0607 57.3096 65.1785 65.1756C57.5269 72.8229 47.8856 71.5878 38.5694 69.4396C38.3959 68.6888 38.2175 67.9393 38.0343 67.1909L37.9899 67.0077C41.1554 67.8272 44.3831 68.3847 47.6402 68.6742C47.7214 68.6973 47.8045 68.7132 47.8885 68.7215C47.9329 68.7215 47.9772 68.7008 48.0216 68.6979C48.669 68.7392 49.3195 68.8102 49.967 68.8102C52.3945 68.8438 54.81 68.464 57.11 67.6873L57.2135 67.6459C59.6027 66.782 61.7733 65.4051 63.5724 63.6121C65.3715 61.8191 66.7554 59.6536 67.6265 57.2682C67.6702 57.1738 67.7029 57.0746 67.7241 56.9727C68.6501 54.059 68.9907 50.9912 68.7264 47.9455C68.7264 47.8864 68.7264 47.8273 68.7086 47.7682C68.3003 43.6601 67.5387 39.5949 66.4321 35.6175L65.6929 32.6626C65.4742 31.7909 65.2583 30.9192 65.0573 30.0032C62.7571 20.4352 61.1753 10.4328 69.0752 2.54018C69.2164 2.40389 69.3291 2.24086 69.4065 2.0606C69.484 1.88035 69.5248 1.68647 69.5265 1.4903C69.5282 1.29412 69.4908 1.09957 69.4165 0.917997C69.3421 0.736422 69.2324 0.57146 69.0936 0.432738C68.9548 0.294015 68.7897 0.18431 68.608 0.110022C68.4264 0.0357344 68.2317 -0.00164893 68.0354 5.57825e-05C67.8391 0.0017605 67.6452 0.0425181 67.4648 0.11995C67.2844 0.197382 67.1213 0.30994 66.985 0.451052C58.6888 8.7396 59.5936 19.0493 61.6631 28.3839C52.3115 26.3155 42.002 25.429 33.7147 33.7028C25.4275 41.9765 26.2938 52.2892 28.3279 61.6267C18.9822 59.6026 8.6697 58.7339 0.414971 66.9899C0.14569 67.2686 -0.00331226 67.6418 5.58829e-05 68.0292C0.00342403 68.4166 0.158893 68.7871 0.432978 69.0611C0.707064 69.335 1.07784 69.4904 1.46544 69.4937C1.85304 69.4971 2.22645 69.3482 2.50526 69.079C10.1302 61.4583 19.7775 62.6816 29.0877 64.824L29.679 67.247C23.5116 65.7695 16.5933 64.4516 10.5175 66.594L10.4436 66.6235C8.04781 67.4765 5.87512 68.8582 4.08702 70.6658C3.94583 70.8021 3.83321 70.9652 3.75574 71.1454C3.67826 71.3257 3.63748 71.5195 3.63578 71.7157C3.63407 71.9119 3.67147 72.1065 3.7458 72.288C3.82013 72.4696 3.9299 72.6346 4.0687 72.7733C4.2075 72.912 4.37255 73.0217 4.55423 73.096C4.7359 73.1703 4.93056 73.2077 5.12685 73.206C5.32313 73.2043 5.51711 73.1635 5.69747 73.0861C5.87783 73.0086 6.04095 72.8961 6.17731 72.755C7.46319 71.4581 8.9883 70.4225 10.6683 69.7055L31.2608 90.2836C30.5452 91.9671 29.5089 93.4956 28.2096 94.7839C27.9325 95.061 27.7768 95.4367 27.7768 95.8285C27.7768 96.2202 27.9325 96.596 28.2096 96.873C28.4868 97.15 28.8628 97.3056 29.2548 97.3056C29.6468 97.3056 30.0227 97.15 30.2999 96.873C32.1066 95.0861 33.4879 92.9158 34.3415 90.5229L34.377 90.4313C36.7896 83.57 34.8087 75.6272 33.1353 68.9165L31.7368 63.2608C31.7192 63.1939 31.6985 63.1278 31.6747 63.0628C29.4307 53.5628 27.9465 43.6461 35.7962 35.7978C43.4478 28.1505 53.0891 29.4034 62.4052 31.5782C62.5472 32.1692 62.7009 32.7601 62.8369 33.3689L62.9847 33.9598C59.7754 33.1247 56.502 32.5584 53.1985 32.2667C53.1463 32.2638 53.094 32.2638 53.0418 32.2667C49.9893 32.0003 46.9143 32.3418 43.9947 33.2713C43.9003 33.2929 43.8082 33.3236 43.7198 33.3629C41.3365 34.2182 39.1747 35.5953 37.3927 37.3935C35.5787 39.1819 34.1903 41.3552 33.3304 43.7524L33.286 43.8647C30.8705 50.7349 32.8662 58.6541 34.5544 65.344L35.1871 67.8941C35.4384 68.9224 35.6927 69.9626 35.9292 71.0145C38.2058 80.5855 39.7727 90.5879 31.8905 98.4598C31.7494 98.5961 31.6367 98.7591 31.5593 98.9394C31.4818 99.1197 31.441 99.3135 31.4393 99.5097C31.4376 99.7059 31.475 99.9004 31.5493 100.082C31.6237 100.264 31.7334 100.429 31.8722 100.567C32.011 100.706 32.1761 100.816 32.3577 100.89C32.5394 100.964 32.7341 101.002 32.9304 101C33.1267 100.998 33.3206 100.957 33.501 100.88C33.6813 100.803 33.8445 100.69 33.9808 100.549C42.2592 92.2752 41.3722 81.9655 39.3293 72.625C42.907 73.4747 46.5653 73.9403 50.2419 74.0138C53.3947 74.1214 56.5358 73.5776 59.4687 72.4163C62.4015 71.255 65.063 69.5012 67.2865 67.2647C75.5501 58.991 74.6779 48.696 72.632 39.3407C76.2185 40.1921 79.8857 40.6587 83.5713 40.7325C86.7168 40.8405 89.8508 40.2984 92.777 39.1401C95.7033 37.9819 98.3588 36.2324 100.577 34.0012C100.852 33.7214 101.004 33.3441 101 32.9524C100.996 32.5606 100.837 32.1864 100.557 31.9121ZM31.9083 77.0928L23.8694 69.0584C25.9715 69.4248 28.1801 69.9448 30.4803 70.4945C31.0361 72.7934 31.5565 75.0007 31.9083 77.0928ZM13.8733 68.7422C15.5973 68.4495 17.3498 68.3613 19.0945 68.4792L32.4641 81.8413C32.5836 83.5861 32.4953 85.3388 32.201 87.0627L13.8733 68.7422ZM35.7518 57.1885L43.7759 65.2081C41.5684 64.7961 39.3745 64.3142 37.1976 63.7632C36.6438 61.5902 36.1626 59.3994 35.7548 57.1944L35.7518 57.1885ZM48.539 65.7873L35.1723 52.4281C35.052 50.6845 35.1393 48.9327 35.4325 47.2097L53.7632 65.5302C52.0395 65.8257 50.2866 65.914 48.5419 65.7932L48.539 65.7873ZM38.4659 40.5789L60.3948 62.4955C59.3609 63.3456 58.2098 64.0422 56.977 64.5639L36.4023 43.9977C36.9246 42.7673 37.6205 41.618 38.4689 40.5848L38.4659 40.5789ZM44.0006 36.4095L64.5665 56.9639C64.0486 58.2063 63.3513 59.3661 62.4969 60.4064L40.5681 38.4897C41.6058 37.6344 42.7633 36.9356 44.0036 36.4154L44.0006 36.4095ZM65.1992 43.7584L57.2165 35.7801C59.2861 36.1465 61.4917 36.6459 63.7712 37.2073C64.3359 39.4885 64.8385 41.6781 65.2021 43.7643L65.1992 43.7584ZM52.4564 35.1891L65.7609 48.4862C65.8857 50.2334 65.8014 51.9892 65.5096 53.7164L47.2262 35.458C48.9544 35.1664 50.7112 35.0821 52.4594 35.2068L52.4564 35.1891ZM69.0546 23.9308L77.0373 31.9091C74.9677 31.5427 72.7621 31.0433 70.4796 30.4819C69.9349 28.3201 69.4606 26.1412 69.0575 23.9486L69.0546 23.9308ZM87.0305 32.2371C85.3032 32.5282 83.5476 32.6135 81.8003 32.4912L68.478 19.1764C68.3562 17.4292 68.4405 15.6737 68.7293 13.9462L87.0305 32.2371ZM72.907 70.4088C72.6017 70.4085 72.304 70.3139 72.0547 70.1378C71.8055 69.9617 71.6169 69.7128 71.5148 69.4252C71.4128 69.1377 71.4023 68.8257 71.4848 68.5319C71.5673 68.2382 71.7388 67.9772 71.9756 67.7848L73.0075 66.9426C73.3121 66.6954 73.7025 66.5792 74.0929 66.6197C74.4832 66.6601 74.8415 66.8539 75.0889 67.1584C75.3363 67.4628 75.4525 67.853 75.4121 68.2432C75.3716 68.6333 75.1777 68.9914 74.8731 69.2386L73.8383 70.0778C73.575 70.2917 73.2462 70.4085 72.907 70.4088ZM78.4091 74.5634C78.4714 74.9497 78.3778 75.3449 78.1489 75.6623C77.92 75.9798 77.5744 76.1935 77.1881 76.2565L75.8753 76.4693C75.7961 76.481 75.716 76.4869 75.6359 76.487C75.2663 76.4839 74.9113 76.3425 74.6409 76.0907C74.3704 75.8389 74.2042 75.495 74.1748 75.1268C74.1455 74.7586 74.2553 74.3927 74.4825 74.1014C74.7097 73.81 75.0379 73.6143 75.4023 73.5528L76.715 73.34C77.102 73.2779 77.4978 73.3718 77.8155 73.6012C78.1331 73.8306 78.3467 74.1767 78.4091 74.5634ZM77.5901 82.6392C77.4833 82.9194 77.2938 83.1604 77.0466 83.3304C76.7995 83.5003 76.5065 83.5911 76.2065 83.5907C76.0268 83.5909 75.8485 83.5589 75.6802 83.4961L74.4385 83.0204C74.2496 82.9572 74.0755 82.8565 73.9265 82.7244C73.7776 82.5924 73.6569 82.4315 73.5716 82.2517C73.4864 82.0718 73.4384 81.8766 73.4305 81.6777C73.4226 81.4788 73.4551 81.2804 73.5258 81.0944C73.5966 80.9083 73.7042 80.7385 73.8422 80.5951C73.9803 80.4516 74.1459 80.3375 74.3292 80.2597C74.5124 80.1818 74.7096 80.1417 74.9087 80.1418C75.1078 80.142 75.3049 80.1823 75.488 80.2605L76.7327 80.7332C76.9143 80.8021 77.0804 80.906 77.2218 81.0391C77.3631 81.1721 77.4768 81.3317 77.5565 81.5087C77.6361 81.6857 77.68 81.8766 77.6858 82.0706C77.6916 82.2646 77.6591 82.4578 77.5901 82.6392ZM73.0489 87.1395C73.2971 87.4436 73.4142 87.8337 73.3745 88.2242C73.3349 88.6145 73.1417 88.9732 72.8375 89.2213C72.5332 89.4693 72.1429 89.5864 71.7522 89.5468C71.3616 89.5071 71.0028 89.3141 70.7546 89.01L69.912 87.9787C69.6638 87.6746 69.5466 87.2845 69.5863 86.8941C69.6259 86.5037 69.8191 86.145 70.1234 85.897C70.4276 85.6489 70.818 85.5318 71.2086 85.5715C71.5992 85.6111 71.9581 85.8042 72.2063 86.1082L73.0489 87.1395ZM66.4321 89.5359L66.6479 90.8509C66.7102 91.2372 66.6166 91.6324 66.3877 91.9498C66.1588 92.2673 65.8132 92.481 65.4268 92.5441C65.3478 92.5582 65.2677 92.5651 65.1874 92.5648C64.8366 92.5644 64.4974 92.4393 64.2303 92.212C63.9633 91.9846 63.7859 91.6698 63.7298 91.3237L63.5169 90.0087C63.4756 89.8132 63.4745 89.6113 63.5136 89.4153C63.5526 89.2193 63.6311 89.0332 63.7442 88.8684C63.8573 88.7035 64.0026 88.5633 64.1715 88.4563C64.3404 88.3492 64.5292 88.2775 64.7266 88.2455C64.924 88.2135 65.1258 88.2218 65.3199 88.27C65.514 88.3182 65.6962 88.4053 65.8557 88.5259C66.0151 88.6466 66.1484 88.7983 66.2475 88.9719C66.3465 89.1455 66.4093 89.3374 66.4321 89.5359ZM59.7266 89.6217L59.2535 90.8657C59.1144 91.2324 58.8351 91.5289 58.4772 91.6899C58.1193 91.8509 57.7121 91.8632 57.3451 91.7241C56.9781 91.585 56.6815 91.3059 56.5204 90.9482C56.3593 90.5905 56.347 90.1834 56.4862 89.8167L56.9592 88.5726C57.0984 88.2059 57.3777 87.9094 57.7356 87.7484C58.0935 87.5874 58.5007 87.5751 58.8677 87.7143C59.2347 87.8534 59.5313 88.1325 59.6924 88.4902C59.8535 88.8479 59.8658 89.2549 59.7266 89.6217ZM54.0825 84.2644C54.3266 84.568 54.4408 84.9556 54.4004 85.343C54.36 85.7303 54.1682 86.0861 53.8667 86.3328L52.8348 87.175C52.6854 87.3055 52.5112 87.4046 52.3226 87.4664C52.134 87.5282 51.9349 87.5514 51.7371 87.5346C51.5394 87.5179 51.347 87.4615 51.1715 87.3688C50.9961 87.2761 50.8411 87.1491 50.7157 86.9953C50.5904 86.8415 50.4974 86.664 50.4422 86.4735C50.387 86.283 50.3707 86.0833 50.3944 85.8863C50.418 85.6894 50.4811 85.4992 50.5799 85.3272C50.6787 85.1551 50.8111 85.0047 50.9693 84.8849L52.0041 84.0428C52.3095 83.7971 52.7 83.6827 53.0898 83.7248C53.4796 83.767 53.8367 83.9621 54.0825 84.2673V84.2644ZM50.4371 80.5796L49.1214 80.7924C49.0431 80.8041 48.9641 80.8101 48.8849 80.8101C48.5155 80.8062 48.161 80.6643 47.8911 80.4123C47.6212 80.1603 47.4555 79.8164 47.4265 79.4484C47.3976 79.0804 47.5076 78.7149 47.7348 78.4238C47.962 78.1328 48.29 77.9373 48.6543 77.8758L49.9699 77.6631C50.3512 77.6135 50.7369 77.7144 51.045 77.9444C51.3531 78.1743 51.5594 78.5152 51.6202 78.8947C51.681 79.2742 51.5914 79.6624 51.3705 79.977C51.1497 80.2915 50.8148 80.5077 50.4371 80.5796ZM35.3113 3.5153V2.57859C35.3113 2.18675 35.467 1.81095 35.7443 1.53387C36.0215 1.25679 36.3975 1.10113 36.7896 1.10113C37.1816 1.10113 37.5576 1.25679 37.8349 1.53387C38.1121 1.81095 38.2679 2.18675 38.2679 2.57859V3.5153C38.2679 3.90715 38.1121 4.28295 37.8349 4.56002C37.5576 4.8371 37.1816 4.99276 36.7896 4.99276C36.3975 4.99276 36.0215 4.8371 35.7443 4.56002C35.467 4.28295 35.3113 3.90715 35.3113 3.5153ZM41.7063 6.78049C41.4101 6.52871 41.2251 6.17043 41.1913 5.78327C41.1576 5.3961 41.2778 5.01123 41.526 4.71205L42.1173 3.99104C42.2382 3.83117 42.3903 3.69754 42.5645 3.59828C42.7386 3.49903 42.9312 3.43622 43.1304 3.41367C43.3296 3.39112 43.5313 3.40931 43.7233 3.46713C43.9153 3.52495 44.0935 3.6212 44.247 3.75001C44.4006 3.87882 44.5264 4.03751 44.6167 4.21642C44.7069 4.39534 44.7599 4.59073 44.7722 4.79073C44.7846 4.99073 44.7561 5.19115 44.6885 5.3798C44.6209 5.56845 44.5156 5.74139 44.3791 5.8881L43.773 6.61206C43.5215 6.90854 43.1632 7.09403 42.7758 7.12832C42.3884 7.16262 42.0031 7.04295 41.7034 6.79526L41.7063 6.78049ZM45.5233 9.59653L46.4546 9.43105C46.8408 9.36326 47.2381 9.45157 47.5591 9.67656C47.8801 9.90155 48.0986 10.2448 48.1664 10.6307C48.2343 11.0167 48.1459 11.4138 47.9208 11.7347C47.6957 12.0555 47.3522 12.2739 46.9661 12.3416L46.0377 12.5071C45.9517 12.5213 45.8647 12.5283 45.7775 12.5278C45.4091 12.5256 45.0548 12.3859 44.784 12.1362C44.5133 11.8866 44.3456 11.5448 44.3137 11.178C44.2819 10.8111 44.3883 10.4457 44.612 10.1531C44.8358 9.86059 45.1607 9.66209 45.5233 9.59653ZM46.7975 18.4051C46.7007 18.5738 46.5715 18.7217 46.4174 18.8404C46.2633 18.959 46.0872 19.0461 45.8993 19.0966C45.7115 19.1471 45.5154 19.1601 45.3226 19.1347C45.1297 19.1094 44.9437 19.0462 44.7752 18.9488L43.9592 18.479C43.7909 18.382 43.6434 18.2528 43.525 18.0988C43.4067 17.9448 43.3198 17.769 43.2695 17.5815C43.2191 17.3939 43.2061 17.1983 43.2314 17.0058C43.2567 16.8132 43.3196 16.6275 43.4167 16.4593C43.5138 16.2911 43.643 16.1436 43.7971 16.0254C43.9512 15.9071 44.1271 15.8203 44.3148 15.7699C44.5024 15.7196 44.6981 15.7067 44.8908 15.7319C45.0834 15.7572 45.2692 15.8201 45.4375 15.9171L46.2535 16.3869C46.4227 16.4837 46.571 16.6129 46.69 16.7672C46.809 16.9215 46.8962 17.0978 46.9468 17.2859C46.9974 17.474 47.0102 17.6703 46.9846 17.8634C46.959 18.0565 46.8954 18.2426 46.7975 18.4111V18.4051ZM38.5192 21.7176C38.396 21.3524 38.4205 20.9535 38.5874 20.6061C38.7544 20.2586 39.0506 19.9901 39.4128 19.8579C39.775 19.7257 40.1746 19.7401 40.5263 19.8982C40.878 20.0563 41.154 20.3455 41.2954 20.7041L41.6206 21.5905C41.687 21.7731 41.7167 21.967 41.708 22.161C41.6993 22.3551 41.6525 22.5455 41.5701 22.7214C41.4877 22.8973 41.3714 23.0553 41.2279 23.1863C41.0844 23.3172 40.9164 23.4186 40.7336 23.4846C40.5714 23.5429 40.4004 23.5729 40.2281 23.5733C39.925 23.5736 39.6291 23.4808 39.3805 23.3074C39.132 23.1341 38.9427 22.8885 38.8385 22.6041L38.5192 21.7176ZM32.2779 20.707C32.4218 20.3525 32.6977 20.0677 33.0476 19.9124C33.3974 19.7571 33.7938 19.7435 34.1535 19.8744C34.5132 20.0053 34.808 20.2706 34.976 20.6144C35.1439 20.9581 35.1719 21.3536 35.0541 21.7176L34.7318 22.6041C34.6285 22.8896 34.4397 23.1364 34.1911 23.3109C33.9424 23.4854 33.646 23.5791 33.3422 23.5792C33.1696 23.579 32.9984 23.5479 32.8366 23.4876C32.4682 23.3542 32.1678 23.0801 32.0015 22.7255C31.8352 22.3709 31.8165 21.9648 31.9497 21.5965L32.2779 20.707ZM30.158 16.4667C30.354 16.8061 30.4071 17.2093 30.3057 17.5878C30.2042 17.9663 29.9565 18.289 29.6169 18.4849L28.8009 18.9577C28.6326 19.0547 28.4468 19.1177 28.2542 19.1429C28.0616 19.1682 27.8658 19.1552 27.6782 19.1049C27.4905 19.0545 27.3146 18.9677 27.1605 18.8495C27.0065 18.7312 26.8772 18.5837 26.7801 18.4155C26.6831 18.2473 26.6201 18.0616 26.5948 17.8691C26.5696 17.6765 26.5825 17.4809 26.6329 17.2933C26.6832 17.1058 26.7701 16.93 26.8884 16.776C27.0068 16.622 27.1543 16.4928 27.3227 16.3958L28.1387 15.926C28.3075 15.8278 28.4942 15.7641 28.6878 15.7384C28.8814 15.7128 29.0782 15.7258 29.2668 15.7766C29.4554 15.8274 29.6321 15.9151 29.7865 16.0346C29.941 16.1541 30.0703 16.3029 30.1669 16.4726L30.158 16.4667ZM25.4068 10.6396C25.4787 10.2563 25.6993 9.9169 26.0205 9.69548C26.3418 9.47407 26.7376 9.38857 27.1216 9.45765L28.047 9.62017C28.4095 9.68573 28.7345 9.88423 28.9582 10.1768C29.182 10.4693 29.2884 10.8348 29.2565 11.2016C29.2247 11.5685 29.057 11.9102 28.7862 12.1599C28.5155 12.4096 28.1612 12.5492 27.7927 12.5514C27.7054 12.5524 27.6183 12.5445 27.5326 12.5278L26.6072 12.3682C26.4155 12.3337 26.2326 12.2617 26.0689 12.1564C25.9052 12.051 25.764 11.9144 25.6533 11.7543C25.5426 11.5942 25.4646 11.4139 25.4238 11.2236C25.383 11.0333 25.3803 10.8369 25.4157 10.6455L25.4068 10.6396ZM29.1912 5.87924C28.9391 5.57908 28.8166 5.19113 28.8507 4.80073C28.8848 4.41033 29.0727 4.04946 29.373 3.7975C29.6734 3.54554 30.0615 3.42314 30.4521 3.45722C30.8428 3.4913 31.2038 3.67907 31.4559 3.97922L32.0472 4.70023C32.3005 5.00038 32.4241 5.3888 32.3908 5.78003C32.3576 6.17126 32.1702 6.53326 31.8698 6.7864C31.5695 7.03953 31.1809 7.16306 30.7894 7.12981C30.398 7.09656 30.0358 6.90926 29.7825 6.6091L29.1912 5.87924Z" fill="#185494"/>
</svg>
