<svg width="31" height="28" viewBox="0 0 31 28" fill="none" xmlns="http://www.w3.org/2000/svg">
<path fill-rule="evenodd" clip-rule="evenodd" d="M27.1233 0.980079C27.4996 0.83769 27.9084 0.797716 28.3061 0.864423C28.7038 0.931131 29.0755 1.10201 29.3815 1.35884C29.6875 1.61566 29.9163 1.94877 30.0435 2.32262C30.1707 2.69647 30.1915 3.09701 30.1037 3.48149L30.1023 3.48758L24.8657 25.81C24.7792 26.1777 24.5961 26.5177 24.3346 26.7955C24.0731 27.0733 23.7421 27.28 23.3741 27.3952C23.006 27.5104 22.6136 27.5301 22.2354 27.4525C21.8579 27.3751 21.5075 27.2033 21.2185 26.954L21.2167 26.9525L8.92298 16.3938L1.79252 14.9965L1.78793 14.9956C-0.353797 14.5668 -0.682916 11.6384 1.41031 10.8376L27.1187 0.981817L27.1233 0.980079ZM2.23036 12.8601L2.23103 12.8638L2.23449 12.8646L2.2357 12.8648L9.65418 14.3185C9.84588 14.3561 10.0241 14.4423 10.1709 14.5683L22.6912 25.3217L22.6938 25.3239L27.9288 3.00815L2.23036 12.8601Z" fill="#0C084F"/>
<path fill-rule="evenodd" clip-rule="evenodd" d="M29.2929 1.3845C29.6532 1.87143 29.5408 2.55126 29.042 2.90295L10.0874 16.2665C9.58858 16.6182 8.89214 16.5085 8.53185 16.0216C8.17157 15.5347 8.28388 14.8549 8.78271 14.5032L27.7373 1.13964C28.2361 0.787949 28.9326 0.89758 29.2929 1.3845Z" fill="#0C084F"/>
<path fill-rule="evenodd" clip-rule="evenodd" d="M9.43498 14.2973C10.0503 14.2973 10.5491 14.7842 10.5491 15.3848L10.5491 24.2331L10.5551 24.2272L14.9004 19.9857C15.3355 19.561 16.0409 19.561 16.476 19.9857C16.9111 20.4104 16.9111 21.099 16.476 21.5238L12.1333 25.7629C11.8238 26.0683 11.4285 26.2774 10.9973 26.3638C10.5645 26.4506 10.115 26.4098 9.70601 26.2466C9.297 26.0834 8.94693 25.8052 8.70029 25.4473C8.45364 25.0894 8.32156 24.6681 8.32082 24.2368L8.32082 15.3848C8.32082 14.7842 8.81965 14.2973 9.43498 14.2973Z" fill="#0C084F"/>
</svg>
