<svg width="722" height="449" viewBox="0 0 722 449" fill="none" xmlns="http://www.w3.org/2000/svg">
<g clip-path="url(#clip0_2937_3903)">
<path d="M110.974 449H117.48L86.5969 280.114H80.0909L83.0725 296.422H46.8725L43.8909 280.114H37.3887L68.2676 449H74.7736L70.6376 426.376H106.838L110.974 449ZM61.3793 375.758H97.5792L101.581 397.664H65.3815L61.3754 375.758H61.3793ZM52.1248 325.134H88.3247L92.3308 347.039H56.1308L52.1248 325.134ZM92.9539 350.448L96.96 372.349H60.76L56.7539 350.448H92.9539ZM83.6994 299.823L87.7016 321.728H51.5017L47.4956 299.823H83.6994ZM70.0145 422.974L66.0084 401.069H102.208L106.214 422.974H70.0145Z" fill="#2D1226"/>
<path d="M30.8827 280.114L0 449H6.50605L37.385 280.114H30.8827Z" fill="#B3C7D1"/>
<path d="M74.1963 299.823H28.5469L29.0171 296.418H74.1963V299.823Z" fill="#66737A"/>
<path d="M69.3838 325.134H23.7344L24.2046 321.725H69.3838V325.134Z" fill="#66737A"/>
<path d="M64.5751 350.448H18.9219L19.3959 347.035H64.5751V350.448Z" fill="#66737A"/>
<path d="M60.2138 375.759H14.5605L15.0307 372.35H60.2138V375.759Z" fill="#66737A"/>
<path d="M55.7334 401.069H10.084L10.558 397.66H55.7334V401.069Z" fill="#66737A"/>
<path d="M50.9248 426.376H5.27539L5.74557 422.971H50.9248V426.376Z" fill="#66737A"/>
<path d="M73.5888 280.114L42.7061 449H49.2121L80.091 280.114H73.5888Z" fill="#B3C7D1"/>
<path d="M90.3091 272.722H21.6133V282.13H90.3091V272.722Z" fill="#FAA433"/>
<path d="M90.3091 272.722H21.6133V277.424H90.3091V272.722Z" fill="#C46626"/>
<path d="M616.611 413.087C616.611 423.601 608.106 432.111 597.62 432.111H170.04C159.543 432.111 151.042 423.598 151.042 413.087V173.787C151.042 163.288 159.543 154.778 170.04 154.778H597.62C608.106 154.778 616.611 163.288 616.611 173.787V413.087Z" fill="#B3C7D1"/>
<path d="M599.925 170.791H167.728V416.083H599.925V170.791Z" fill="#2D1226"/>
<path d="M595.327 175.918H172.334V410.978H595.327V175.918Z" fill="white"/>
<path d="M87.9004 419.576V420.464C87.9004 433.817 98.7145 444.634 112.048 444.634H655.605C668.942 444.634 679.749 433.817 679.749 420.464V419.576H87.9004Z" fill="#95A7AF"/>
<path d="M678.564 427.948C679.328 425.591 679.753 423.089 679.753 420.464V419.576H87.9004V420.464C87.9004 423.089 88.3362 425.587 89.0969 427.948H678.564Z" fill="#D6DFE4"/>
<path d="M693.885 141.164C693.885 151.491 685.517 159.871 675.196 159.871C664.875 159.871 656.508 151.488 656.508 141.164C656.508 130.841 664.875 122.458 675.196 122.458C685.517 122.458 693.885 130.834 693.885 141.164Z" fill="#66737A"/>
<path d="M716.943 68.0264H716.935C720.165 61.671 721.997 54.4701 721.997 46.8406C721.997 20.9715 701.045 -0.00390625 675.196 -0.00390625C649.348 -0.00390625 628.396 20.9715 628.396 46.8406C628.396 54.6308 630.3 61.9618 633.656 68.4205C638.691 79.5625 645.896 81.5521 645.896 97.7523C645.896 113.953 659.012 127.08 675.196 127.08C691.381 127.08 704.493 113.949 704.493 97.7523C704.493 86.8591 708.117 81.5521 712.325 75.3498C714.061 73.0885 715.586 70.6665 716.893 68.1029C716.909 68.0838 716.924 68.057 716.939 68.0226L716.943 68.0264Z" fill="#FAA433"/>
<path d="M687.333 119.038C671.148 119.038 658.029 105.906 658.029 89.7095C658.029 73.5131 650.831 71.5158 645.793 60.3815C642.437 53.9151 640.529 46.5841 640.529 38.8016C640.529 25.1151 646.389 12.81 655.74 4.23926C639.608 11.6315 628.396 27.9236 628.396 46.8405C628.396 54.6307 630.3 61.9617 633.656 68.4204C638.691 79.5623 645.896 81.552 645.896 97.7522C645.896 113.952 659.012 127.08 675.196 127.08C683.82 127.08 691.572 123.354 696.932 117.419C693.923 118.464 690.697 119.038 687.329 119.038H687.333Z" fill="#C46626"/>
<path d="M703.124 108.362H647.269V140.832H703.124V108.362Z" fill="#B3C7D1"/>
<path d="M703.124 119.038H647.269V130.157H703.124V119.038Z" fill="#66737A"/>
<path d="M653.101 395.422C651.324 396.229 649.233 395.444 648.426 393.658L638.61 371.944C638.159 370.945 638.197 369.793 638.713 368.829L686.385 279.039L675.75 255.5L604.451 287.782C602.674 288.589 600.583 287.79 599.776 286.014C598.973 284.239 599.761 282.142 601.542 281.339L676.056 247.599C677.834 246.792 679.928 247.58 680.731 249.363L693.541 277.7C693.995 278.703 693.957 279.858 693.441 280.815L645.77 370.612L654.867 390.742C655.674 392.525 654.883 394.614 653.105 395.422H653.101Z" fill="#2D1226"/>
<path d="M675.2 271.536L545.553 330.242L530.794 297.581L660.437 238.879L675.2 271.536Z" fill="#F3B86E"/>
<path d="M638.824 390.037L661.974 441.255C664.432 446.692 670.823 449.107 676.255 446.646C681.687 444.186 684.095 437.789 681.637 432.352L658.491 381.134L638.828 390.041L638.824 390.037Z" fill="#13799D"/>
<path d="M676.075 434.093C677.214 436.615 676.094 439.588 673.575 440.732C671.056 441.872 668.086 440.747 666.947 438.229C665.808 435.708 666.92 432.731 669.443 431.587C671.962 430.447 674.932 431.572 676.071 434.089L676.075 434.093Z" fill="#00465E"/>
<path d="M659.908 376.186L634.156 387.847L636.516 393.069L662.268 381.409L659.908 376.186Z" fill="#00465E"/>
<path d="M306.159 326.836H300.349V409.107H306.159V326.836Z" fill="#6F98A9"/>
<path d="M310.398 326.836H306.159V409.107H310.398V326.836Z" fill="#577A88"/>
<path d="M467.301 326.836H461.49V409.107H467.301V326.836Z" fill="#6F98A9"/>
<path d="M461.49 326.836H457.255V409.107H461.49V326.836Z" fill="#577A88"/>
<path d="M448.551 326.836H446.101V409.107H448.551V326.836Z" fill="#6F98A9"/>
<path d="M446.101 326.836H444.315V409.107H446.101V326.836Z" fill="#577A88"/>
<path d="M321.549 326.836H319.099V409.107H321.549V326.836Z" fill="#6F98A9"/>
<path d="M323.334 326.836H321.549V409.107H323.334V326.836Z" fill="#577A88"/>
<path d="M473.47 315.82H294.183V352.835H473.47V315.82Z" fill="#FAA433"/>
<path d="M441.941 348.156H429.789L455.148 320.496H467.304L441.941 348.156Z" fill="#2D1226"/>
<path d="M416.054 348.156H403.902L429.261 320.496H441.413L416.054 348.156Z" fill="#2D1226"/>
<path d="M467.304 335.479L455.676 348.156H467.304V335.479Z" fill="#2D1226"/>
<path d="M300.349 333.176L311.973 320.496H300.349V333.176Z" fill="#2D1226"/>
<path d="M390.165 348.156H378.013L403.372 320.496H415.528L390.165 348.156Z" fill="#2D1226"/>
<path d="M364.278 348.156H352.122L377.485 320.496H389.637L364.278 348.156Z" fill="#2D1226"/>
<path d="M338.387 348.156H326.235L351.598 320.496H363.746L338.387 348.156Z" fill="#2D1226"/>
<path d="M312.501 348.156H300.349L325.708 320.496H337.864L312.501 348.156Z" fill="#2D1226"/>
<path d="M569.05 71.1406H198.599V279.452H569.05V71.1406Z" fill="white"/>
<path d="M569.05 114.905H198.599V221.91H569.05V114.905Z" fill="#FAA433"/>
<path d="M569.05 71.1406H198.599V88.726H569.05V71.1406Z" fill="#B3C7D1"/>
<path d="M395.649 93.8877H371.991V97.8325H395.649V93.8877Z" fill="#707E85"/>
<path d="M217.505 77.959H205.674V81.9038H217.505V77.959Z" fill="#707E85"/>
<path d="M235.663 77.959H223.832V81.9038H235.663V77.959Z" fill="#707E85"/>
<path d="M253.827 77.959H241.996V81.9038H253.827V77.959Z" fill="#707E85"/>
<path d="M559.765 76.1381L558.989 75.3613L555.189 79.1569L551.393 75.3613L550.617 76.1381L554.413 79.9413L550.617 83.7293L551.393 84.5137L555.189 80.718L558.989 84.5137L559.765 83.7293L555.973 79.9413L559.765 76.1381Z" fill="#707E85"/>
<path d="M244.719 236.043H221.061V239.988H244.719V236.043Z" fill="#707E85"/>
<path d="M351.086 246.646H221.061V250.59H351.086V246.646Z" fill="#707E85"/>
<path d="M351.086 253.059H221.061V257.003H351.086V253.059Z" fill="#707E85"/>
<path d="M351.086 259.476H221.061V263.42H351.086V259.476Z" fill="#707E85"/>
<path d="M351.086 265.896H221.061V269.837H351.086V265.896Z" fill="#707E85"/>
<path d="M555.189 246.646H458.516V250.59H555.189V246.646Z" fill="#707E85"/>
<path d="M555.189 253.059H458.516V257.003H555.189V253.059Z" fill="#707E85"/>
<path d="M555.189 259.476H458.516V263.42H555.189V259.476Z" fill="#707E85"/>
<path d="M555.189 265.896H458.516V269.837H555.189V265.896Z" fill="#707E85"/>
<path d="M432.247 93.8877H408.589V97.8325H432.247V93.8877Z" fill="#707E85"/>
<path d="M468.845 93.8877H445.187V97.8325H468.845V93.8877Z" fill="#707E85"/>
<path d="M505.434 93.8877H481.776V97.8325H505.434V93.8877Z" fill="#707E85"/>
<path d="M542.028 93.8877H518.37V97.8325H542.028V93.8877Z" fill="#707E85"/>
<path d="M555.19 126.755H361.843V208.552H555.19V126.755Z" fill="white"/>
<path d="M378.249 234.922H405.252C407.095 234.922 408.589 236.418 408.589 238.262V265.291C408.589 267.135 407.095 268.631 405.252 268.631H378.249C376.407 268.631 374.912 267.135 374.912 265.291V238.262C374.912 236.418 376.407 234.922 378.249 234.922Z" fill="#F26354"/>
<path d="M394.874 253.426V250.399C396.491 249.795 397.638 248.249 397.638 246.424C397.638 244.082 395.738 242.181 393.399 242.181C391.059 242.181 389.167 244.082 389.167 246.424C389.167 247.744 389.763 248.915 390.7 249.692H387.63C388.567 248.911 389.167 247.744 389.167 246.424C389.167 244.082 387.267 242.181 384.928 242.181C382.588 242.181 380.688 244.082 380.688 246.424C380.688 248.161 381.724 249.646 383.215 250.304V261.365H394.874V257.631L402.81 259.969V251.088L394.874 253.426ZM393.399 244.327C394.561 244.327 395.501 245.265 395.501 246.424C395.501 247.583 394.557 248.528 393.399 248.528C392.24 248.528 391.304 247.587 391.304 246.424C391.304 245.261 392.244 244.327 393.399 244.327ZM384.928 244.327C386.09 244.327 387.023 245.265 387.023 246.424C387.023 247.583 386.086 248.528 384.928 248.528C383.769 248.528 382.825 247.587 382.825 246.424C382.825 245.261 383.766 244.327 384.928 244.327Z" fill="white"/>
<path d="M418.745 234.922H445.748C447.591 234.922 449.085 236.418 449.085 238.262V265.291C449.085 267.135 447.591 268.631 445.748 268.631H418.741C416.899 268.631 415.404 267.135 415.404 265.291V238.262C415.404 236.418 416.899 234.922 418.741 234.922H418.745Z" fill="#FAA433"/>
<path d="M200.476 289.01L210.754 270.633L190.349 275.768L182.712 281.618L192.842 294.857L200.476 289.01Z" fill="#FAA433"/>
<path d="M207.276 276.854L210.755 270.633L203.844 272.374L207.276 276.854Z" fill="#5D2A00"/>
<path d="M82.1703 369.135C79.3951 365.508 80.0831 360.316 83.7069 357.546C87.3308 354.772 92.5142 355.46 95.2894 359.088C98.0608 362.711 97.3727 367.903 93.7489 370.677C90.1251 373.455 84.9416 372.767 82.1703 369.135Z" fill="#F26354"/>
<path d="M188.281 277.42L92.9756 350.436L103.019 363.571L198.325 290.555L188.281 277.42Z" fill="#FAA433"/>
<path d="M92.9615 350.452L85.3125 356.318L95.3506 369.453L103.003 363.588L92.9615 350.452Z" fill="#B3C7D1"/>
<path d="M90.5879 352.273L87.6865 354.5L97.7285 367.632L100.63 365.409L90.5879 352.273Z" fill="#66737A"/>
<path d="M191.147 281.176L95.8408 354.191L100.146 359.822L195.452 286.806L191.147 281.176Z" fill="#C46626"/>
</g>
<defs>
<clipPath id="clip0_2937_3903">
<rect width="722" height="449" fill="white"/>
</clipPath>
</defs>
</svg>
