<svg width="23" height="22" viewBox="0 0 23 22" fill="none" xmlns="http://www.w3.org/2000/svg">
<path fill-rule="evenodd" clip-rule="evenodd" d="M11.4999 1.76C8.11255 1.76 5.3666 4.51791 5.3666 7.91998C5.3666 11.322 8.11255 14.08 11.4999 14.08C14.8872 14.08 17.6331 11.322 17.6331 7.91998C17.6331 4.51791 14.8872 1.76 11.4999 1.76ZM3.61424 7.91998C3.61424 3.5459 7.14475 0 11.4999 0C15.855 0 19.3855 3.5459 19.3855 7.91998C19.3855 12.2941 15.855 15.84 11.4999 15.84C7.14475 15.84 3.61424 12.2941 3.61424 7.91998Z" fill="#185494"/>
<path fill-rule="evenodd" clip-rule="evenodd" d="M11.5 15.8389C9.5004 15.8389 7.53604 16.3676 5.80438 17.3718C4.07272 18.3761 2.6348 19.8204 1.63516 21.5598C1.39325 21.9807 0.857398 22.125 0.438306 21.882C0.0192135 21.639 -0.12442 21.1008 0.117492 20.6799C1.27092 18.673 2.93007 17.0064 4.92813 15.8477C6.9262 14.6889 9.19277 14.0789 11.5 14.0789C13.8072 14.0789 16.0738 14.6889 18.0719 15.8477C20.0699 17.0064 21.7291 18.673 22.8825 20.6799C23.1244 21.1008 22.9808 21.639 22.5617 21.882C22.1426 22.125 21.6068 21.9807 21.3648 21.5598C20.3652 19.8204 18.9273 18.3761 17.1956 17.3718C15.464 16.3676 13.4996 15.8389 11.5 15.8389Z" fill="#185494"/>
</svg>
