<svg width="31" height="30" viewBox="0 0 31 30" fill="none" xmlns="http://www.w3.org/2000/svg">
<path d="M28.5477 7.34884C24.3089 0.233532 15.0402 -2.12428 7.88888 2.09321C0.882638 6.22408 -1.53356 15.1572 2.35557 22.209L1.12643 26.5275C1.00309 26.9491 1.00309 27.3938 1.12643 27.8154C1.48342 29.0312 2.76771 29.73 3.97943 29.3777L8.32859 28.1519C10.5866 29.3835 13.0812 30 15.5757 30C18.2343 30 20.8928 29.3012 23.264 27.9021C26.728 25.859 29.1862 22.5959 30.1832 18.7134C31.1816 14.8309 30.5997 10.7953 28.5463 7.34739L28.5477 7.34884ZM27.9353 18.1416C27.0907 21.4264 25.0127 24.187 22.0813 25.9153C18.0703 28.2804 13.0855 28.2804 9.07304 25.9153C8.89164 25.8085 8.68703 25.7536 8.48096 25.7536C8.37502 25.7536 8.26909 25.7681 8.1646 25.7969L3.36269 27.1498L4.72243 22.3721C4.8095 22.0675 4.76597 21.7412 4.60344 21.4683C1.0176 15.4489 3.02166 7.64772 9.07304 4.07996C15.123 0.512195 22.9636 2.50616 26.5495 8.52702C28.2865 11.4436 28.7785 14.8583 27.9339 18.1416H27.9353Z" fill="#0C084F"/>
<path d="M23.2016 17.154L20.2369 15.4633C19.5113 15.0576 18.6159 15.0691 17.8976 15.4936L16.1693 16.5231C15.2855 16.0163 14.5527 15.2871 14.0433 14.4078L15.0794 12.6853C15.5046 11.9735 15.5148 11.0826 15.1026 10.3506L13.4077 7.41092C13.0246 6.73087 12.299 6.31071 11.527 6.31937C8.65655 6.31937 6.31291 8.64253 6.30276 11.4985V11.5634C6.31146 14.9536 7.64654 18.1373 10.0613 20.5283C12.4688 22.9121 15.6628 24.2231 19.0571 24.2231C19.0701 24.2231 19.0832 24.2231 19.0948 24.2231C21.9522 24.2029 24.2856 21.8726 24.2958 19.0339C24.3016 18.2543 23.8822 17.5352 23.1987 17.154H23.2016ZM19.0832 21.913H19.06C16.2824 21.913 13.6703 20.8402 11.7011 18.891C9.72606 16.9346 8.63333 14.3313 8.62608 11.5562V11.5071C8.63188 9.95355 9.87989 8.6844 11.437 8.63098L13.0855 11.4898L13.087 11.5014L11.7229 13.7682C11.5284 14.0916 11.5037 14.4901 11.6605 14.8352C12.476 16.6415 13.9257 18.0824 15.7412 18.8953C16.088 19.0498 16.4885 19.0267 16.8136 18.8332L19.0934 17.4731L21.9768 19.1177C21.9202 20.6568 20.6432 21.9014 19.0847 21.9144L19.0832 21.913Z" fill="#0C084F"/>
</svg>
